<svg xmlns="http://www.w3.org/2000/svg" xmlns:xlink="http://www.w3.org/1999/xlink" width="740.33" height="599.715" viewBox="0 0 740.33 599.715"><defs><style>.a{opacity:0.7;}.b{fill:#f2f5fa;}.c{fill:#e2eaf5;}.af,.d{fill:#9fc3fd;}.al,.e,.y{fill:#7789f2;}.ac,.f{fill:#d3e0f1;}.g{fill:#fff;}.aj,.ak,.h,.i,.o,.p{fill:none;}.h{stroke:#fff;stroke-width:2.15px;}.aj,.ak,.h,.i,.o{stroke-linecap:round;}.aj,.ak,.h,.o{stroke-linejoin:round;}.ak,.i{stroke:#7789f2;}.i,.p{stroke-miterlimit:10;}.i{stroke-width:4px;}.j{fill:#e0e0e0;}.k{fill:#455a64;}.l{fill:#82bfab;}.m{fill:#c3d1ff;}.n,.x{fill:#4055ec;}.o{stroke:#c3d1ff;stroke-width:3px;}.p{stroke:#18186d;stroke-width:5px;}.q,.t{fill:#0600a0;}.aa,.ab,.ac,.af,.ag,.ai,.q,.x,.y,.z{fill-rule:evenodd;}.r{fill:#f88329;}.s{fill:#fdb2d0;}.u,.z{fill:#01017c;}.v{fill:#ffcae1;}.w{opacity:0.19;}.aa{fill:#4052f2;}.ab{fill:#97c1ef;}.ad{fill:#ff7f00;}.ae{fill:#fcaa23;}.ag{fill:url(#a);}.ah{fill:#f50;}.ai{fill:#342dec;}.aj{stroke:#d3e0f1;}.aj,.ak{stroke-width:2px;}.al{opacity:0.68;}</style><linearGradient id="a" y1="0.5" x2="1" y2="0.5" gradientUnits="objectBoundingBox"><stop offset="0" stop-color="#fff" stop-opacity="0"/><stop offset="1" stop-color="#fff"/></linearGradient></defs><g class="a" transform="translate(-318.667 -112.428)"><g transform="translate(318.667 112.428)"><path class="b" d="M1194.886,1209.9c-29.692-35.609-55.559-93.848-62.423-140.22-25.975-175.454,173.738-284.841,309.271-316.531q17.759-4.142,35.8-6.82c46.485-6.844,105.907-10.859,146.907,17.8,25.522,17.855,31.513,45.06,24.934,75.074-8.033,36.629-12.34,76.648,14.67,106.51,28.788,31.82,75.065,28.675,111.368,45.7,28.7,13.454,54.193,37.227,65.191,68.685,22.988,65.765-72,132.667-124.218,149.8Z" transform="translate(-1103.796 -656.175)"/><circle class="c" cx="70.05" cy="70.05" r="70.05" transform="translate(506.091 198.387)"/><rect class="d" width="39.882" height="48.638" transform="translate(538.526 248.36)"/><rect class="d" width="39.885" height="48.638" transform="translate(585.06 248.36)"/><rect class="e" width="7.978" height="48.638" transform="translate(578.003 248.36)"/><path class="f" d="M2981.032,1276.863c-5.609-8.39-39.883-2.275-39.883-2.275V1225.95s32.045-8.25,39.882,2.275Z" transform="translate(-2400.623 -979.78)"/><path class="b" d="M2987.635,1272.6c-5.609-8.39-39.885-6.258-39.885-6.258V1217.7s32.048-4.266,39.885,6.258Z" transform="translate(-2405.346 -975.485)"/><path class="g" d="M3001.578,1265.708c-5.609-8.39-35.818-9.943-35.818-9.943v-48.65s27.98-.585,35.818,9.943Z" transform="translate(-2418.147 -968.551)"/><path class="f" d="M3075.35,1229.42v48.869a10.831,10.831,0,0,1,3.769,3.217v-48.65A14.682,14.682,0,0,0,3075.35,1229.42Z" transform="translate(-2495.879 -984.442)"/><path class="f" d="M3099,1276.863c5.609-8.39,39.882-2.275,39.882-2.275V1225.95s-32.045-8.25-39.882,2.275Z" transform="translate(-2513.593 -979.78)"/><path class="b" d="M3092.34,1272.6c5.609-8.39,39.885-6.258,39.885-6.258V1217.7s-32.048-4.266-39.885,6.258Z" transform="translate(-2508.827 -975.485)"/><path class="g" d="M3088.24,1265.708c5.609-8.39,35.818-9.943,35.818-9.943v-48.65s-27.98-.585-35.818,9.943Z" transform="translate(-2505.799 -968.551)"/><path class="f" d="M3091.5,1230.61a14.184,14.184,0,0,0-3.257,3.088v48.638a10.2,10.2,0,0,1,3.258-2.9Z" transform="translate(-2505.088 -985.289)"/><path class="e" d="M3073.212,1310.3s.208,2.6-6.542,2.6-6.17-2.6-6.17-2.6V1301h12.712Z" transform="translate(-2485.434 -1035.169)"/><path class="f" d="M3040.181,1152.9c-10.425,0-17.411,7.659-17.411,16.055,0,10.528,5.995,13.546,8.1,17.137s.877,9.51,3.094,9.51H3046.4c2.231,0,.991-5.919,3.1-9.51s8.1-6.606,8.1-17.137C3057.593,1160.559,3050.806,1152.9,3040.181,1152.9Z" transform="translate(-2458.924 -929.548)"/><path class="e" d="M3037.681,1189.177c-2.105-3.591-7.5-7.156-8.793-17.608a19.845,19.845,0,0,1,4.316-14.309,16.014,16.014,0,0,0-10.434,14.78c0,10.528,5.995,13.546,8.1,17.137s.877,9.51,3.094,9.51h6.811C3038.547,1198.687,3039.8,1192.768,3037.681,1189.177Z" transform="translate(-2458.562 -932.654)"/><path class="g" d="M3105.165,1189.022c-3.009.585-6.258-3.138-7.258-8.311s.629-9.835,3.635-10.417,6.258,3.138,7.259,8.308S3108.175,1188.438,3105.165,1189.022Z" transform="translate(-2511.967 -941.691)"/><line class="h" y1="4.951" transform="translate(576.805 260.503)"/><line class="h" y1="2.477" transform="translate(578.975 262.94)"/><rect class="f" width="15.107" height="2.6" transform="translate(573.84 265.35)"/><rect class="f" width="15.107" height="2.6" transform="translate(573.84 269.43)"/><rect class="f" width="15.107" height="2.6" transform="translate(573.84 273.248)"/><line class="i" y1="5.559" transform="translate(582.89 214.755)"/><line class="i" y1="3.161" x2="6.311" transform="translate(596.989 223.771)"/><line class="i" x1="3.562" y1="5.258" transform="translate(562.664 220.169)"/><line class="i" y1="5.41" x2="3.907" transform="translate(591.264 217.461)"/><line class="i" x1="0.831" y1="5.559" transform="translate(573.328 214.755)"/><line class="i" x1="6.358" y1="3.848" transform="translate(556.419 226.842)"/><circle class="c" cx="97.448" cy="97.448" r="97.448" transform="translate(369.583)"/><rect class="f" width="126.648" height="88.251" rx="11.55" transform="translate(405.908 43.19)"/><rect class="g" width="82.686" height="105.768" transform="translate(414.731 128.66) rotate(-90)"/><path class="d" d="M2876.389,653.93a3.386,3.386,0,1,1-3.39,3.384,3.387,3.387,0,0,1,3.39-3.384Z" transform="translate(-2351.195 -569.998)"/><rect class="d" width="26.579" height="1.398" rx="0.699" transform="translate(411.643 100.607) rotate(-90)"/><rect class="d" width="33.636" height="2.249" transform="translate(462.941 52.188)"/><rect class="d" width="33.636" height="2.249" transform="translate(420.334 90.871)"/><path class="e" d="M2709.69,573.646c0,.082-9.358.146-20.912.146s-20.918-.064-20.918-.146,9.358-.146,20.918-.146S2709.69,573.573,2709.69,573.646Z" transform="translate(-2205.069 -513.089)"/><path class="e" d="M2709.69,590.476c0,.082-9.358.149-20.912.149s-20.918-.067-20.918-.149,9.358-.146,20.918-.146S2709.69,590.4,2709.69,590.476Z" transform="translate(-2205.069 -524.997)"/><path class="e" d="M2709.69,607.276c0,.082-9.358.149-20.912.149s-20.918-.067-20.918-.149,9.358-.146,20.918-.146S2709.69,607.2,2709.69,607.276Z" transform="translate(-2205.069 -536.884)"/><path class="e" d="M2709.69,624.079c0,.079-9.358.146-20.912.146s-20.918-.067-20.918-.146,9.358-.149,20.918-.149S2709.69,624,2709.69,624.079Z" transform="translate(-2205.069 -548.771)"/><path class="e" d="M2709.69,640.879c0,.079-9.358.146-20.912.146s-20.918-.067-20.918-.146,9.358-.149,20.918-.149S2709.69,640.809,2709.69,640.879Z" transform="translate(-2205.069 -560.658)"/><path class="e" d="M2700.516,657.646c0,.082-7.311.146-16.327.146s-16.33-.064-16.33-.146,7.311-.146,16.33-.146S2700.516,657.576,2700.516,657.646Z" transform="translate(-2204.902 -572.524)"/><path class="e" d="M2574.166,707.639c0,.082-12.282.146-27.437.146s-27.439-.064-27.439-.146,12.282-.149,27.439-.149S2574.166,707.546,2574.166,707.639Z" transform="translate(-2098.959 -607.895)"/><path class="e" d="M2574.166,721.646c0,.082-12.282.149-27.437.149s-27.439-.067-27.439-.149,12.282-.146,27.439-.146S2574.166,721.556,2574.166,721.646Z" transform="translate(-2098.959 -617.808)"/><path class="e" d="M2574.166,735.646c0,.082-12.282.146-27.437.146s-27.439-.064-27.439-.146,12.282-.146,27.439-.146S2574.166,735.556,2574.166,735.646Z" transform="translate(-2098.959 -627.714)"/><path class="e" d="M2574.166,749.639c0,.079-12.282.146-27.437.146s-27.439-.067-27.439-.146,12.282-.149,27.439-.149S2574.166,749.551,2574.166,749.639Z" transform="translate(-2098.959 -637.613)"/><path class="e" d="M2574.166,763.646c0,.082-12.282.149-27.437.149s-27.439-.067-27.439-.149,12.282-.146,27.439-.146S2574.166,763.561,2574.166,763.646Z" transform="translate(-2098.959 -647.526)"/><rect class="d" width="33.721" height="32.624" transform="translate(420.688 51.03)"/><path class="g" d="M2528.24,602.819l9.325-16.789,7.63,10.729,4.638-5.7,6.9,11.756Z" transform="translate(-2104.921 -521.954)"/><path class="g" d="M2585.594,568.987a2.427,2.427,0,1,1-2.427-2.427A2.427,2.427,0,0,1,2585.594,568.987Z" transform="translate(-2142.103 -508.178)"/><path class="e" d="M2556.271,577.551a.951.951,0,0,1,0-.135v-.38c0-.348,0-.836-.014-1.462,0-1.3-.021-3.164-.035-5.556-.018-4.764-.044-11.551-.073-19.7l.141.137-28.489.023c-.041.035.292-.292.155-.155v14.329c0,4.571,0,8.89-.018,12.867l-.137-.14,20.6.07,5.811.038,1.541.015h.541a.552.552,0,0,1-.126,0h-.383l-1.515.018-5.8.1-20.689.073h-.141v-.14c0-3.974,0-8.293-.018-12.867V550.361c-.143.14.193-.2.164-.167l28.489.023h.137v.137c-.03,8.188-.056,15-.07,19.786-.018,2.363-.029,4.223-.038,5.51,0,.62,0,1.1-.015,1.442v.365A.769.769,0,0,1,2556.271,577.551Z" transform="translate(-2104.46 -496.596)"/><rect class="d" width="23.866" height="23.088" transform="translate(481.595 95.202)"/><path class="j" d="M2739.15,735.912l6.6-11.882,5.4,7.595,3.281-4.033,4.881,8.32Z" transform="translate(-2255.687 -619.598)"/><path class="j" d="M2779.739,711.977a1.719,1.719,0,1,1-1.717-1.717A1.718,1.718,0,0,1,2779.739,711.977Z" transform="translate(-2281.964 -609.855)"/><path class="k" d="M2759.179,717.983v-1.4c0-.915-.015-2.24-.027-3.919,0-3.375-.029-8.188-.05-13.943l.1.1h-20.161l.111-.111v19.26l-.1-.1,14.581.05,4.112.026h1.483a.432.432,0,0,1-.088,0H2757.8l-4.094.026-14.642.05h-.1v-19.3l.117-.117,20.16.017h.1v.1c-.021,5.793-.038,10.615-.05,14,0,1.67-.021,2.989-.026,3.9V717.9A.229.229,0,0,1,2759.179,717.983Z" transform="translate(-2255.554 -601.605)"/><path class="e" d="M2705.162,716.338l21.956-8.855a1.462,1.462,0,0,0,.822-1.834l-.307-.857a.424.424,0,0,1,.064-.395c4.41-5.773,1.4-13.452,1.4-13.452l-4.422-11.306a.4.4,0,0,1-.017-.056c-.085-.386-1.322-5.77-5.337-5.77a5.05,5.05,0,0,0-4.278,1.91.43.43,0,0,1-.769-.14c-.278-1.17-1.193-2.632-4-2.945-3.117-.354-4.36,1.4-4.852,2.667a.421.421,0,0,1-.769.038c-1.009-2.091-3.158-4.515-5.872-3.612a4.894,4.894,0,0,0-3.109,2.734.427.427,0,0,1-.8,0l-4.518-11.613s-2.173-6.969-6.7-5.264-2.073,7.709-2.073,7.709L2692,692.832a.427.427,0,0,1-.62.518l-4.971-3.006-.053-.038c-.36-.313-5.62-4.787-8.94-1.293s.333,7.311.617,7.586l.044.035,24.681,17.926.138.167.412.877A1.462,1.462,0,0,0,2705.162,716.338Z" transform="translate(-2211.15 -572.398)"/><path class="e" d="M2802.583,844.941l-4.948-11.133a1.632,1.632,0,0,0-2.1-.851l-24.228,9.759a1.629,1.629,0,0,0-.877,2.19l5.033,10.925a1.626,1.626,0,0,0,2.076.831l24.144-9.548a1.629,1.629,0,0,0,.9-2.173Z" transform="translate(-2278.194 -700.317)"/><path class="e" d="M2669.133,595.591a2.9,2.9,0,0,0,5.407-2.082l-3.027-7.858a2.9,2.9,0,0,0-5.4,2.082Z" transform="translate(-2203.095 -520.373)"/><path class="e" d="M2628.2,627.362l7.7,3.416a2.9,2.9,0,1,0,2.34-5.293l-7.694-3.419a2.9,2.9,0,0,0-2.34,5.3Z" transform="translate(-2175.05 -547.313)"/><path class="e" d="M2742.653,671.58l-7.7-3.416a2.9,2.9,0,1,0-2.34,5.293l7.694,3.419a2.9,2.9,0,0,0,2.339-5.3Z" transform="translate(-2249.593 -579.867)"/><path class="e" d="M2638.362,668.086a2.9,2.9,0,0,0-3.743-1.664l-7.857,3.027a2.9,2.9,0,1,0,2.082,5.4l7.858-3.024A2.9,2.9,0,0,0,2638.362,668.086Z" transform="translate(-2173.838 -578.7)"/><path class="e" d="M2732.031,631.8a2.9,2.9,0,0,0,3.743,1.664l7.857-3.012a2.9,2.9,0,1,0-2.082-5.4l-7.858,3.024A2.9,2.9,0,0,0,2732.031,631.8Z" transform="translate(-2250.341 -549.426)"/><path class="e" d="M2668.258,701.549l3.416-7.694a2.9,2.9,0,1,0-5.293-2.339l-3.416,7.694a2.9,2.9,0,1,0,5.293,2.339Z" transform="translate(-2200.787 -595.31)"/><path class="e" d="M2710.853,598.547a2.9,2.9,0,0,0,3.822-1.462l3.416-7.709a2.895,2.895,0,0,0-5.293-2.339l-3.407,7.688A2.9,2.9,0,0,0,2710.853,598.547Z" transform="translate(-2234.021 -521.507)"/><circle class="c" cx="78.627" cy="78.627" r="78.627" transform="translate(115.653 90.812)"/><path class="g" d="M1592.485,947.66a39.179,39.179,0,0,0-5.085,3.144,32.751,32.751,0,0,0,7.679,5.822,33.734,33.734,0,0,1-.626-6.676c0-.251.018-.5.023-.751A4.97,4.97,0,0,1,1592.485,947.66Z" transform="translate(-1431.575 -782.364)"/><path class="g" d="M1569.839,888.67h-7.63a4.933,4.933,0,0,1-4.46,3.84,32.323,32.323,0,0,0,7,14.71,42.427,42.427,0,0,1,5.764-3.579,4.732,4.732,0,0,1,1.3-4.17,43.123,43.123,0,0,1-1.98-10.8Z" transform="translate(-1410.4 -740.23)"/><path class="g" d="M1609.245,898.142a4.765,4.765,0,0,1,1.2-.2,33.216,33.216,0,0,1,4.878-9.291h-7.758A40.665,40.665,0,0,0,1609.245,898.142Z" transform="translate(-1445.997 -740.154)"/><path class="g" d="M1660.27,933.59a19.467,19.467,0,0,0-1.19,6.51,19.726,19.726,0,0,0,1.19,6.843Z" transform="translate(-1482.809 -772.331)"/><path class="g" d="M1583.52,780.938a40.089,40.089,0,0,0,7.82,4.852,42.637,42.637,0,0,1,11.2-15.5A32.639,32.639,0,0,0,1583.52,780.938Z" transform="translate(-1428.864 -655.513)"/><path class="g" d="M1607.29,847.91h9.881a33.458,33.458,0,0,1,6.454-5.5v-4.863a42.7,42.7,0,0,1-14.081-2.989A40.8,40.8,0,0,0,1607.29,847.91Z" transform="translate(-1445.855 -701.482)"/><path class="g" d="M1556.425,829.3a4.933,4.933,0,0,1,4.726,3.556h7.65a43.2,43.2,0,0,1,2.442-14.329,42.634,42.634,0,0,1-8.481-5.246,32.277,32.277,0,0,0-6.372,16.034Z" transform="translate(-1409.431 -686.295)"/><path class="g" d="M1684.65,956.288a32.65,32.65,0,0,0,18.76-9.9,39.628,39.628,0,0,0-8.025-4.386A41.977,41.977,0,0,1,1684.65,956.288Z" transform="translate(-1501.217 -778.355)"/><path class="g" d="M1724.61,902.664a41.994,41.994,0,0,1,8.709,4.764,32.464,32.464,0,0,0,6.048-11.809,19.594,19.594,0,0,0-11.92-6.01A42.932,42.932,0,0,1,1724.61,902.664Z" transform="translate(-1529.777 -740.897)"/><path class="g" d="M1747.928,826.769a32.458,32.458,0,0,0-5.381-11.809,43.142,43.142,0,0,1-5.556,3.574,4.822,4.822,0,0,1-.781,4.79,32.857,32.857,0,0,1,11.718,3.445Z" transform="translate(-1538.053 -687.451)"/><path class="g" d="M1631.2,788.977V769.41a40.232,40.232,0,0,0-13.2,16.739,40.262,40.262,0,0,0,13.2,2.828Z" transform="translate(-1453.498 -654.905)"/><path class="g" d="M1671.61,770.37v19.3a40.318,40.318,0,0,0,10.13-1.486,4.913,4.913,0,0,1,1.81-3.343,40.355,40.355,0,0,0-11.94-14.473Z" transform="translate(-1491.842 -655.591)"/><path class="g" d="M1695.052,783.612a4.832,4.832,0,0,1,.851-.088,4.913,4.913,0,0,1,3.217,1.2,40.563,40.563,0,0,0,5.466-3.483A32.517,32.517,0,0,0,1684.7,770.06,42.64,42.64,0,0,1,1695.052,783.612Z" transform="translate(-1501.26 -655.344)"/><path class="g" d="M1671.61,844.668a32.857,32.857,0,0,1,11.279-3.612,4.9,4.9,0,0,1-.781-1.216,42.734,42.734,0,0,1-10.5,1.488Z" transform="translate(-1491.837 -705.208)"/><path class="g" d="M1671.61,949.142a40.356,40.356,0,0,0,12.212-15.046,40.887,40.887,0,0,0-12.212-2.076Z" transform="translate(-1491.844 -771.236)"/><path class="g" d="M1671.61,897.412V899.2a43.441,43.441,0,0,1,13.18,2.26,40.631,40.631,0,0,0,2.693-12.335A19.655,19.655,0,0,0,1671.61,897.412Z" transform="translate(-1491.868 -740.516)"/><path class="e" d="M1711.021,816.1a4.82,4.82,0,0,0-.851.088,4.957,4.957,0,0,0-4.05,4.369,4.563,4.563,0,0,0-.05.494,4.814,4.814,0,0,0,1.2,3.2,33.057,33.057,0,0,1,4.293-.292h.251a30.274,30.274,0,0,1,3.059.17,4.822,4.822,0,0,0,.781-4.79,4.971,4.971,0,0,0-1.427-2.047A4.912,4.912,0,0,0,1711.021,816.1Z" transform="translate(-1516.479 -688.245)"/><path class="e" d="M1544.773,868.06h-.038a4.951,4.951,0,0,0,.038,9.9l.365-.035a4.933,4.933,0,0,0,4.457-3.834,4.924,4.924,0,0,0-4.825-6.03Z" transform="translate(-1397.623 -725.427)"/><path class="e" d="M1601.16,925.353a5.041,5.041,0,0,0,3.053,4.571,32.89,32.89,0,0,1,1.7-9.5,4.763,4.763,0,0,0-1.2.2A4.928,4.928,0,0,0,1601.16,925.353Z" transform="translate(-1441.402 -762.881)"/><path class="e" d="M1690.387,913.449l-16.643-16.639A32.042,32.042,0,0,0,1647.5,846.68h-.243a32.069,32.069,0,0,0-.234,64.137h.243a31.915,31.915,0,0,0,16.809-4.764l16.669,16.669-.947-.948,9.539-9.393Zm-42.7-13.955h-.161a20.733,20.733,0,1,1,.152-41.466h.155a20.733,20.733,0,1,1-.146,41.466Z" transform="translate(-1451.886 -710.591)"/><path class="e" d="M1845.33,1088.071l2.275,2.307a3.623,3.623,0,0,0,2.658,1.026h0a7.987,7.987,0,0,0,5.3-2.495c2.673-2.632,3.372-6.121,1.588-7.931l-3.035-3.079h0l.035.035h0l1.462,1.489-9.533,9.393Z" transform="translate(-1616.125 -875.576)"/><path class="l" d="M1843.429,1110.78l-.719-.719h0Z" transform="translate(-1614.151 -898.463)"/><path class="g" d="M1847.579,1073.25l-.868-.866-1.065-1.064-9.536,9.393.945.945.985.991.719.719.047.047.749.749,9.53-9.393-1.465-1.488-.006,0Z" transform="translate(-1609.531 -870.862)"/><path class="m" d="M1106.568,1820.336c-16.771-5.527-35.75-8.372-51.644-.678-5.17,2.5-9.943,6.208-12.642,11.285-6.837,12.917,2.676,29.366,15.566,36.262s28.074,7.349,42.47,9.943c41.233,7.44,78.478,34.569,98.2,71.547,2.1,3.933,4.094,8.083,7.466,11s8.592,4.252,12.317,1.81c20.737-13.6-19.137-71.015-28.074-82.227C1168.713,1852.226,1139.47,1831.176,1106.568,1820.336Z" transform="translate(-1040.001 -1407.698)"/><path class="g" d="M1250.91,2004.016a179.632,179.632,0,0,0-23.918-49.492,194.239,194.239,0,0,0-37.3-40.479,191.037,191.037,0,0,0-47.214-28.366,181.206,181.206,0,0,0-26.226-8.677c-1.12-.272-2.234-.567-3.357-.819l-3.384-.708-1.693-.354c-.564-.117-1.129-.24-1.7-.328l-3.41-.585a40.425,40.425,0,0,0-6.858-.8,13.492,13.492,0,0,0-3.421.412,8.19,8.19,0,0,0-3.05,1.568,8.153,8.153,0,0,1,3.047-1.585,13.524,13.524,0,0,1,3.424-.43,40.492,40.492,0,0,1,6.869.763l3.413.561c.57.085,1.135.2,1.7.319l1.7.345,3.389.69c1.126.246,2.243.538,3.363.8a181.036,181.036,0,0,1,26.3,8.557,191.484,191.484,0,0,1,47.451,28.205,195.007,195.007,0,0,1,37.634,40.441,180.117,180.117,0,0,1,24.272,49.638Z" transform="translate(-1074.94 -1449.038)"/><path class="n" d="M1385.59,1763.81s76.647,38.233,130.476,96.662" transform="translate(-1284.528 -1368.055)"/><path class="n" d="M1402.392,1606.77s67.781,49.813,58.11,84.721C1460.5,1691.491,1396.634,1665.2,1402.392,1606.77Z" transform="translate(-1296.156 -1255.252)"/><path class="n" d="M1162.211,1591.768s65.614,12.236,83.458,59.914c0,0-35.826,7.311-63.693-31.095S1162.211,1591.768,1162.211,1591.768Z" transform="translate(-1125.698 -1243.286)"/><path class="n" d="M1412.7,1851.589s-38.21-15.894-53.305,11.113c0,0,42.637,18.178,55.668-7.662" transform="translate(-1265.989 -1425.937)"/><path class="g" d="M1312.71,1790.089c-5.357-4.509-10.782-9.525-12.932-16.192s.342-15.329,6.951-17.651c3.088-1.085,6.6-.67,9.434-2.606a4.743,4.743,0,0,0,2.167-3.682c.058-2.187-1.544-3.147-3.038-4l-22.517-12.867c-7.6-4.346-15.733-9.273-18.979-17.409a10.982,10.982,0,0,1-.8-6.361,9.2,9.2,0,0,1,2.661-4.571,16.835,16.835,0,0,0,1.252-22.579,214.175,214.175,0,0,1-12.695-17.473,6.73,6.73,0,0,1-1.383-3.334,4.892,4.892,0,0,1,2.006-3.734c5.264-4.273,13.16-.6,18.131,3.992s9.922,10.469,16.689,10.694c4.126.137,7.948-1.936,11.855-3.264,6.978-2.372,15.461-2.1,20.827,2.945,11.7,10.993.4,33.715,11.5,45.307,8.106,8.481,28.568.772,38.043,7.674,8.633,6.287,10.557,25.872,11.019,36.554.506,11.718.713,67.579-13.867,70.012-9.258,1.547-26.483-12.756-33.922-17.546a314.672,314.672,0,0,1-32.393-23.909Z" transform="translate(-1197.663 -1295.042)"/><path class="o" d="M1281.07,1664.53c59.885,44.667,95.86,101.94,113.758,168.615" transform="translate(-1210.573 -1301.264)"/><path class="o" d="M1357.6,1809.331a4.539,4.539,0,0,1,3.477.333,113.911,113.911,0,0,1,46.263,33.127" transform="translate(-1264.723 -1399.088)"/><path class="g" d="M2876.593,1707.44c-4.465,12.885-12.642,23.427-22.324,32.99-12.472,12.314-27.448,23.012-40.269,35.01-28.951,27.106-37.4,56.961-52.126,91.418h-19.646a132.809,132.809,0,0,1,1.255-21.237c8.8-60.441,42.061-117.746,92.468-152.8,6.872-4.779,14.408-9.3,22.763-9.794s17.578,4.36,19.324,12.548C2878.875,1699.521,2877.918,1703.63,2876.593,1707.44Z" transform="translate(-2260.367 -1314.328)"/><path class="o" d="M2792.75,1935.677c8.37-51.059,41.417-97.492,86.918-122.127" transform="translate(-2295.409 -1406.705)"/><path class="f" d="M2966.66,1866.425c-15.517,9.726-34.478,11.618-52.232,16.1-40.087,10.136-76.01,35.312-99.943,68.951H2771.91c8.9-24.456,24.746-50.457,30.3-58.513a228.646,228.646,0,0,1,73.085-67.915,212.2,212.2,0,0,1,26.413-12.993c20.485-8.358,43.965-13.557,64.5-5.314,6.682,2.682,12.981,6.9,16.78,13.013C2992.649,1835.312,2982.174,1856.7,2966.66,1866.425Z" transform="translate(-2285.441 -1398.946)"/><path class="g" d="M2838.41,1996.579a239.759,239.759,0,0,1,30.879-47.9,245.91,245.91,0,0,1,41.116-39.411,237.667,237.667,0,0,1,49.167-28.659,223.27,223.27,0,0,1,26.831-9.592l.854-.254.863-.228,1.722-.456,3.445-.915c2.307-.559,4.626-1.082,6.939-1.623a29.329,29.329,0,0,1,7.059-.877,13.93,13.93,0,0,1,3.527.462,9.555,9.555,0,0,1,3.2,1.532,9.571,9.571,0,0,0-3.217-1.515,14,14,0,0,0-3.509-.448,32.889,32.889,0,0,0-7.045.915c-2.311.553-4.627,1.085-6.931,1.655l-3.439.93-1.717.465-.86.234-.854.255a223.744,223.744,0,0,0-26.76,9.712,237.172,237.172,0,0,0-48.945,28.857,245.205,245.205,0,0,0-40.818,39.5,238.958,238.958,0,0,0-30.521,47.848Z" transform="translate(-2332.494 -1444.286)"/><line class="p" x2="586.611" transform="translate(82.689 554.677)"/><path class="q" d="M1687.154,1965.817h229.123a7.543,7.543,0,0,0,6.375-4.3,6.71,6.71,0,0,0-5.963-4.3H1687.575a7.555,7.555,0,0,0-6.375,4.3A6.673,6.673,0,0,0,1687.154,1965.817Z" transform="translate(-1500.919 -1504.559)"/><path class="r" d="M1944.054,1687.637h0c1-.187,2-.366,3.006-.553l6.764-1.255q3.216-.585,6.448-1.187l5.556-1.029.342-.061,5.159-.953,4.2-.778,3.035-.562a.49.49,0,0,1,.094,0l1.8-.336h.433l4.094-.032,3.562-.023,32.352-.208,7.992-.05h.032c.155.041.816.228,1.9.541l.056.017.629.181,6.106,1.755c.094.023.181.055.275.082l3.568,1.026c.12.038.243.07.363.105l10.1,2.924,3.258.948,3.36.971c.371.108.746.219,1.126.325l2.261.655c4.772,1.375,9.562,2.764,13.978,4.041h0c2.924.848,5.682,1.644,8.165,2.36l.877.257c.143.035.292.079.43.123l.845.243c.275.082.55.164.816.237l.793.231.76.219.728.211,1.041.292.965.292.6.176.562.161.529.155,1.36.395.366.105.479.138.38.111.193.056.149.044.132.038h.026c.38.111.758.231,1.137.354l.108.032c.229.076.459.149.691.237a37.724,37.724,0,0,1,24.117,26.193s1.833,2.228,4.679,5.884c2.4,3.109,5.542,7.252,8.893,11.923a234.9,234.9,0,0,1,15.61,24.369c5.887,10.949,8.99,20.643,4.188,24.073a3.639,3.639,0,0,1-.345.225c-.421.26-.877.518-1.374.772-.243.132-.5.263-.761.386l-.535.263c-.567.266-1.17.535-1.8.8-.155.07-.319.132-.474.2-.965.4-2,.8-3.088,1.187-.363.126-.722.257-1.1.386s-.755.257-1.141.389-.749.243-1.129.365c-1.281.418-2.632.822-4,1.228a.9.9,0,0,0-.143.044l-.836.237h-.018l-.97.275-2.325.635c-.436.117-.877.237-1.324.348q-2.17.585-4.4,1.109h0l-.22.055c-.354.082-.71.17-1.07.257l-.55.129-1.407.33c-.474.108-.942.219-1.415.325-1.38.319-2.769.623-4.147.921l-.082.021q-2.11.439-4.185.877c-.512.105-1.015.2-1.521.313q-1.316.26-2.6.524h-.05q-1.316.269-2.6.509l-1.41.269-.971.187-4.629.854c-.292.055-.585.105-.877.155l-2.878.512c-.4.067-.79.135-1.17.2l-2.573.436c-1.152.193-2.182.363-3.059.5-.33.058-.635.108-.921.152a.28.28,0,0,1-.07,0c-.43.067-.807.123-1.132.181l-.242.035c-.711.114-1.1.17-1.1.17l-1.278-30.208-.909,36.569-.023,1.17v.181h-.407l-54.533-.865-8.9-.155L1903.06,1814.5l-17.28-.293.412-2.371,5.319-30.963,3.676-21.4,8.165-47.489" transform="translate(-1648.578 -1309.435)"/><path class="s" d="M2270.9,1547.4c-1.115-.325-1.8-.518-1.954-.559h-.032l-43.906.292c.094-.181.149-.292.149-.292h.231c.959-1.494,1.825-3.617,2.565-4.439,7.249-8.036,4.884-28.1-1.059-35.677-4.436-5.656,39.865-15.166,39.865-15.166.231,14.847-2.977,30.191-2.167,45.059.167,3.032,2.924,7.8,6.036,10.235A5.1,5.1,0,0,1,2270.9,1547.4Z" transform="translate(-1888.174 -1172.188)"/><path class="t" d="M2265.413,1354.428c-.237.43-.494.86-.766,1.275-3.159,4.84-8.615,8.852-15.61,12.18-23.36,11.112-63.795,14.549-92.512,15.519-3.082.108-6.036.187-8.805.237-14.584.292-24.456-.035-24.456-.035a109.944,109.944,0,0,1-21.348-15.069,73.711,73.711,0,0,1-13.274-15.5,46.124,46.124,0,0,1-5.726-13.086q-.465-1.816-.755-3.688c-1.991-13.1-2.047-18.906-.585-24.506a.728.728,0,0,1,.023-.1c.093-.348.187-.7.292-1.053h0c1.831-6.273,5.469-12.888,10.235-29.773,9.358-33.013-26.161-63.535,0-103.4s74.124-28.03,74.124-28.03a13.2,13.2,0,0,1,1.462-.623c13.6-4.913,47.319,5.469,52.72,83.467,5.606,80.976,13.081,44.848,43.6,100.908C2268.607,1341.552,2268.651,1348.564,2265.413,1354.428Z" transform="translate(-1786.884 -929.147)"/><path class="s" d="M2210.431,1635.79l-.418-9.823a37.027,37.027,0,0,0,8.308.942h.231a38.4,38.4,0,0,0,25-9.618c-.462.4-.1,3.951-.088,4.679a23.254,23.254,0,0,0,.585,5.205,16.144,16.144,0,0,0,5.626,8.618c.509.915,11.113,3.316,11.212,4.36.132,1.652-1.9,1.755-3.012,2.506a49.391,49.391,0,0,0-4.945,3.986c-5.781,5.153-9.943,11.832-16.011,16.669a36.839,36.839,0,0,1-3.8,2.632c-2.228,1.357-4.544,2.562-6.779,3.939a45.875,45.875,0,0,1-7.144,3.641,25.786,25.786,0,0,1-15.479,1.462,18.833,18.833,0,0,1-1.992-.585c-4.094-1.462-5.989-5.264-6.281-9.419-.336-4.828.909-9.735,2.392-14.288.737-2.266,1.6-4.495,2.529-6.688.468-1.1,1.3-3.141,2.047-4.93a4.833,4.833,0,0,1,4.012-2.924Z" transform="translate(-1867.241 -1262.261)"/><path class="u" d="M2136.06,1459s16.818,51.077,5.606,70.386l111.333,8Z" transform="translate(-1825.498 -1149.263)"/><path class="u" d="M2136.06,1431.122l80.975-11.522,6.788,4.308a20.712,20.712,0,0,1,9.6,16.669c.743,18.891,4.164,57.268,19.576,68.927Z" transform="translate(-1825.498 -1121.24)"/><path class="v" d="M2249.6,1661.016c-4.217,4.5-7.846,9.548-12.7,13.423a36.986,36.986,0,0,1-3.8,2.632c-2.231,1.357-4.542,2.559-6.779,3.936a45.736,45.736,0,0,1-7.145,3.638,25.855,25.855,0,0,1-15.479,1.477,19.015,19.015,0,0,1-1.991-.585c-4.094-1.462-5.992-5.264-6.279-9.422-.337-4.822.909-9.729,2.392-14.285.734-2.267,1.594-4.495,2.527-6.688.468-1.1,1.3-3.141,2.047-4.933a4.828,4.828,0,0,1,4.012-2.925l4.018-.368-.418-9.823a37.043,37.043,0,0,0,8.308.942h.231a37.7,37.7,0,0,0,18.537-5.033q.059,1.43.2,2.86a40.249,40.249,0,0,0,2.673,11.112,38.63,38.63,0,0,0,5.969,10.031c.69.845,1.413,1.676,2.173,2.483C2248.58,1659.992,2249.086,1660.51,2249.6,1661.016Z" transform="translate(-1867.071 -1273.423)"/><path class="s" d="M2245.39,1632.2c2.53.117,5.006.149,7.46.023,1.228-.058,2.45-.161,3.658-.292s2.412-.292,3.6-.524a52.377,52.377,0,0,0,7.019-1.755c1.152-.366,2.281-.8,3.407-1.231s2.228-.942,3.322-1.462l1.86-.877.067,1.991.056,1.755c0,.585.018,1.17.061,1.755q.105,1.755.331,3.509c.137,1.17.336,2.339.556,3.509s.494,2.339.778,3.509a26.451,26.451,0,0,1-3.036-6.65,33.606,33.606,0,0,1-.877-3.585c-.225-1.208-.339-2.439-.494-3.667l1.945,1.067a37.255,37.255,0,0,1-3.442,1.755,38.523,38.523,0,0,1-3.615,1.395,36.959,36.959,0,0,1-7.56,1.614,34.73,34.73,0,0,1-3.857.19,33.617,33.617,0,0,1-3.837-.228A29.41,29.41,0,0,1,2245.39,1632.2Z" transform="translate(-1902.575 -1267.801)"/><path class="t" d="M2338.236,1271.8s-81.61-8.32-52.98-75.934C2285.259,1195.87,2343.208,1224.859,2338.236,1271.8Z" transform="translate(-1927.131 -960.729)"/><path class="v" d="M2208.568,1271.459c-.149.684-.292,1.357-.462,2.024-.611,2.585-1.29,5.065-1.956,7.358-.629,2.173-1.319,4.346-2.047,6.527-.567,1.731-1.17,3.462-1.755,5.194-3.308,9.651-6.8,19.386-8.165,29.369a59.17,59.17,0,0,0-.529,10.94,37.7,37.7,0,0,1-18.537,5.033h-.231c-21.348,0-39.055-18.213-40.573-41.166-.064-.98-.1-1.962-.105-2.959l-.21-40.333a47.466,47.466,0,0,1,2.632-15.923c5.8-16.643,20.576-28.589,37.821-28.694a38.839,38.839,0,0,1,28.386,12.414,33.3,33.3,0,0,1,5.887,15.286C2209.87,1246.567,2210.82,1261.142,2208.568,1271.459Z" transform="translate(-1823.423 -970.817)"/><path class="s" d="M2215.5,1287.205a8.773,8.773,0,0,1-12.8,7.832c-12.238-6.323-23.857-16.564-26.372-32.981a3.267,3.267,0,0,0-6.085-1.114c-9.4,16.783-21.266,34.23-33.428,42.468a1.673,1.673,0,0,1-2.611-1.366v-.029l-.2-40.324a47.467,47.467,0,0,1,2.632-15.923,53.759,53.759,0,0,1,3.843-4.278c18.424-18.257,49.252-21.009,49.252-21.009s-1.588,3.98-4.387,10.235a133.447,133.447,0,0,1,29.4,22.968,46.92,46.92,0,0,1,.629,7.5Z" transform="translate(-1823.5 -978.46)"/><path class="t" d="M2163.169,1167.23s-2.144,5.375-5.816,13.323c-9.533,20.64-29.378,58.622-48.769,64.859-26.866,8.642-6.352-42.833,10.235-59.268S2163.169,1167.23,2163.169,1167.23Z" transform="translate(-1795.809 -940.255)"/><path class="t" d="M2285.271,1195.87c-17.034,40.239,4.972,59.481,25.582,68.456,2.5,1.091,4.971,2.029,7.37,2.834a101.332,101.332,0,0,0,20.032,4.641C2343.22,1224.859,2285.271,1195.87,2285.271,1195.87Z" transform="translate(-1927.143 -960.729)"/><path class="w" d="M2375.1,1301.469c2.24-10.329,1.29-24.9.143-34.943a33.307,33.307,0,0,0-5.886-15.286,45.768,45.768,0,0,1,11.9,24.2,46.919,46.919,0,0,1,.629,7.5l.12,23.377c-2.386-.8-4.866-1.755-7.369-2.834C2374.811,1302.837,2374.966,1302.165,2375.1,1301.469Z" transform="translate(-1991.009 -1000.104)"/><path class="s" d="M2359.808,1449.743c.085,17.122-8.852,32.121-21.933,39.584a59.147,59.147,0,0,1,.556-10.92c1.363-9.984,4.857-19.728,8.165-29.369.585-1.731,1.19-3.462,1.755-5.194.717-2.182,1.407-4.354,2.047-6.527.667-2.293,1.345-4.772,1.956-7.358,2.5,1.091,4.971,2.03,7.369,2.834l.082,15.809Z" transform="translate(-1968.576 -1128.139)"/><path class="s" d="M2358.767,1642.6a48.425,48.425,0,0,0-4.945,3.986c-1.17,1.032-2.254,2.129-3.316,3.258-.515-.506-1.021-1.024-1.506-1.547-.76-.807-1.482-1.638-2.173-2.483a38.626,38.626,0,0,1-5.969-10.031,40.262,40.262,0,0,1-2.673-11.113q-.149-1.43-.2-2.86h0c.412-.225.81-.468,1.208-.716.2-.12.392-.243.585-.374.392-.249.784-.509,1.17-.784a43.281,43.281,0,0,0,3.509-2.711c-.462.4-.1,3.951-.088,4.679a23.414,23.414,0,0,0,.584,5.205,16.122,16.122,0,0,0,5.627,8.621Z" transform="translate(-1968.672 -1261.751)"/><path class="w" d="M2496.508,1440.126l-2.953,8.554-.86,2.491-3.252,1.234-40.716,15.429-6.6,2.5-5.761,2.185-19.3,7.311a119.979,119.979,0,0,0,13.51-7.586c10.937-7.311,10.615-11.519,17.479-17.02a5.394,5.394,0,0,0,1.482-2.995,23.471,23.471,0,0,0,.491-3.544,65.671,65.671,0,0,0-.149-9.013c-.331-4.337-.983-9.338-1.93-14.745h0c-1.152-6.533-2.743-13.654-4.734-20.871-3.471-12.616-8.147-25.533-13.8-36.183-7.331-13.856-16.315-23.889-26.421-24.456-14.408-.816-27.813-7.019-39.8-14.692a88.773,88.773,0,0,1-14.452-11.063c1.062-1.129,2.149-2.225,3.316-3.258a48.411,48.411,0,0,1,4.945-3.986l-8.188-6.866a16.119,16.119,0,0,1-5.626-8.621,23.384,23.384,0,0,1-.585-5.205c0-.722-.374-4.272.088-4.679a45.938,45.938,0,0,0,15.461-35v-1.141l-.2-39.187a46.976,46.976,0,0,0-.629-7.5,45.765,45.765,0,0,0-11.9-24.2,43.284,43.284,0,0,0-6.255-7.127,11.2,11.2,0,0,1,2.068-18.064,68.076,68.076,0,0,0,6.872-4.062c13.6-4.913,47.319,5.469,52.721,83.467,5.605,80.975,13.08,44.848,43.6,100.908,4.571,8.4,4.615,15.414,1.377,21.278.678,1.132,1.356,2.26,2.047,3.375q3.009,4.937,6.091,9.823a234.9,234.9,0,0,1,15.61,24.369c4.387,6.726,11.934,18.891,4.188,24.073a3.643,3.643,0,0,1-.345.225c-.421.26-.877.518-1.375.772-.243.132-.5.263-.76.386l-.535.263c-.567.266-1.17.535-1.8.8-.155.07-.319.132-.474.2-.965.4-2,.8-3.088,1.187-.363.126-.722.257-1.1.386s-.754.257-1.14.389-.749.243-1.129.365c-1.324.43-2.714.848-4.146,1.272l3.325,10.618s.843,2.971,1.951,6.866Z" transform="translate(-1969.296 -935.596)"/><path class="g" d="M2182.747,1682.51l2.816,9.411c1.959,6.542,8.8,10.033,15.338,9.381,6.3-.629,11.808-4.226,16.7-8,2.462-1.895,4.816-3.927,7.223-5.893.979-.8,5.849-3.422,5.9-4.679-.433,10.378-.708,20.763-1.036,31.144l-23.485,9.691-31.791.792-7.15-11.911,3.8-13.82Z" transform="translate(-1847.071 -1308.642)"/><path class="x" d="M2396.671,2252.082l129.3-79.382H2364.43Z" transform="translate(-1990.058 -1660.827)"/><path class="y" d="M2223.46,2270.334l166.954-82.894-199.465-.9Z" transform="translate(-1866.375 -1670.62)"/><path class="z" d="M2342.172,2145.715l-10.484,6.2h-235.75a6.834,6.834,0,0,1-6.089-4.3,8.092,8.092,0,0,1,5.351-4.188,5.916,5.916,0,0,1,.723-.1.332.332,0,0,0,.073,0h.363l91.029.877,6.8.067,42.219.424,1.146.014,33.271.325,10.118.1,25.547.251Z" transform="translate(-1794.925 -1640.038)"/><path class="aa" d="M1671.548,2426.731h229.126c4,0,7.472-4.094,7.712-9.127h0c.24-5.021-2.84-9.124-6.84-9.124H1672.42c-4,0-7.475,4.094-7.712,9.124h0C1664.469,2422.625,1667.545,2426.731,1671.548,2426.731Z" transform="translate(-1489.086 -1827.656)"/><path class="ab" d="M2385.761,2305.715l-33.791-1.638,27.346-12.987,33.794,1.637Z" transform="translate(-1979.28 -1744.596)"/><path class="ab" d="M2490.044,2251.935l-33.794-1.638,27.345-12.987,33.794,1.637Z" transform="translate(-2053.937 -1706.542)"/><path class="ab" d="M2577.152,2215.794l-44.172-2.14,33.42-15.514,46.5.681Z" transform="translate(-2109.215 -1678.827)"/><path class="ac" d="M2253.771,2297.564l-33.791-1.637,27.346-12.987,33.794,1.638Z" transform="translate(-1884.784 -1738.829)"/><path class="ab" d="M2268.3,2269.77l-44.172-2.144,35.745-16.976,44.172,2.141Z" transform="translate(-1888.029 -1715.981)"/><path class="ab" d="M2404.623,2212.68l-44.172-2.141,26.568-12.4,48.366.058Z" transform="translate(-1985.573 -1678.827)"/><path class="v" d="M2411.924,2047.293a17.279,17.279,0,0,1-.292,3.612c-1.223,6.433-6.106,10.308-11.531,13.393-.457.26-.915.518-1.377.76l-2.866,1.389-4.252,2.047a150.156,150.156,0,0,1-18.543,7.331,1.419,1.419,0,0,1-.208.064c-.833.272-1.676.535-2.515.79q-3.044.936-6.141,1.755c-4.509,1.213-9.065,2.266-13.647,3.188q-20.763,4.182-41.526,8.349-4.235.859-8.463,1.7-7.913,1.588-15.821,3.178l-9.569,1.925-7.22,1.462a3.887,3.887,0,0,1-4.571-3.009l-2.9-13.654a3.889,3.889,0,0,1,2.275-4.387l12.613-5.4,18.716-8.01,5.144-2.2,2.925-1.252,15.908-6.8,7.045-3.009,7.53-3.217,18.949-8.1.187-.082.222-.094h.015a3.93,3.93,0,0,0,1.512-1.152,3.868,3.868,0,0,0,.848-2.591l-.161-3.781h0l-1.278-30.209-.319-7.545,37.432,8.869.293.07,9.61,2.272,4.971,15.914-.249.076,3.325,10.618s.842,2.971,1.951,6.866c.4,1.439.854,3.006,1.3,4.6a17,17,0,0,1,.675,4.258Z" transform="translate(-1915.236 -1534.208)"/><path class="ad" d="M2155.551,1791.808a4.085,4.085,0,0,1-.342.225c-.424.26-.877.518-1.377.772-.243.132-.5.26-.758.386-.178.091-.36.176-.541.26-.564.269-1.17.541-1.8.807-.152.067-.313.129-.471.2-.968.395-2,.8-3.088,1.187-.363.123-.722.257-1.1.386s-.757.257-1.143.386-.743.243-1.123.365c-.643.21-1.3.421-1.968.62s-1.439.436-2.182.652c-.272.082-.555.158-.836.24h-.018l-.974.275c-.767.211-1.539.424-2.319.635-.438.12-.877.228-1.331.348q-2.167.585-4.4,1.109c-.082.02-.158.038-.225.058l-1.073.251-.547.135c-.468.105-.933.214-1.407.328s-.942.219-1.415.325c-1.381.319-2.773.626-4.144.921l-.082.017c-1.41.292-2.808.6-4.188.877l-1.521.31c-.877.178-1.755.348-2.6.526h-.049c-.877.175-1.755.342-2.605.515-.471.085-.945.175-1.407.266l-.971.187c-1.605.292-3.158.585-4.626.854-.292.056-.585.1-.877.155l-2.881.512-1.17.2c-.912.158-1.772.293-2.57.439-1.17.19-2.179.365-3.062.5-.327.056-.632.108-.918.152a.269.269,0,0,1-.067,0c-.433.076-.81.134-1.135.181l-.243.038c-.711.12-1.1.176-1.1.176l.164,3.781a3.9,3.9,0,0,1-2.363,3.743h0l-.222.1-54.744-.912-8.893-.152-119.653-1.991-17.374-.292.409-2.372,5.322-30.966,2.515-41.084c1.8-29.287,19.3-41.906,40.991-48.954,13.823-4.5,29.334-6.726,43.544-9.575h.1c.585-.12,1.2-.213,1.807-.292l.412-.053c1.518-.2,3.042-.322,4.562-.433l1.755-.123c1.363-.1,2.755-.24,4.135-.24l.021.488-2.816.251-1.2.114a4.816,4.816,0,0,0-4.012,2.924c-.167.4-.342.81-.509,1.219v.023c-.345.7-.585,1.462-.9,2.149-.023.058-.047.111-.064.161-.2.453-.4.9-.585,1.354a.109.109,0,0,1-.021.035q-.968,2.34-1.825,4.711c-.029.1-.062.181-.091.292-.2.556-.395,1.123-.585,1.69-.152.462-.292.924-.433,1.392-.023.07-.053.149-.073.225-.041.129-.076.266-.123.4a4.24,4.24,0,0,0-.114.409c-.255.877-.486,1.784-.7,2.679a35.382,35.382,0,0,0-.986,7.042v1.532c0,.228.02.465.038.693s.038.453.067.681a13.6,13.6,0,0,0,.734,3.246,8.921,8.921,0,0,0,3.436,4.4c.19.123.392.243.585.348a3.181,3.181,0,0,0,.342.181,3.379,3.379,0,0,0,.342.167,6.089,6.089,0,0,0,.755.292c.2.076.4.137.6.2,8.931,2.793,18.257-2.764,25.884-6.784,7.507-3.954,14.253-9.431,18.537-16.859.491-.854.953-1.725,1.377-2.611.363-.74.69-1.491.991-2.258a24.677,24.677,0,0,0,.983-3.146,14.342,14.342,0,0,0,.442-3.544c0-.359-.608-2.693-.632-3.059,0-.058,0-.067.041,0a.655.655,0,0,1-.076-.371h0c.292-.977,6.267,2.114,10.656,3.468.12.038.243.067.363.105l10.1,2.924,3.261.947c1.105.319,2.231.643,3.354.974.377.1.748.219,1.128.322l2.261.655,7.755,2.24h.021c2.12.608,4.2,1.211,6.206,1.79,2.924.851,5.685,1.646,8.171,2.366l.877.251c.143.038.292.082.43.123l.848.246.813.237.792.234.763.214c.246.076.489.143.722.216l1.044.292.962.292.605.175.564.161.527.158c.512.143.968.272,1.36.392l.365.105c.181.053.339.093.482.137l.377.108.193.058.149.044.135.038h.023c.38.114.757.234,1.137.357a.906.906,0,0,1,.105.029c.234.076.462.152.69.24,7.919,2.8,13.85,8.144,18.847,14.5a155.733,155.733,0,0,1,10.706,16.306q1.018,1.7,2.047,3.372,3.009,4.939,6.092,9.826c4.7,7.463,9.481,14.87,14.253,22.289.389.608.851,1.3,1.357,2.076C2155.75,1774.464,2163.3,1786.629,2155.551,1791.808Z" transform="translate(-1648.626 -1308.128)"/><path class="w" d="M2450.632,2189.094s16.359-2.231,14.1,7.6c-1.462,6.381-6.48,10.077-12.01,12.961q-.7.366-1.407.711c-1.041.462-2.021.877-2.924,1.284-2.205.965-3.843,1.682-4.322,1.886a151.262,151.262,0,0,1-18.792,6.665,1.256,1.256,0,0,1-.2.05c-.848.243-1.693.474-2.547.7q-3.076.819-6.185,1.538c-4.553,1.047-9.151,1.93-13.745,2.685q-20.912,3.419-41.819,6.831-4.26.7-8.521,1.4L2336.316,2236l-9.63,1.576-7.27,1.187a3.89,3.89,0,0,1-4.46-3.176l-.167-.971,8.434-1.693q7.9-1.591,15.821-3.179l8.463-1.7q20.763-4.167,41.526-8.349c4.58-.921,9.139-1.974,13.648-3.187q3.085-.833,6.141-1.755c.839-.254,1.682-.518,2.515-.789a1.4,1.4,0,0,0,.208-.064,150.05,150.05,0,0,0,18.543-7.331c.474-.222,2.08-.994,4.252-2.047l2.866-1.389c.462-.243.921-.5,1.377-.761,5.425-3.085,10.309-6.957,11.531-13.393" transform="translate(-1954.217 -1672.273)"/><path class="ae" d="M2381.653,1681.377a.48.48,0,0,1-.035-.257h0a.291.291,0,0,0,0,.143A.424.424,0,0,0,2381.653,1681.377Z" transform="translate(-1999.597 -1306.914)"/><path class="ae" d="M2185.071,1715.265l-6.583,36.107a20.043,20.043,0,0,1-19.722,16.441h-48.082l-.03-48.354c0,3.471-.906,7.191-1.342,10.645l-1.591,12.6-3.217,25.591h-47.644L2055,1701.816c-.126-4.565.082-9.87,3.731-12.616a14.335,14.335,0,0,1,5.653-2.132q14.037-3.105,28.188-5.729c6.141-1.138,12.329-2.214,18.564-2.029-1.775,1.032-4.208.2-5.957,1.275a5.907,5.907,0,0,0-1.948,2.418c-5.869,10.788-10.057,29.5,5.477,34.507,7.051,2.272,13.666-1.462,19.526-5.039,7.428-4.524,14.733-9.99,19.143-17.651.491-.854.953-1.725,1.377-2.612.486.524.991,1.044,1.506,1.547a89.119,89.119,0,0,0,14.452,11.063A108.02,108.02,0,0,0,2185.071,1715.265Z" transform="translate(-1767.579 -1307.306)"/><path class="x" d="M1558.9,1988.172H1788.75a11.113,11.113,0,0,0,11.186-11.943L1765.27,1826.4a12.937,12.937,0,0,0-12.695-11.94H1522.721a11.113,11.113,0,0,0-11.186,11.94l34.666,149.829A12.939,12.939,0,0,0,1558.9,1988.172Z" transform="translate(-1379.465 -1407.348)"/><path class="af" d="M1558.9,1988.172h223.067a11.113,11.113,0,0,0,11.183-11.943L1758.483,1826.4a12.937,12.937,0,0,0-12.695-11.94H1522.721a11.113,11.113,0,0,0-11.186,11.94l34.666,149.829A12.939,12.939,0,0,0,1558.9,1988.172Z" transform="translate(-1379.382 -1407.348)"/><path class="ag" d="M1780.06,1814.21l-.091.076-1.491,1.257-19.561,16.482-145.659,122.738-.018.021,4.764,21.444a19.332,19.332,0,0,0,.734,2.743.225.225,0,0,0,0,.059,19.094,19.094,0,0,0,.983,2.249c.026.062.055.123.091.19h0l132.851-113.111,38.175-32.5,25.331-21.567.091-.076Zm50.474,11.911a11.14,11.14,0,0,0-.635-2.872c-.029-.1-.061-.187-.1-.278a15.888,15.888,0,0,0-.939-2.073,16.8,16.8,0,0,0-1.6-2.48l-.126.1-12.408,10.633h0l-19.505,16.707-45.365,38.862L1633.032,1984.8h22.953l89.807-76.393,59.587-50.688,22.962-19.538,1.81-1.541,2.278-1.933h0Z" transform="translate(-1451.801 -1407.172)"/><path class="w" d="M2502.172,1793.037a3.628,3.628,0,0,1-.345.225c-.421.26-.877.518-1.375.772-.243.132-.5.263-.76.386l-.535.263c-.567.266-1.17.535-1.8.8-.155.07-.319.132-.474.2-.965.4-2,.8-3.088,1.187-.363.126-.722.257-1.1.386s-.754.257-1.141.389-.748.243-1.128.365q-.962.313-1.968.617c-.629.193-1.275.386-1.93.585l-.249.076,3.325,10.618s.843,2.971,1.95,6.866c.4,1.439.854,3.006,1.3,4.6a17,17,0,0,1,.649,4.284,17.244,17.244,0,0,1-.292,3.612c-1.222,6.434-6.106,10.308-11.531,13.394-.456.26-.915.518-1.377.76l-2.866,1.389-4.252,2.047a150.031,150.031,0,0,1-18.543,7.331,1.392,1.392,0,0,1-.208.064q-4.228,1.316-8.527,2.4c10.253-3.509,20.052-7.513,27.489-15.765,9.387-10.434,5.194-26.579,3.009-38.987-1.152-6.533-2.743-13.654-4.734-20.871a.715.715,0,0,0-.021-.07c-3.468-12.6-8.138-25.483-13.776-36.113-7.332-13.856-16.315-23.889-26.422-24.456-14.408-.816-27.814-7.018-39.8-14.692a88.735,88.735,0,0,1-14.452-11.063c-.515-.506-1.021-1.023-1.506-1.547.363-.74.69-1.494.991-2.26a24.126,24.126,0,0,0,.983-3.144,14.375,14.375,0,0,0,.442-3.544c0-.357-.609-2.69-.635-3.059,0-.07,0-.07.055.018a.642.642,0,0,1-.079-.409c.292-.98,6.264,2.117,10.656,3.468.12.038.243.07.363.105l10.1,2.924,3.258.948q1.667.48,3.36.971c.371.108.746.219,1.126.325l2.26.655c4.773,1.374,9.563,2.763,13.985,4.041,2.924.848,5.682,1.644,8.165,2.36l.877.257c.143.035.292.079.43.123l.845.243c.275.082.55.164.816.237l.792.231.76.219.728.211,1.041.292.965.292.6.175.562.161.529.155q.769.216,1.36.395l.365.105.479.137.38.111.193.056.149.044.132.038h.027c.38.111.757.231,1.137.354l.108.032c.228.076.459.149.69.237,7.917,2.8,13.847,8.141,18.842,14.493a155.939,155.939,0,0,1,10.709,16.309c.678,1.132,1.357,2.26,2.047,3.375q3.009,4.937,6.091,9.823a234.815,234.815,0,0,1,15.616,24.38C2502.371,1775.693,2509.919,1787.855,2502.172,1793.037Z" transform="translate(-1997.486 -1312.568)"/><path class="ad" d="M2381.648,1681.282a.251.251,0,0,1,0-.132h0A.232.232,0,0,0,2381.648,1681.282Z" transform="translate(-1999.618 -1306.934)"/><path class="ad" d="M2416.317,1692.326l-4.34,23.8a108.642,108.642,0,0,1-20.359-10.434,88.961,88.961,0,0,1-14.452-11.063c-.515-.5-1.021-1.024-1.506-1.547.363-.74.69-1.492.991-2.258a24.69,24.69,0,0,0,.983-3.146,14.352,14.352,0,0,0,.442-3.544c0-.36-.608-2.693-.632-3.059,0-.058,0-.067.041,0,0-.015-.015-.032-.018-.047a.239.239,0,0,1-.023-.067.425.425,0,0,1-.026-.123.285.285,0,0,1,0-.143c.292-.977,6.267,2.114,10.656,3.468.12.038.243.067.363.105l10.1,2.924,3.26.947c1.105.319,2.231.643,3.354.974.377.1.749.219,1.129.322l2.26.655C2411.144,1690.829,2413.776,1691.584,2416.317,1692.326Z" transform="translate(-1995.922 -1307.094)"/><path class="ah" d="M2590.03,1821.639a4.045,4.045,0,0,1-.342.225c-.424.26-.877.518-1.377.772-.243.131-.5.26-.758.386-.178.091-.36.175-.541.26-.564.269-1.17.541-1.8.807-.152.067-.313.129-.471.2-.968.395-2,.8-3.088,1.187-.363.123-.722.257-1.1.386s-.758.257-1.143.386-.743.243-1.123.366c-.643.21-1.3.415-1.968.62s-1.278.386-1.93.585c-.082.029-.172.053-.251.076-.272.082-.556.158-.836.24h-.018l-.974.275c-.766.21-1.538.424-2.319.635-.438.12-.877.228-1.331.348q-2.167.585-4.4,1.108h0c-1.152-6.533-2.74-13.651-4.738-20.871a.239.239,0,0,0-.018-.07c-3.471-12.6-8.141-25.48-13.777-36.116-7.328-13.853-16.312-23.883-26.425-24.451a66.3,66.3,0,0,1-19.435-4.261l4.34-23.8,6.208,1.79c2.924.851,5.682,1.646,8.168,2.366l.877.251c.144.038.293.082.43.123l.848.246.813.237.792.234.763.214c.246.076.488.143.722.216l1.044.293.962.292.605.175.564.161.526.158c.512.143.968.272,1.36.392l.365.105c.181.052.339.094.483.137l.377.108.193.058.149.044.135.038h.023c.38.114.758.234,1.138.357a.96.96,0,0,1,.105.029c.234.076.462.152.69.24,7.919,2.8,13.85,8.144,18.847,14.5A155.679,155.679,0,0,1,2562.105,1760q1.018,1.7,2.047,3.372,3.009,4.939,6.091,9.826c4.7,7.463,9.481,14.87,14.253,22.29.389.608.851,1.3,1.351,2.07v.02C2590.229,1804.295,2597.777,1816.46,2590.03,1821.639Z" transform="translate(-2085.758 -1337.639)"/><path class="s" d="M2662.738,2108.791a17,17,0,0,1,.649,4.284,17.239,17.239,0,0,1-.292,3.611c-1.222,6.434-6.106,10.308-11.531,13.394-.456.26-.915.518-1.377.76l-2.866,1.389-4.252,2.047a150.011,150.011,0,0,1-18.543,7.331,1.4,1.4,0,0,1-.208.064q-4.228,1.316-8.527,2.4c10.253-3.509,20.052-7.513,27.489-15.765,9.387-10.434,5.194-26.58,3.01-38.988h0q2.234-.538,4.4-1.108l1.324-.348,2.325-.635.971-.275h.018l.836-.237,3.325,10.619s.843,2.971,1.95,6.866C2661.84,2105.632,2662.29,2107.2,2662.738,2108.791Z" transform="translate(-2167.906 -1599.991)"/><path class="w" d="M2756.065,1923.983c-.5-.775-.959-1.462-1.351-2.076-4.772-7.419-9.557-14.823-14.253-22.286A234.541,234.541,0,0,1,2756.065,1923.983Z" transform="translate(-2256.542 -1463.679)"/><path class="w" d="M2561.552,2045.736a3.9,3.9,0,0,1-2.36,3.743h0l-.225.094-.187.082-1.462.629-3.737-41.734,7.779,32.314.044,1.079h0Z" transform="translate(-2122.724 -1542.025)"/><path class="z" d="M2591.456,2151.489a9.3,9.3,0,0,0-5.828,2.047l-139.4,74.045c-3.605,1.921-4.813,7.212-2.673,11.756,1.611,3.421,4.679,5.486,7.6,5.486a6,6,0,0,0,2.837-.7l140.188-74.469a9.294,9.294,0,0,0-2.74-18.172Z" transform="translate(-2045.983 -1645.812)"/><path class="ai" d="M1659.386,2402h234.65a4.869,4.869,0,0,0,4.746-4.562h0a4.228,4.228,0,0,0-4.211-4.565H1659.924a4.872,4.872,0,0,0-4.746,4.565h0a4.225,4.225,0,0,0,4.208,4.562Z" transform="translate(-1482.233 -1816.611)"/><path class="n" d="M2921.979,1756.814c4.933-4.12,9.943-8.7,11.928-14.815s-.26-14.072-6.316-16.227c-2.831-1.009-6.056-.64-8.651-2.427a4.343,4.343,0,0,1-1.974-3.389c-.047-2.006,1.427-2.88,2.8-3.658l20.71-11.73c7-3.96,14.476-8.454,17.485-15.911a10.231,10.231,0,0,0,.763-5.849,8.462,8.462,0,0,0-2.43-4.205,15.458,15.458,0,0,1-1.065-20.731,197.631,197.631,0,0,0,11.718-15.99,6.184,6.184,0,0,0,1.278-3.056,4.461,4.461,0,0,0-1.828-3.436c-4.8-3.939-12.081-.6-16.669,3.6s-9.147,9.574-15.359,9.756c-3.8.111-7.287-1.807-10.87-3.041-6.4-2.2-14.183-1.986-19.128,2.632-10.771,10.045-.491,30.946-10.718,41.546-7.472,7.744-26.222.6-34.949,6.9-7.945,5.74-9.781,23.711-10.235,33.5-.509,10.75-.9,62.026,12.472,64.315,8.481,1.462,24.354-11.615,31.2-15.979A288.95,288.95,0,0,0,2921.979,1756.814Z" transform="translate(-2339.486 -1279.401)"/><path class="aj" d="M2991.939,1648.08c-54.978,41.4-88.123,94.632-104.739,156.687" transform="translate(-2363.495 -1289.624)"/><path class="aj" d="M3066.648,1786.651a4.117,4.117,0,0,0-3.19.146,103.45,103.45,0,0,0-43.658,28.448" transform="translate(-2457.068 -1382.735)"/><path class="g" d="M2707.04,1933.873c-3.328-2.7-6.7-5.711-8.089-9.767s.041-9.384,4.059-10.879c1.88-.7,4.032-.482,5.746-1.7a2.9,2.9,0,0,0,1.287-2.278c0-1.337-.98-1.907-1.9-2.413q-6.957-3.816-13.917-7.63c-4.7-2.579-9.726-5.507-11.8-10.449a6.744,6.744,0,0,1-.562-3.884,5.629,5.629,0,0,1,1.582-2.825,10.308,10.308,0,0,0,.521-13.832,131.173,131.173,0,0,1-7.96-10.554,4.091,4.091,0,0,1-.877-2.024,2.975,2.975,0,0,1,1.188-2.31c3.167-2.67,8.048-.509,11.142,2.249s6.185,6.3,10.329,6.363c2.524.038,4.843-1.272,7.22-2.126,4.243-1.527,9.437-1.462,12.776,1.576,7.27,6.6.608,20.629,7.524,27.6,5.053,5.1,17.488.164,23.363,4.284,5.352,3.755,6.74,15.719,7.138,22.243.436,7.162,1.17,41.344-7.729,42.988-5.647,1.047-16.341-7.518-20.944-10.367A192.073,192.073,0,0,1,2707.04,1933.873Z" transform="translate(-2211.031 -1433.993)"/><path class="ak" d="M2683.81,1861.82c37.034,27.1,59.616,62.289,71.264,103.5" transform="translate(-2217.056 -1440.859)"/><path class="ak" d="M2728.67,1953.535a2.732,2.732,0,0,1,2.126.07,68.945,68.945,0,0,1,29.366,18.567" transform="translate(-2248.396 -1502.004)"/><path class="m" d="M2819.919,2185.14l-.222,1.258-11.314,63.189A21.012,21.012,0,0,1,2787.7,2266.9h-32.384a21.319,21.319,0,0,1-2.741-.178,21.012,21.012,0,0,1-17.946-17.135l-11.317-63.225-.219-1.222Z" transform="translate(-2245.733 -1669.629)"/><path class="e" d="M2815.444,2162.921a4.542,4.542,0,0,1-4.547,4.542h-96.13a4.355,4.355,0,0,1-.552-.035,4.542,4.542,0,0,1,.552-9.048H2810.9a4.544,4.544,0,0,1,4.544,4.542Z" transform="translate(-2236.713 -1650.694)"/><path class="al" d="M2895.874,2162.921a4.542,4.542,0,0,1-4.547,4.542h-.293l-11.314,63.189a21.011,21.011,0,0,1-20.684,17.312h-32.387a21.236,21.236,0,0,1-2.741-.178c32.7-6.192,42.691-58.833,45.431-80.324.059-.436.111-.854.158-1.258.585-4.857.778-7.825.778-7.825h21.055a4.544,4.544,0,0,1,4.544,4.541Z" transform="translate(-2317.388 -1650.694)"/></g></g></svg>