<svg xmlns="http://www.w3.org/2000/svg" xmlns:xlink="http://www.w3.org/1999/xlink" width="743.941" height="623" viewBox="0 0 743.941 623"><defs><style>.a,.d,.i,.j,.m{fill:none;}.b{opacity:0.7;}.aa,.ab,.c,.t{fill:#0600a0;}.c{opacity:0.14;}.d{stroke:#f2f5fa;stroke-linejoin:round;}.d,.i,.j,.m{stroke-linecap:round;}.d,.i{stroke-width:3px;}.af,.e{fill:#9fc3fd;}.f{fill:#c3d1ff;}.g{fill:#fff;}.h{fill:#4055ec;}.i{stroke:#9fc3fd;}.i,.j,.m{stroke-miterlimit:10;}.j{stroke:#4055ec;stroke-width:4px;}.k{fill:#e5e5e5;}.l{fill:#e2eaf5;}.m{stroke:#18186d;stroke-width:7px;}.n{fill:#f50;}.o,.r{fill:#fdb2d0;}.p{fill:#ff7206;}.q,.s{fill:#ffcae1;}.ad,.ae,.af,.ag,.r,.s,.t,.u{fill-rule:evenodd;}.u,.x,.y,.z{fill:#342dec;}.v{fill:#85a9ff;}.ad,.w{fill:#4052f2;}.x{opacity:0.26;}.y{opacity:0.11;}.aa{opacity:0.5;}.ac{fill:#d14000;opacity:0.43;}.ae{fill:#96929f;}.ag{fill:url(#a);}.ah{clip-path:url(#b);}.ai{fill:#fff8e6;}.aj{fill:#7789f2;}.ak{clip-path:url(#c);}.al{clip-path:url(#d);}</style><linearGradient id="a" y1="0.5" x2="1" y2="0.5" gradientUnits="objectBoundingBox"><stop offset="0" stop-color="#fff" stop-opacity="0"/><stop offset="1" stop-color="#fff"/></linearGradient><clipPath id="b"><circle class="a" cx="78.604" cy="78.604" r="78.604" transform="translate(0 111.163) rotate(-45)"/></clipPath><clipPath id="c"><circle class="a" cx="85.812" cy="85.812" r="85.812"/></clipPath><clipPath id="d"><circle class="a" cx="65.994" cy="65.994" r="65.994" transform="translate(0 93.329) rotate(-45)"/></clipPath></defs><g class="b" transform="translate(-338.936 -75.93)"><g transform="translate(338.936 75.93)"><rect class="c" width="317.032" height="17.804" rx="8.902" transform="translate(195.427 605.196)"/><path class="d" d="M2960.14,1726.131c6.487-67.147,45.468-130.389,102.532-166.361" transform="translate(-2429.395 -1193.684)"/><path class="e" d="M3080.075,1616.656c19.941-6.852,42.558-10.555,61.666-1.614,6.216,2.908,11.982,7.26,15.271,13.281,8.368,15.318-2.741,35.109-18.023,43.539s-33.436,9.214-50.56,12.536c-49.13,9.527-93.184,42.5-116.146,86.963-2.444,4.73-4.763,9.716-8.745,13.251s-10.193,5.207-14.679,2.352c-24.974-15.9,21.747-85.094,32.228-98.625C3006.363,1655.7,3040.956,1630.11,3080.075,1616.656Z" transform="translate(-2415.942 -1229.976)"/><path class="d" d="M2958.919,1854.48c23.321-80.434,95.714-144.416,178.4-157.681,4.5-.721,9.593-1.146,13.1,1.757" transform="translate(-2428.509 -1292.774)"/><path class="f" d="M1252.956,1677.763c-6.142-4.051-12.421-8.625-15.477-15.321s-1.519-16.044,5.1-19.276c3.091-1.51,6.808-1.507,9.529-3.873a4.986,4.986,0,0,0,1.812-4.111c-.205-2.288-2-3.094-3.661-3.8l-25.072-10.688c-8.472-3.61-17.557-7.759-21.942-15.855a11.464,11.464,0,0,1-1.617-6.539,9.663,9.663,0,0,1,2.22-5.1,17.7,17.7,0,0,0-1.455-23.724A224.905,224.905,0,0,1,1187,1552.792a7.07,7.07,0,0,1-1.85-3.311,5.1,5.1,0,0,1,1.645-4.144c4.963-5.1,13.67-2.239,19.42,1.951s11.637,9.713,18.73,9.121c4.322-.362,8.061-2.993,11.977-4.856,6.994-3.33,15.88-4.087,22.1.526,13.547,10.045,4.542,35.147,17.541,45.891,9.5,7.849,29.912-2.689,40.65,3.36,9.779,5.506,14.183,25.713,15.967,36.794,1.962,12.169,9.006,70.456-5.914,74.781-9.475,2.741-29.2-10.081-37.548-14.164A331.257,331.257,0,0,1,1252.956,1677.763Z" transform="translate(-1140.849 -1181.225)"/><path class="d" d="M1204.18,1553.71c77.482,59.2,132.193,135.83,169.65,225.478" transform="translate(-1154.693 -1189.285)"/><path class="d" d="M1489.76,2006.193c1.072-.661,2.45-.389,3.67-.077a119.744,119.744,0,0,1,52.348,28.926" transform="translate(-1362.004 -1517.46)"/><path class="g" d="M1344.648,1790.495c-4.988-2.634-10.415-5.04-16.033-4.686s-11.4,4.357-11.9,9.976a15.138,15.138,0,0,0,1.935,7.822c9.253,18.886,30.466,27.971,47.45,40.373,22.038,16.093,30.019,35.854,43.158,58.262,15.6,26.609,14.027-1.483,9.773-17.078C1408.191,1845.454,1381.245,1809.833,1344.648,1790.495Z" transform="translate(-1236.359 -1357.747)"/><path class="d" d="M1475.925,1955.3c-7.7-47.083-38.151-89.911-80.095-112.643" transform="translate(-1293.817 -1399.042)"/><path class="h" d="M1173.458,1892.149c-14.391-3.914-30.526-5.481-43.577,1.727-4.251,2.343-8.118,5.681-10.16,10.083-5.207,11.2,3.563,24.65,14.742,29.89s24.02,4.95,36.265,6.5a119.549,119.549,0,0,1,86,55.973c1.946,3.226,3.812,6.635,6.786,8.946s7.436,3.2,10.47.978c16.885-12.391-19.3-59.046-27.33-68.11C1227.294,1916.292,1201.69,1899.829,1173.458,1892.149Z" transform="translate(-1092.264 -1432.567)"/><path class="i" d="M1316.7,2055.746c-20.2-55.683-74.273-97.473-133.237-102.99-3.2-.3-6.83-.364-9.168,1.847" transform="translate(-1133.002 -1478.853)"/><path class="g" d="M3035.37,1492.258c6.726-4.111,14.071-7.926,22-7.9s16.444,5.158,17.7,12.991c.611,3.776-.491,7.6-1.918,11.116-11.056,27.224-39.872,41.714-62.423,60.5-29.265,24.373-38.447,52.72-54.589,85.2-19.169,38.57-19.821-.912-15.439-23.115C2951.85,1574.5,2986.012,1522.371,3035.37,1492.258Z" transform="translate(-2413.672 -1138.942)"/><path class="j" d="M3035.34,1942.677c4.619-16.628,9.4-33.207,15.189-49.445,15.872-44.558,41.316-88.5,82.646-111.511" transform="translate(-2483.985 -1354.804)"/><path class="h" d="M3393.907,1709.9c2.192-.548,4.79-.778,6.462.745s1.645,4.3.549,6.3-3,3.382-4.843,4.711c-3.788,2.741-28.024,21.536-25.7,7.263C3371.877,1719.763,3386.019,1711.837,3393.907,1709.9Z" transform="translate(-2727.082 -1302.363)"/><path class="h" d="M3185.341,1795.516c-.669-2.13-1.143-4.684-.121-6.5a3.581,3.581,0,0,1,4.911-1.189c1.695.885,3.015,2.634,4.26,4.333,2.571,3.489,20.109,25.667,8.568,24.8C3195.558,1816.408,3187.745,1803.156,3185.341,1795.516Z" transform="translate(-2592.357 -1358.881)"/><path class="h" d="M3085.4,2211.952c-1.1-1.59-2.138-3.58-1.759-5.341a3.1,3.1,0,0,1,3.758-2.237,12.15,12.15,0,0,1,4.626,2.5c3.015,2.228,23.17,16.088,13.41,18.316C3099.174,2226.618,3089.335,2217.655,3085.4,2211.952Z" transform="translate(-2518.99 -1661.575)"/><path class="h" d="M3015.9,2107.329c-1.189-1.371-2.37-3.111-2.192-4.791a2.892,2.892,0,0,1,3.266-2.467,11.653,11.653,0,0,1,4.574,1.839c3.045,1.76,23.3,12.558,14.424,15.663C3030.278,2119.549,3020.163,2112.231,3015.9,2107.329Z" transform="translate(-2468.265 -1585.896)"/><path class="h" d="M3252.706,1699.94c-.055-3.793,1.206-8.4,4.889-9.319,2.291-.57,4.733.633,6.29,2.412a19.435,19.435,0,0,1,3.22,6.268c3,8.137,6.03,16.444,6.443,25.1.521,10.861-11.305-1.146-13.7-4.281A34.477,34.477,0,0,1,3252.706,1699.94Z" transform="translate(-2641.776 -1288.569)"/><path class="h" d="M3071.384,1923.821c-1.428-3.064-2.083-7.268.578-9.357a5.894,5.894,0,0,1,5.994-.329,17.379,17.379,0,0,1,4.9,3.922c5.4,5.522,10.892,11.163,14.386,18.056,4.385,8.644-9.609,3.19-12.7,1.513A30.687,30.687,0,0,1,3071.384,1923.821Z" transform="translate(-2509.247 -1450.453)"/><path class="h" d="M3253.736,1919.741a49.936,49.936,0,0,1,7.4,7.085c2.058,2.612,3.424,5.657,3.081,8.386a1.58,1.58,0,0,1-.389.984c-.529.51-1.576.384-2.466.176a31.709,31.709,0,0,1-15.94-9.842,41.837,41.837,0,0,1-8.37-15.107C3234,1902.1,3251.56,1917.929,3253.736,1919.741Z" transform="translate(-2630.155 -1446.841)"/><path class="h" d="M3305.939,1862a51.671,51.671,0,0,1,7.537,6.852c2.113,2.518,3.577,5.4,3.341,7.948a1.369,1.369,0,0,1-.348.916c-.5.466-1.537.323-2.431.1a34.216,34.216,0,0,1-16.055-9.642,42.158,42.158,0,0,1-8.792-14.394C3285.866,1844.943,3303.73,1860.242,3305.939,1862Z" transform="translate(-2667.964 -1405.135)"/><path class="h" d="M3128.74,2132.726a28.334,28.334,0,0,1,4.848,5.481,9.914,9.914,0,0,1,1.544,7.043,1.928,1.928,0,0,1-.376.9,2.02,2.02,0,0,1-1.85.4,16.915,16.915,0,0,1-10.938-7.063,30.145,30.145,0,0,1-4.867-12.415C3115.678,2119.206,3127.288,2131.353,3128.74,2132.726Z" transform="translate(-2543.249 -1603.595)"/><path class="h" d="M3166.128,2056.757a46.96,46.96,0,0,1,5.755,7.076c1.532,2.5,2.445,5.268,1.891,7.5a1.234,1.234,0,0,1-.433.765c-.507.345-1.406.079-2.17-.236a30.694,30.694,0,0,1-12.931-10.713,37.825,37.825,0,0,1-5.857-13.947C3150.632,2038.929,3164.406,2054.9,3166.128,2056.757Z" transform="translate(-2568.838 -1545.811)"/><path class="h" d="M3162.038,1895.756a23.25,23.25,0,0,0-10.141-14.8,10.436,10.436,0,0,0-5.931-1.962,5.09,5.09,0,0,0-4.793,3.467c-.7,2.809,1.738,5.366,4.075,7.074a55.276,55.276,0,0,0,11.177,6.3,6.555,6.555,0,0,0,3.732.712,2.447,2.447,0,0,0,2.073-2.74" transform="translate(-2560.723 -1425.413)"/><path class="h" d="M3071.58,2045.186a23.24,23.24,0,0,0-10.124-14.8,10.466,10.466,0,0,0-5.931-1.962,5.1,5.1,0,0,0-4.794,3.467c-.707,2.809,1.735,5.366,4.075,7.074a55.026,55.026,0,0,0,11.177,6.3,6.582,6.582,0,0,0,3.733.71,2.447,2.447,0,0,0,2.072-2.74" transform="translate(-2495.067 -1533.889)"/><path class="h" d="M3217.843,1995.627c1.05,1.386,2.086,3.19,1.349,4.766-.779,1.669-3.07,1.957-4.865,1.538-4.659-1.1-7.989-5.062-10.962-8.806-3.262-4.092-6.578-8.142-9.785-12.281-4.143-5.358-.337-5.034,4.046-2.667A63.323,63.323,0,0,1,3217.843,1995.627Z" transform="translate(-2597.562 -1496.233)"/><rect class="k" width="435.948" height="3.897" transform="translate(146.275 321.81)"/><rect class="l" width="428.795" height="28.904" transform="translate(149.827 548.28)"/><rect class="f" width="463.945" height="19.399" transform="translate(132.251 560.953)"/><rect class="l" width="491.566" height="17.453" transform="translate(118.441 576.298)"/><rect class="l" width="55.146" height="196.062" transform="translate(176.604 337.774)"/><rect class="l" width="66.057" height="17.332" transform="translate(171.161 325.164)"/><rect class="l" width="66.059" height="17.332" transform="translate(171.136 531.263)"/><rect class="f" width="8.206" height="176.784" transform="translate(183.834 347.726)"/><rect class="f" width="8.206" height="176.784" transform="translate(200.076 347.726)"/><rect class="f" width="8.206" height="176.784" transform="translate(216.314 347.729)"/><rect class="l" width="55.146" height="196.062" transform="translate(283.314 337.782)"/><rect class="l" width="66.059" height="17.332" transform="translate(277.868 325.173)"/><rect class="l" width="66.057" height="17.332" transform="translate(277.846 531.268)"/><rect class="f" width="8.206" height="176.784" transform="translate(290.544 347.734)"/><rect class="f" width="8.206" height="176.784" transform="translate(306.782 347.734)"/><rect class="f" width="8.206" height="176.784" transform="translate(323.024 347.737)"/><rect class="l" width="55.146" height="196.062" transform="translate(390.02 337.799)"/><rect class="l" width="66.057" height="17.332" transform="translate(384.577 325.186)"/><rect class="l" width="66.059" height="17.332" transform="translate(384.553 531.285)"/><rect class="f" width="8.206" height="176.784" transform="translate(397.25 347.75)"/><rect class="f" width="8.206" height="176.784" transform="translate(413.492 347.75)"/><rect class="f" width="8.206" height="176.784" transform="translate(429.731 347.753)"/><rect class="l" width="55.146" height="196.062" transform="translate(496.73 337.807)"/><rect class="l" width="66.059" height="17.332" transform="translate(491.284 325.194)"/><rect class="l" width="66.057" height="17.332" transform="translate(491.262 531.293)"/><rect class="f" width="8.206" height="176.784" transform="translate(503.96 347.759)"/><rect class="f" width="8.206" height="176.784" transform="translate(520.199 347.759)"/><rect class="f" width="8.206" height="176.784" transform="translate(536.44 347.759)"/><path class="f" d="M1557.33,975.15,1775.321,827.5l217.958,147.691v8.817l-435.949-.041Z" transform="translate(-1411.054 -662.108)"/><path class="l" d="M1557.33,1007.313,1775.321,859.66l217.958,147.694Z" transform="translate(-1411.054 -685.454)"/><path class="f" d="M1805.62,1059.207,1955.556,957.65l149.917,101.587Z" transform="translate(-1591.295 -756.588)"/><path class="l" d="M2304.243,1073.908c.035-9.551,6.364-12.632,14.252-12.865v-5.734h6.852v5.783a52.371,52.371,0,0,1,12.459,2v8.515c-4.338-.348-12.059-.649-15.6-.649-4.16-.052-6.205.274-6.205,3.949v1.645c0,2.883,1.291,4.031,5.092,4.031h5.772c10.651,0,12.881,8.1,12.881,13.468v2.784c0,11.349-7.263,13.931-14.4,13.931v5.481H2318.5V1110.7a40.082,40.082,0,0,1-12.607-2.034V1100.2c2.87.2,9.935.649,16.6.652,3.048,0,5.481-.666,5.481-3.563v-1.919c0-2.4-.805-3.837-4.335-3.837h-5.562c-12.853,0-13.84-9.8-13.837-13.468Z" transform="translate(-1953.258 -827.482)"/><line class="m" x2="654.095" transform="translate(7.694 593.776)"/><path class="n" d="M2442.173,1575.744a.375.375,0,0,0-.014-.129.267.267,0,0,1,0-.068h0c-.014-.384.14-.167-.079-.343-3.563-2.886-9.609-3.717-14.5-4.681-.893-.17-1.74-.351-2.53-.548a3.354,3.354,0,0,0-.614-.14c-1.551-.068-2.664.2-3.305,1.918-.729,1.949-1.45,4.52-2.176,6.6a.474.474,0,0,1-.027.1,1.267,1.267,0,0,0-.036.129c1.9.31,4.062.595,6.531.869,4.594.507,10.256.965,17.332,1.453C2442.573,1579.129,2442.383,1577.394,2442.173,1575.744Z" transform="translate(-2036.486 -1200.984)"/><path class="o" d="M2356.624,1497.89c-.762,1.053-1.892,2.6-2.862,3.919a23.483,23.483,0,0,1-2.946-3.354c-5.539-7.386-2.308-6.463-2.675-20.446-.118-4.338,2.763-6.06,6.517-6.879-.222,1.918-.425,3.818-.523,5.846a39.381,39.381,0,0,0,.173,7.035,26.914,26.914,0,0,0,2.313,8.2c-.052.033-.145,0-.186.06.329.425.652.855.976,1.28h0s.025.022.028.035A4.333,4.333,0,0,1,2356.624,1497.89Z" transform="translate(-1984.687 -1129.338)"/><path class="p" d="M2360.783,1590.518c-.036-.014-.046-.014-.036,0h.041Zm.4,3.511c-.115-1.129-.246-2.234-.383-3.305a.375.375,0,0,0-.014-.129c-.08-.033-.161-.063-.25-.09h-.046l.055.022-.194-.066a26.446,26.446,0,0,1,.833,3.568Zm96.906,148.612c-.912-18.333-4.07-36.616-7.7-54.5l-.1-.507-.255.389s-3.409-22.5-16.17-49.393c-12.495-26.366-33.234-40.16-68.318-42.481l-4.182-.274a.832.832,0,0,1,0,.167c.03.238.057.485.08.724.083.858.167,1.721.249,2.582v.162a.606.606,0,0,0,.014.162v.036c.107,1.546.214,3.092.447,4.676l.044.389c-.025.083-.044.165-.066.253s-.041.186-.066.274a1.851,1.851,0,0,1-.044.2.647.647,0,0,1-.028.115c-.008.041-.038.14-.052.208a.622.622,0,0,1-.033.11c-.312.965-.6,1.935-.946,2.864-.021.063-.052.118-.074.178a11.943,11.943,0,0,1-1.644,3.116.06.06,0,0,1-.014.025c-.129.175-.274.345-.425.515a.274.274,0,0,1-.024.027c-2.64,2.946-5.641,2.719-9.116,1.272a.691.691,0,0,1-.107-.058,107.32,107.32,0,0,1-9.729-5.862c-.1-.063-.195-.137-.288-.2-.441-.323-.885-.641-1.316-.968l-1.039-.789q-.781,1.919-1.645,3.807a.066.066,0,0,1,0,.022c-1.518,3.33-3.163,6.55-4.791,9.765-1.5,2.982-2.974,5.958-4.283,9.022-.088.2-.175.4-.255.6a58.39,58.39,0,0,0-3.919,13.024c-.151-.025-.291-.06-.441-.093l-.1-.022h-.014q-.69,5.287-1.37,10.6c-.45,3.442-.9,6.9-1.335,10.352-3.412,26.977-6.47,54.022-8.822,81.106-.789,9.129-1.472,19.416-1.918,28.923h0c-.175,3.648-.318,7.175-.42,10.48l-.027.748c-.444,14.285-.976,28.5-1.05,42.092h112.643c-.573-4.278-1.151-8.724-1.7-12.947a1.568,1.568,0,0,0-.028-.217c-.332-2.554-.655-5.024-.965-7.334q4.934-1.609,9.776-3.607c2.587-1.074,5.262-2.124,7.913-3.289l.855-.373c.688-.3,1.37-.622,2.05-.946a45.649,45.649,0,0,0,8.606-5.161c.3-.241.608-.485.9-.743a28.058,28.058,0,0,0,2.59-2.467,26.773,26.773,0,0,0,2.247-2.76c3.675-5.161,5.452-11.678,6.03-18.146a189.645,189.645,0,0,0,.375-25.842Zm-57.829-53.992c0,.025,0,.041.02.055-.036-.274-.068-.5-.1-.7-.055-.417-.1-.726-.126-.932a.51.51,0,0,0,.031.118.229.229,0,0,0,0,.052.376.376,0,0,1,0,.074h0a1.148,1.148,0,0,0,.019.126,2.019,2.019,0,0,0,.047.312c.019.11.027.186.041.291.022.162.052.337.074.548a.738.738,0,0,1,.014.118h0v.025h0v.019a.06.06,0,0,0-.022-.052c.041.274.082.592.129.937-.017-.307-.074-.636-.118-1Zm.047.113Zm24.225,71.585a3.616,3.616,0,0,1-.392.91,9.069,9.069,0,0,1-3.19,2.705q-4.319,2.617-8.622,5.207l-.674.406c-.019-.137-.041-.274-.06-.425q-.468-3.289-.956-6.729-.58-4.111-1.176-8.359c-.693-4.933-1.4-10-2.1-15.022-.041-.3-.088-.6-.126-.9-.027-.194-.055-.392-.077-.581-.041-.29-.079-.584-.126-.869-.1-.724-.2-1.439-.3-2.16-.074-.548-.148-1.1-.23-1.644-.06-.441-.123-.891-.181-1.332-.03-.222-.063-.439-.091-.661-.044-.274-.079-.548-.115-.823-.025-.129-.038-.249-.052-.373-.055-.373-.107-.743-.162-1.113-.137-.979-.274-1.962-.411-2.941-.069-.488-.135-.973-.2-1.458q-.2-1.455-.4-2.88c-.512-3.719-1.022-7.32-1.507-10.733v-.047a.43.43,0,0,0-.027-.184v-.047q-.053-.411-.115-.822c-.019-.154-.035-.307-.06-.458-.05-.384-.11-.756-.162-1.137-.116-.872-.239-1.729-.359-2.574-.068-.51-.143-1.009-.209-1.51-.049-.37-.1-.743-.15-1.1-.044-.274-.079-.548-.118-.822-.115-.808-.23-1.6-.346-2.374-.208-1.472-.4-2.866-.589-4.182-.046-.323-.093-.647-.14-.965-.162-1.132-.3-2.11-.419-2.955-.02-.134-.042-.274-.055-.389.022.134.041.274.058.384a.769.769,0,0,0,.03.181c0,.02,0,.04,0,.06a.186.186,0,0,1,0,.055.308.308,0,0,0,.013.115.716.716,0,0,1,.019.1v.129a.089.089,0,0,1,0,.03.042.042,0,0,1,0,.025,1.121,1.121,0,0,0,.02.148.413.413,0,0,1,0,.06v.06a.1.1,0,0,0,0,.027v.036a.053.053,0,0,1,0,.025.074.074,0,0,0,0,.036c-.02-.162-.074-.568-.156-1.1a1.236,1.236,0,0,0-.033-.208.174.174,0,0,0,0-.036.083.083,0,0,0,0-.033h0a.037.037,0,0,1,0-.022.123.123,0,0,1,0-.033.358.358,0,0,1,0-.069.221.221,0,0,0,0-.088,1.6,1.6,0,0,0-.019-.167c0-.055-.027-.167-.035-.255-.019-.17-.047-.34-.068-.515a1.241,1.241,0,0,0-.034-.186v-.027h0c0-.021,0-.042,0-.063a1.628,1.628,0,0,0-.041-.274.074.074,0,0,1,0-.027.187.187,0,0,1,0-.055.056.056,0,0,1,0-.019v-.027a.8.8,0,0,1-.014-.123,2.515,2.515,0,0,0-.038-.255.129.129,0,0,1,0-.027.558.558,0,0,1,.028.063v.033c.318.915.411,1.225.438,1.321.006.011.012.022.019.033s0-.167.365.353a.993.993,0,0,1,.077.113.248.248,0,0,1,.047.068c.033.047.066.1.1.154l.17.274a.365.365,0,0,1,.049.071l.044.063c.074.121.115.189.131.222a.084.084,0,0,0,.025.027s.014,0,.033.025l.063.077c2.442,3.168,3.125,7.013,4.289,10.727.323,1.036.663,2.061,1.033,3.075.3.823,1.173,2.165,1.173,3.015.019.047.041.1.06.148.318.77.858,2.166,1.431,3.629.757,1.962,1.559,4.042,1.919,4.884.159.354.255.573.31.691,0,0,0,.025.014.033l.019.038a.182.182,0,0,0,.022.049.02.02,0,0,1,0,.014c.595,1.37,1.483,3.933,1.949,5.235,2.226,6.3,4.21,12.7,6.01,19.185,1.044,3.574,5.659,13.429,4.4,17.842Z" transform="translate(-1955.116 -1215.963)"/><path class="q" d="M2254.484,1441.583c-.449,1.795-.924,3.407-1.4,5.087-.954,3.415-2.686,7.1-3.582,10.091-.779,2.631-5.742,13.484-7.239,15.26-.211.255-.353.329-.405.167a1.873,1.873,0,0,1-.074-.51c-.167-3.714,3.7-20.555-1.425-9.62a29.2,29.2,0,0,1-7.337,3.135c-2.911.822-5.923,1.08-7.4-.466-2.585-2.7-3.927-1-8.513-4.2-3.892-2.724-10.316-17.519-11.2-23.609-.17-1.173-.622-1.422-.222-2.146.052-.082.052,0,.074-.019a20.76,20.76,0,0,0,7.948-6.545,41.283,41.283,0,0,0,4.322-7.211c.178-.384.34-.775.493-1.173a28.194,28.194,0,0,0,1.209-4.029,22.664,22.664,0,0,0,.425-3.867c.378-6.082-2.105-10.963-4.728-16.1-2.266-4.445,28.347-9.5,33.029-10.242,1.37-.222,3.966-.693,5.462-.9-.153,7.649-1.343,15.123-2.239,22.748-.038.323-.074.641-.115.959-3.755.822-6.635,2.541-6.517,6.879.367,13.978-2.864,13.059,2.675,20.446a23.5,23.5,0,0,0,2.947,3.355A14.747,14.747,0,0,0,2254.484,1441.583Z" transform="translate(-1881.604 -1066.581)"/><path class="r" d="M2152.509,1324.439a9.894,9.894,0,1,1-9.84,9.949,9.894,9.894,0,0,1,9.84-9.949Z" transform="translate(-1835.969 -1022.851)"/><path class="r" d="M2383.163,1314.38a9.535,9.535,0,1,1-9.483,9.593A9.535,9.535,0,0,1,2383.163,1314.38Z" transform="translate(-2003.666 -1015.548)"/><path class="s" d="M2197.3,1138.918h0c18.637-.115,33.968,16.419,34.072,36.745l.173,33.582c.1,20.323-15.06,37.041-33.695,37.156h0c-18.637.112-33.968-16.422-34.072-36.745l-.173-33.582C2163.5,1155.752,2178.666,1139.031,2197.3,1138.918Z" transform="translate(-1851.17 -888.175)"/><path class="r" d="M2230.064,1191.727a39.693,39.693,0,0,1,1.318,9.985l.173,33.582c.093,18.686-12.717,34.327-29.271,36.81-1.625.17-2.667.274-2.894.3h-.017c18.508-1.831,22.425-26.141,22.425-33.469V1219.9c0-17.987-9.955-19.867-16.765-19.867H2171.24a6.6,6.6,0,0,0-5.937,4.018l-1.685-1.28v-.644a38.476,38.476,0,0,1,10.927-27.322c16.965,3.313,45.181,8.951,47.124,10.168C2222.725,1185.626,2226.178,1188.46,2230.064,1191.727Z" transform="translate(-1851.177 -914.223)"/><path class="t" d="M2142.088,1179.679l6.095,6.123s2.916-11.36,27.459-7.858-22.63-22.808-27.975-19.936S2137.665,1169.316,2142.088,1179.679Z" transform="translate(-1834.267 -901.874)"/><path class="u" d="M2196.671,1148.564a4,4,0,0,0-3.387,1.513,5.164,5.164,0,0,0-.932,3.127l.134,17.171c-11.81,0-12.059-30.951-8.883-44.876,0,0-24.151,2.645-36.451-5.158s-22.7-11.423-25.851-7.186c-2.987,4.026,9.044,14.887,4.2,33.36-.274,1-.9,18.089-1.261,19.133-.12-6.682-2.26-23.767-4.475-28.04-6.611-12.761-16.951-22.356-3.525-41.494,8.249-11.744,22.252-17.247,28.756-11.306,10.689,9.768,23.408,8.222,33.42,8.379,9.831.17,17.047,2.009,17.138,17.916C2195.562,1111.1,2211.282,1116.393,2196.671,1148.564Z" transform="translate(-1812.031 -847.142)"/><path class="v" d="M2235.688,1887.513H2168.87q2.113-65.736,4.248-131.478.973-30.287,1.957-60.569l6.471-5.937c.614-.548,1.228-1.126,1.839-1.683.823-.762,1.645-1.524,2.483-2.28l.823-.762,1.606-1.475,4.5-4.111h0c1.354-1.241,2.7-2.483,4.059-3.722.823-.027,1.628-.049,2.445-.074,1.919-.06,3.856-.109,5.786-.164h0c.25-.014.5-.019.746-.027.353,0,.715-.019,1.069-.033h0l.918-.027h0q4.054-.109,8.107-.233l3.735-.11,10.829-.318c0,.4.019.792.027,1.189q.06,2.5.12,5c.022.995.05,1.992.074,2.99.014.548.027,1.1.035,1.631h0q1.019,41.637,2.022,83.252h0q.14,5.467.274,10.938Q2234.37,1833.5,2235.688,1887.513Z" transform="translate(-1854.989 -1276.977)"/><path class="w" d="M1972.26,1868.75a.877.877,0,0,1,0,.088v.1A.571.571,0,0,1,1972.26,1868.75Z" transform="translate(-1712.259 -1417.982)"/><path class="w" d="M1972,1870.907a.251.251,0,0,0,0-.057.154.154,0,0,1,0,.03Z" transform="translate(-1712.076 -1419.506)"/><path class="w" d="M1971.995,1871.139v.019a.1.1,0,0,1,0-.039C1971.994,1871.126,1971.994,1871.133,1971.995,1871.139Z" transform="translate(-1712.07 -1419.702)"/><path class="w" d="M1972,1871.09a.1.1,0,0,1,0-.03h0Z" transform="translate(-1712.073 -1419.658)"/><path class="w" d="M1971.994,1871.346a.073.073,0,0,1,0-.036.021.021,0,0,0,0,.016h0Z" transform="translate(-1712.07 -1419.84)"/><path class="w" d="M1971.88,1871.7h0a.106.106,0,0,0,0-.041h0a.122.122,0,0,0,0-.044v-.03h0v.014h0v.055a.1.1,0,0,1,0,.027v.03A.081.081,0,0,0,1971.88,1871.7Z" transform="translate(-1711.988 -1420.036)"/><path class="w" d="M1971.84,1872.214a.12.12,0,0,0,0-.044h0a.02.02,0,0,1,0,.017Z" transform="translate(-1711.959 -1420.464)"/><path class="w" d="M1971.785,1872.555v.014a.037.037,0,0,1,0-.019v-.019A.042.042,0,0,1,1971.785,1872.555Z" transform="translate(-1711.919 -1420.726)"/><path class="w" d="M1971.76,1872.79v-.03a.042.042,0,0,1,0,.022Z" transform="translate(-1711.901 -1420.893)"/><path class="w" d="M1971.76,1873Z" transform="translate(-1711.901 -1421.067)"/><path class="w" d="M1971.753,1873a.026.026,0,0,0,0,.019h0S1971.748,1873,1971.753,1873Z" transform="translate(-1711.895 -1421.067)"/><path class="w" d="M1971.705,1873.345v.006a.151.151,0,0,1,0,.049.031.031,0,0,0,0-.016A.112.112,0,0,1,1971.705,1873.345Z" transform="translate(-1711.86 -1421.299)"/><path class="w" d="M1971.69,1873.256h0a.088.088,0,0,0,0-.036h0a.285.285,0,0,1,0,.035Z" transform="translate(-1711.851 -1421.227)"/><path class="w" d="M1971.66,1873.586a.145.145,0,0,0,0-.036v.036Z" transform="translate(-1711.828 -1421.466)"/><path class="w" d="M1971.54,1874.044a2.478,2.478,0,0,1,.033-.274h0a1.042,1.042,0,0,1-.014.123C1971.551,1873.951,1971.545,1874,1971.54,1874.044Z" transform="translate(-1711.742 -1421.626)"/><path class="w" d="M1971.44,1875.5v.019h0Z" transform="translate(-1711.669 -1422.882)"/><path class="w" d="M1971.418,1875.61a.354.354,0,0,0,0,.06v.063A.235.235,0,0,1,1971.418,1875.61Z" transform="translate(-1711.647 -1422.962)"/><path class="p" d="M1826.08,1798.412a.093.093,0,0,0,0-.025v-.036A.109.109,0,0,1,1826.08,1798.412Zm-3.749-1.853a1.211,1.211,0,0,0,.025-.151A.656.656,0,0,0,1822.33,1796.559Zm23.45-152.8h0a.044.044,0,0,0,0-.027A.055.055,0,0,1,1845.78,1643.756Zm85.713,118.215h0v-.178c-1.214-31.7-18.152-99.005-23.811-151.123-.414-3.788-.765-7.5-1.047-11.111.074,0,4.237,2.65,7.806,4.911,2.672,1.7,5.007,3.177,5.065,3.177h0c-.014-.195-.033-.389-.047-.578s-.025-.3-.033-.439c-.1-1.233-.189-2.467-.274-3.675-.066-.872-.134-1.74-.2-2.606-.548-7.4-1.058-14.476-1.48-21.1h0c-.288-4.415-8.31-3.864-8.518-7.836-1.735-.715-3.135-.5-3.231-.921-.31.1-.041-1.962-.46-1.847-.477.124,2.467-2,1.844-1.847-3.631.855,1.313-.548,2.467-.9-.649.194-1.486.433-2.53.734s-2.228.647-3.673,1.061l-5.632,1.617c-2.963.849-6.509,1.9-10.516,3.1-4.316,1.3-9.168,2.774-14.4,4.385-10.782,3.289-23.178,7.093-35.854,10.916a24.161,24.161,0,0,0-12.766,9.214l-32.6,46.266,48.368,2.563c.447-.159.987-.348,1.537-.548h0c.789-.274,1.593-.548,2.171-.737a.225.225,0,0,0,.093-.033c.858-.274,1.17-.351,1.918-.647a.161.161,0,0,0,.044,0,.666.666,0,0,1,.072-.028h0v-.022a.606.606,0,0,1,.019-.14.265.265,0,0,1,.019-.12.293.293,0,0,1,0-.041,1.037,1.037,0,0,1,.019-.121c0-.027,0-.055,0-.088v-.074h0a.041.041,0,0,0,0-.027h0a.144.144,0,0,0,0-.052.288.288,0,0,1,.019-.123c.019-.041,0-.014,0-.033h0a.338.338,0,0,0,0-.052v-.033a.377.377,0,0,0,0-.044c.085-.5.162-.995.236-1.433q-.1.625-.236,1.475c-.049.3-.1.616-.156.965h0a.338.338,0,0,1,0,.052c-.027.181-.055.364-.087.548h0v.036c-.132.823-.274,1.76-.455,2.831-.038.216-.074.441-.112.677s-.074.466-.115.713-.069.441-.11.674-.088.548-.134.847c-.107.666-.222,1.354-.337,2.075-.241,1.5-.5,3.116-.77,4.837-.046.258-.088.526-.131.792a2.038,2.038,0,0,1-.041.274c-.063.4-.129.8-.192,1.214a.551.551,0,0,1-.025.156c-.074.463-.148.932-.225,1.417a1,1,0,0,1-.03.181.564.564,0,0,1-.016.107c-.047.274-.088.581-.134.872-.184,1.181-.376,2.4-.568,3.656-.153.94-.3,1.9-.452,2.88-.058.34-.112.688-.162,1.039q-.23,1.469-.464,2.982c-.06.373-.123.756-.178,1.134-.047.318-.1.641-.148.965q-.153.948-.3,1.919c-.055.343-.107.685-.156,1.031-.066.439-.14.883-.2,1.324a.817.817,0,0,1-.03.159c-.1.677-.211,1.37-.312,2.053a1.254,1.254,0,0,1-.027.167c-.323,2.072-.647,4.2-.978,6.356-.162,1.08-.329,2.174-.5,3.272-.027.214-.063.419-.09.633-.186,1.2-.375,2.428-.548,3.656-.115.743-.233,1.5-.348,2.253-.567,3.692-1.135,7.449-1.71,11.237-.126.822-.249,1.644-.381,2.483-.137.9-.274,1.8-.409,2.705-.1.7-.214,1.4-.32,2.094q-.222,1.478-.441,2.941c-.085.548-.167,1.112-.255,1.663-.033.192-.06.378-.088.548-.17,1.135-.337,2.261-.507,3.393-.548,3.508-1.063,6.994-1.584,10.431-.11.735-.222,1.464-.332,2.193-.14.94-.274,1.872-.422,2.8-.1.669-.206,1.337-.3,2-.03.195-.06.386-.088.586-.134.9-.274,1.79-.405,2.681q-.406,2.675-.8,5.273c-.079.518-.159,1.028-.236,1.537s-.156,1.052-.236,1.573c-.055.378-.109.748-.167,1.118-.041.274-.082.548-.129.839-.236,1.57-.471,3.108-.7,4.615-.107.672-.2,1.327-.3,1.987-.06.386-.118.776-.178,1.154-.1.647-.195,1.283-.291,1.919-.159,1.052-.31,2.08-.469,3.091-.09.606-.184,1.2-.274,1.792-.2,1.3-.387,2.56-.573,3.78-.088.548-.165,1.1-.25,1.645a.208.208,0,0,1-.016.1c-.088.573-.173,1.135-.255,1.68-.126.822-.244,1.625-.365,2.4-.074.5-.153.987-.228,1.464-.035.274-.074.532-.118.784-.057.411-.12.8-.186,1.195-.074.532-.156,1.058-.236,1.562a.929.929,0,0,1-.016.123c-.038.236-.071.466-.107.688-.1.633-.189,1.233-.274,1.809-.033.194-.06.378-.087.567-.055.375-.113.74-.167,1.1-.036.236-.069.466-.107.693-.06.414-.123.806-.178,1.19q-.049.32-.1.608c-.049.348-.1.68-.148.995-.016.132-.041.274-.063.392-.039.274-.074.516-.113.762-.022.123-.041.249-.06.365-.1.622-.178,1.156-.247,1.644-.047.274-.085.548-.12.781-.019.1-.033.2-.047.3s-.041.258-.054.373a1.431,1.431,0,0,0-.028.189.188.188,0,0,1-.024.112.444.444,0,0,1,.019-.107v-.107a1.563,1.563,0,0,1,.033-.195c.014-.066,0-.074.019-.123a1.5,1.5,0,0,1,.022-.156c0-.074.025-.148.027-.214a.76.76,0,0,1-.027.143,1.134,1.134,0,0,1-.028.186c-.019.1-.027.211-.049.337,0,.049-.025.137-.044.274s-.041.258-.063.406a3.724,3.724,0,0,1-.066.425c-.017.107-.033.222-.049.343a2.068,2.068,0,0,1-.047.274c-.033.2-.066.425-.1.658a1.98,1.98,0,0,1-.039.26q-.274,1.847-.548,3.522c-.1.669-.2,1.321-.3,1.951l-.312,2.023c-.066.444-.135.882-.2,1.31H1925.82C1927.979,1793.865,1932.959,1800.465,1931.493,1761.972Zm-86.957-123.116a.31.31,0,0,1,.019-.148,1.093,1.093,0,0,1-.016.148Zm-22.351,158.72a.21.21,0,0,0,0,.061v0a.516.516,0,0,1,.019-.121.221.221,0,0,1-.016.06Zm3.914.669v.08a.228.228,0,0,1,0,.063.289.289,0,0,0,0,.074v-.049a.094.094,0,0,0,0-.025v-.036a.048.048,0,0,1,0-.028.4.4,0,0,1,0-.08.132.132,0,0,1,0-.033Zm.044-.356v-.069a.115.115,0,0,1,0-.027.384.384,0,0,1,0,.1Zm19.637-154.132h0a.044.044,0,0,0,0-.027A.055.055,0,0,1,1845.78,1643.756Zm0,0h0a.044.044,0,0,0,0-.027A.055.055,0,0,1,1845.78,1643.756Z" transform="translate(-1581.125 -1198.127)"/><path class="x" d="M2253.976,1748.932c3.376-21.315,12.476-42.9,16.866-64.245-1.39-4.709-3.659-9.387-5.509-14.057-4.566-.485-11.355-.463-15.375-1.069s-5.251-1.828-8.74-2.552c-3.67,6.134-7.532,12.311-11.278,18.461,5.83-4.229,12.27-9,19.588-9.787,6.676,2.25,12.084,6.621,12.941,13.3-4.111,18.415-11.569,34.007-11.369,54.282s.318,47.735-.507,69.54c2.278-20.9,0-42.555,3.382-63.859Z" transform="translate(-1899.322 -1271.533)"/><path class="g" d="M2170.05,1557.681c1.987,9.952,10.793,32.746,14.224,39.59s-1.1,1.548,3.015,1.157,13.86-11.621,19-13.978c-6.608-9.592-13.819-18.637-20.462-27.887-1.263-1.762-1.014-2.766-.548-4.624.183-.7.773-1.507,1-2.269C2180.739,1551.079,2174.97,1554.222,2170.05,1557.681Z" transform="translate(-1855.846 -1186.352)"/><path class="y" d="M2392.271,1554.787c-.894-.17-1.74-.351-2.53-.548a3.33,3.33,0,0,0-.614-.14c-1.551-.069-2.664.2-3.305,1.918-.729,1.949-1.45,4.519-2.176,6.6a.484.484,0,0,1-.027.1,1.186,1.186,0,0,0-.036.129,35.824,35.824,0,0,1-9.519-2.59,14.746,14.746,0,0,1-3.8-2.53c.971-1.324,2.1-2.867,2.861-3.919a4.353,4.353,0,0,0,.823-4.3.384.384,0,0,1-.028-.036s0,0,.014,0h.02a11.862,11.862,0,0,1-.822-1.318A60.576,60.576,0,0,1,2392.271,1554.787Z" transform="translate(-2001.184 -1185.256)"/><path class="g" d="M2340.845,1589.087c-.655,1.486-1.4,3.174-1.861,4.111-1.115,2.294-2.466,5.207-3.919,8.318-3.659,7.909-7.882,17.17-10.2,21.2-2.631,4.574-.789,2.113-1.814,1.231a.917.917,0,0,0-.274-.17,2.057,2.057,0,0,0-.946-.088c-1.491.154-6.481-5.506-9.247-7.616-.169-.129-.332-.244-.479-.343l-.041-.027c-2.524-1.644-5.882-4.514-8.721-6.457-.323-.227-.641-.438-.951-.633,3.815-5.331,13.032-17.853,15.641-21.441l.822-1.135.042-.058a1.012,1.012,0,0,0,.066-.088c.014-.022.036-.049.06-.082l.107-.142a.219.219,0,0,1,.036-.055h0a.238.238,0,0,1,.022-.033h0c.107-.148.162-.23.189-.274l.019-.022.134-.186c.351-.488.866-1.2,1.445-1.984a14.741,14.741,0,0,0,3.8,2.53,35.829,35.829,0,0,0,9.519,2.59C2336.216,1588.528,2338.375,1588.813,2340.845,1589.087Z" transform="translate(-1951.915 -1210.627)"/><path class="n" d="M2115.7,1571.842c.835-.578,1.918-.808,2.663,1.5,9.318,29,24.011,65.435,30.378,94.07,6.964,31.318,4.975,75.1,2.886,105.26-7.087-23.537-16.913-61.7-26.991-80.267s-12.593-22.307-21.459-38.531c1.461-.823-1.134.077,1.258-2.319s9.368-9.461,12.418-12.489c-5.407-3.168-17.618-1.645-21.83-6.249s2.255-45.756,4.248-53.216C2100.868,1573.607,2111.853,1574.506,2115.7,1571.842Z" transform="translate(-1800.365 -1202.166)"/><path class="z" d="M1971.77,1872.887v.044s.129-.027.118-.069S1971.781,1872.859,1971.77,1872.887Z" transform="translate(-1711.908 -1420.954)"/><path class="w" d="M2420.428,1632.749c-.052.219-.115.452-.178.672a5.981,5.981,0,0,0,2.387.447c.014,0-.044.066.025-.016s.082-.176-.153-.453c-.532-.622-1.2-1.663-1.727-2.409C2420.683,1631.574,2420.57,1632.166,2420.428,1632.749Z" transform="translate(-2037.473 -1245.385)"/><path class="n" d="M2361.926,1652.506c-6.394,4.966-15.307,3.289-22.214,6.5,3.289,3.015,10.141,10.064,12.572,12.459s-.2,1.5,1.269,2.332c-8.737,16.113-11.374,20.117-21.3,38.553s-19.881,57.243-26.491,79.958c-.154.249-.228.3-.274.274a2.2,2.2,0,0,1-.039-.548c-2.159-28.915-3.691-75.515,2.333-103.465,2.491-11.577,10.3-28.8,11.281-36.024.77-5.709.5-3.41.351-2.193-.036.321-.068.567-.068.567.054-.181.11-.365.167-.548,1.37-4.582,2.741-8.9,4.084-13.1,2.741-8.576,5.449-16.644,8.244-25.434,0-.033,0,0,.025-.047s.014-.162.063-.162.189.175.274.2c.176-.6.389-1.316.564-1.918.507-1.746,1.025-3.563,1.519-5.248.31-1.072.567-1.941.863-2.954,1.9.31,4.062.595,6.531.869,4.594.507,10.255.965,17.332,1.453a.831.831,0,0,1,0,.167c.121,1.143.233,2.3.337,3.456a.521.521,0,0,0,.019.173v.036c.148,1.573.3,3.143.447,4.675l.043.389h0c.027.274.077.822.11,1.214.208,2.51.592,6,.748,8.34.1,1.519.521,4.917.5,5.627C2361.073,1632.869,2364.946,1650.163,2361.926,1652.506Z" transform="translate(-1952.751 -1224.13)"/><path class="z" d="M2407.12,1611.292l.274.225q1.494-5.122,2.981-10.247Q2408.732,1606.277,2407.12,1611.292Z" transform="translate(-2027.942 -1223.81)"/><path class="aa" d="M1905.328,2012.6v.038a.116.116,0,0,0,0-.041v-.019A.041.041,0,0,1,1905.328,2012.6Zm19.892-141.969q-.438-2.549-.877-5.092h0a1.486,1.486,0,0,0-.052-.288h0c-.345-2.031-.7-4.048-1.047-6.065v.09h0a.027.027,0,0,1,0,.019.113.113,0,0,0,0,.019v.036h0v.024a.258.258,0,0,1,0,.082.027.027,0,0,1,0,.036v.019a.1.1,0,0,1,0,.03s0,.027,0,.047a.192.192,0,0,1,0,.06h0v.1h0v.047a.067.067,0,0,1,0,.033v.022a.067.067,0,0,1,0,.042v.06a1.028,1.028,0,0,1-.014.131c0,.028,0,.05,0,.072h0v.066c0,.074-.019.143-.025.211h0a.207.207,0,0,1,0,.058h0c-.118.918-.205,1.587-.274,2.053a1.4,1.4,0,0,1-.021.186c-.06.452-.094.669-.1.691,0-.041.03-.31.076-.729h0a.491.491,0,0,1,.025-.186h0c.076-.691.2-1.7.326-2.768v-.06c.022-.183.041-.37.069-.548.228-1.9.458-3.8.507-4.276a.105.105,0,0,0,0-.041.105.105,0,0,0,0,.041c-.047.323-.175,1.313-.425,3.272-.039.321-.085.658-.126,1.022-.022.178-.047.365-.074.548h0a.143.143,0,0,1,0,.035h0c-.1.784-.2,1.658-.334,2.664h0a.524.524,0,0,1-.022.181c-.028.222-.06.449-.088.68s-.055.471-.088.715-.055.447-.088.677c-.027.274-.069.548-.1.855-.082.666-.17,1.37-.258,2.085-.186,1.51-.389,3.136-.6,4.862-.036.274-.069.529-.1.8a1.632,1.632,0,0,1-.038.274c-.044.4-.1.822-.143,1.225a1.531,1.531,0,0,0-.016.156q-.1.789-.195,1.606v.107c-.038.29-.071.587-.106.88q-.212,1.779-.433,3.67c-.115.951-.233,1.919-.342,2.9-.047.345-.088.694-.124,1.047q-.181,1.474-.351,3l-.14,1.14c-.033.329-.074.652-.11.976-.074.636-.159,1.275-.228,1.919-.041.343-.082.688-.121,1.03-.049.441-.1.891-.156,1.338a.457.457,0,0,1-.019.156q-.123,1.02-.238,2.061a.465.465,0,0,1-.019.165c-.244,2.091-.49,4.229-.748,6.4q-.185,1.645-.378,3.289c-.022.208-.046.422-.068.633-.143,1.214-.274,2.442-.425,3.675q-.129,1.121-.274,2.27c-.433,3.711-.86,7.493-1.3,11.292-.1.822-.189,1.666-.291,2.494-.1.907-.2,1.817-.31,2.727-.077.7-.161,1.4-.238,2.1-.112.987-.228,1.965-.334,2.949-.063.548-.123,1.126-.192,1.68-.025.189-.044.378-.071.565-.129,1.14-.252,2.275-.381,3.407-.4,3.53-.8,7.038-1.2,10.492-.088.742-.165,1.471-.25,2.192q-.156,1.414-.318,2.812c-.077.674-.156,1.349-.225,2.012-.027.2-.052.392-.071.592-.1.91-.211,1.8-.307,2.7q-.238,2.056-.463,4.062c-.047.416-.093.822-.137,1.239-.06.521-.121,1.039-.181,1.548s-.12,1.053-.175,1.582c-.041.378-.082.751-.129,1.124-.217,1.867-.422,3.7-.625,5.481-.077.675-.151,1.335-.225,2-.047.386-.093.776-.135,1.156-.074.647-.143,1.288-.222,1.918-.121,1.055-.236,2.094-.356,3.111q-.1.912-.206,1.8c-.148,1.3-.274,2.576-.43,3.807-.066.548-.123,1.11-.189,1.644a.629.629,0,0,1,0,.1c-.06.576-.126,1.135-.189,1.688-.093.822-.189,1.631-.274,2.412q-.083.751-.165,1.472c-.033.274-.06.535-.093.795-.046.408-.094.806-.14,1.2-.06.548-.118,1.063-.178,1.565a.424.424,0,0,1-.014.132c-.03.233-.057.466-.085.691q-.1.951-.208,1.814c-.022.2-.044.384-.063.573-.041.378-.082.748-.126,1.1-.03.244-.049.477-.077.7-.055.419-.1.822-.148,1.2-.025.208-.047.417-.069.614-.044.345-.08.68-.112.992-.019.134-.033.274-.049.4-.028.274-.058.518-.085.762a3.068,3.068,0,0,1-.041.37c-.077.622-.137,1.162-.189,1.644-.036.274-.063.548-.093.79,0,.1-.028.2-.036.3s-.033.274-.041.384a1.493,1.493,0,0,0-.025.189h0v-.1a1.531,1.531,0,0,1,.022-.2.5.5,0,0,1,.016-.123c.016-.049,0-.112.016-.161.019-.167.039-.324.047-.439a.192.192,0,0,0,0,.041.843.843,0,0,1-.019.184.386.386,0,0,1-.019.143c-.019.049,0,.093-.022.189s-.025.219-.041.337a1.2,1.2,0,0,1-.028.274c-.027.129-.03.258-.052.406,0,.107-.027.25-.047.425a3.322,3.322,0,0,1-.041.348c0,.074-.022.164-.036.274-.019.2-.046.425-.074.661,0,.079-.019.167-.027.26-.093.759-.181,1.5-.274,2.222h36.479c.406-48.8-7.723-99.115-16.069-147.645Zm-20.084,143.857h0v0Zm.022-.18a.247.247,0,0,1,0,.06v-.06Zm.019-.178a.186.186,0,0,0,0,.047.322.322,0,0,1,.014-.1Zm.027-.241a.493.493,0,0,0,0,.06.031.031,0,0,0,0,.022v-.022a.708.708,0,0,1,0-.12Zm-.088.762a.03.03,0,0,1,0-.019v-.041a.2.2,0,0,0-.011.06Z" transform="translate(-1663.301 -1407.862)"/><path class="n" d="M2609.173,2212.825s10.157-2.308,9.694,2.771-57.237,26.771-57.237,26.771Z" transform="translate(-2140.105 -1667.376)"/><path class="n" d="M2607.336,1831.078l-.063-.077c-.019-.024-.028-.03-.032-.024h0l-.025-.038c-.016-.033-.057-.1-.131-.222l-.044-.063a.387.387,0,0,0-.049-.071c-.047-.082-.1-.17-.17-.274-.033-.058-.066-.107-.1-.154a.251.251,0,0,0-.047-.069.982.982,0,0,0-.077-.112c-.356-.521-.351-.354-.364-.354a.37.37,0,0,1-.019-.033c-.027-.1-.12-.406-.438-1.321v-.033a.575.575,0,0,0-.028-.063.074.074,0,0,0,0,.027,1.425,1.425,0,0,0,.039.255h0a.706.706,0,0,0,.019.115c.005.036,0,.019,0,.028a.043.043,0,0,0,0,.019.171.171,0,0,0,0,.055.051.051,0,0,0,0,.027,2.216,2.216,0,0,0,.041.274.391.391,0,0,0,0,.063h0v.016a.974.974,0,0,0,.033.186c.022.175.049.345.068.515a1.522,1.522,0,0,0,.036.255,1.191,1.191,0,0,1,.019.167.242.242,0,0,1,0,.088.291.291,0,0,0,0,.068.186.186,0,0,0,0,.033.029.029,0,0,0,0,.022h0v.014a.145.145,0,0,1,0,.036c.014.074.022.145.033.208.082.531.137.937.156,1.1a.08.08,0,0,1,0-.036.052.052,0,0,0,0-.024h0v-.036h0v-.093c0-.019,0-.037,0-.055h0a.673.673,0,0,1-.02-.134h0v-.027h0a.405.405,0,0,0,0-.069v-.022a.683.683,0,0,0-.019-.1.344.344,0,0,0-.014-.115.174.174,0,0,0,0-.055c0-.02,0-.04,0-.06a1.084,1.084,0,0,0-.03-.181c-.016-.121-.035-.25-.057-.384a2.866,2.866,0,0,0,.054.389c.121.844.257,1.823.419,2.954.046.318.094.642.14.965.189,1.315.381,2.711.589,4.183.115.77.23,1.565.345,2.373.038.274.074.548.118.822.049.365.1.737.151,1.1.066.5.14,1,.208,1.51.121.844.244,1.7.359,2.574.052.381.113.754.162,1.137.024.151.041.3.06.458q.061.411.115.822v.047c.014.06.017.123.027.183v.047c.486,3.412,1,7.014,1.508,10.733q.2,1.425.4,2.881c.068.485.134.97.2,1.458.134.979.274,1.962.412,2.941.054.37.106.74.161,1.113.014.123.028.244.052.373.035.273.071.548.115.822.027.222.061.438.091.661.057.441.12.89.181,1.332.082.548.156,1.1.23,1.645.107.721.2,1.436.3,2.16.046.274.085.578.126.869.022.189.049.386.077.581.039.3.085.606.126.9.707,5.027,1.412,10.081,2.1,15.022-18.012-31.557-25.195-69.943-25.124-105.731,0-1,.063-3.2.11-4.977a.214.214,0,0,1,.425-.041c3.259,15.126,7.872,30.882,15.307,44.674a.465.465,0,0,0,.027.05" transform="translate(-2160.531 -1355.35)"/><path class="ab" d="M2374.512,1143.29c-2.48-7.436-8.085-15.011-14.052-21.52,9.831.17,17.047,2.009,17.138,17.916,0,0,15.724,5.292,1.113,37.463a4,4,0,0,0-3.387,1.513C2376.23,1166.507,2378.02,1153.814,2374.512,1143.29Z" transform="translate(-1994.07 -875.727)"/><path class="ac" d="M2442.173,1575.744a.375.375,0,0,0-.014-.129.267.267,0,0,1,0-.068h0c-.014-.384.14-.167-.079-.343-3.563-2.886-9.609-3.717-14.5-4.681-.893-.17-1.74-.351-2.53-.548a3.354,3.354,0,0,0-.614-.14c-1.551-.068-2.664.2-3.305,1.918-.729,1.949-1.45,4.52-2.176,6.6a.474.474,0,0,1-.027.1,1.267,1.267,0,0,0-.036.129c1.9.31,4.062.595,6.531.869,4.594.507,10.256.965,17.332,1.453C2442.573,1579.129,2442.383,1577.394,2442.173,1575.744Z" transform="translate(-2036.486 -1200.984)"/><path class="n" d="M2593.26,1687.738l-10.045-50.684c-1.1-3.867-1.371-4.681-2.4-7.713a28.354,28.354,0,0,0-2.361-5.435c-.06-.11-.123-.219-.189-.326-.942-1.611-1.888-2.774-2.894-4.27-.392-.586-.762-1.121-1.14-1.644a20.062,20.062,0,0,0-4.265-3.727c-.085-.058-.167-.123-.249-.183-.129-.094-.274-.181-.392-.274h-.016l-.205-.129c-.329-.2-.672-.384-1.031-.565l-.244-.121h0c-.274-.134-.567-.274-.875-.395-.156-.069-.312-.131-.474-.2s-.391-.161-.594-.241-.436-.175-.655-.257-.444-.176-.679-.274-.471-.175-.716-.274c-.342-.14-.693-.274-1.052-.406-.25-.1-.5-.194-.757-.274-1.253-.48-2.557-.959-3.911-1.45l-1.593-.568-.378-.134c-.389-.143-.781-.274-1.181-.419h-.093a.1.1,0,0,1-.041-.019h-.024l-.041-.014-1.8-.628c-2.173-.759-4.426-1.518-6.715-2.28-.882-.3-1.768-.592-2.659-.888l-.962-.318-1.817-.595c-2.609-.855-5.226-1.7-7.806-2.535l-2.576-.822c-1.34-.436-2.658-.855-3.958-1.272-.3-.1-.608-.192-.912-.3-6.644-2.193-12.574-4.141-16.7-5.517l-.351-.115c-.073-.027-.148-.047-.211-.074l-.14-.047-.041-.014-.041-.016-2.086-.74c-.093-.033-.181-.06-.274-.093-.173-.057-.328-.109-.471-.162l-.208-.071-.756-.255-.241-.082a.048.048,0,0,0-.028,0,.077.077,0,0,1-.041-.014c-.056-.019-.113-.036-.17-.049h0s.087.03.145.055a1.9,1.9,0,0,0,.192.082.816.816,0,0,1,.085.033l.414.156c-.293-.1-.5-.164-.642-.205.187.063.491.17.789.274a.08.08,0,0,1,.066.025h.022a.138.138,0,0,1,.041.019l-.123-.041h0l-.639-.214h0a1.6,1.6,0,0,1-.162-.055l-.181-.06h0a.437.437,0,0,0,.014.129c.137,1.072.274,2.176.384,3.305q.1.918.192,1.847l4.182.274c35.081,2.307,55.822,16.1,68.318,42.481,12.747,26.892,16.17,49.393,16.17,49.393l.255-.389Zm-88.273-96.456a.016.016,0,0,1-.013,0Zm0,0h.033s-.019.008-.027,0Z" transform="translate(-2098.125 -1216.253)"/><path class="p" d="M2504.908,1591.139a.15.15,0,0,1,.041.019l-.123-.041h0l-.639-.214h0a1.655,1.655,0,0,1-.162-.055l-.18-.061h0a.267.267,0,0,1,0-.068h0s.087.03.145.055a1.874,1.874,0,0,0,.192.082.74.74,0,0,1,.085.033l.414.156c-.293-.1-.5-.164-.641-.206.186.063.491.17.789.274a.08.08,0,0,1,.066.024h.014Z" transform="translate(-2098.156 -1216.152)"/><path class="p" d="M2508.084,1592.38h0a.017.017,0,0,1-.013,0Z" transform="translate(-2101.224 -1217.357)"/><path class="p" d="M2508.183,1592.45h-.014Z" transform="translate(-2101.282 -1217.407)"/><path class="ad" d="M1658.546,2416.633h277.689a9.528,9.528,0,0,0,9.349-8.819h0a8.223,8.223,0,0,0-8.291-8.814H1659.6a9.516,9.516,0,0,0-9.349,8.814h0a8.238,8.238,0,0,0,8.291,8.819Z" transform="translate(-1478.497 -1802.904)"/><path class="t" d="M1661.417,2441.315h277.689a9.472,9.472,0,0,0,7.726-4.158A8.221,8.221,0,0,0,1939.6,2433H1661.919a9.482,9.482,0,0,0-7.729,4.157A8.222,8.222,0,0,0,1661.417,2441.315Z" transform="translate(-1481.368 -1827.586)"/><path class="ae" d="M1574.628,1956.842h222.1a10.732,10.732,0,0,0,10.809-11.541l-19.711-143.857a12.5,12.5,0,0,0-12.265-11.536h-222.1a10.73,10.73,0,0,0-10.809,11.536l19.711,143.863A12.51,12.51,0,0,0,1574.628,1956.842Z" transform="translate(-1400.375 -1360.748)"/><path class="af" d="M1574.625,1956.843h215.554a10.733,10.733,0,0,0,10.807-11.541l-19.708-143.857a12.5,12.5,0,0,0-12.267-11.536H1553.456a10.729,10.729,0,0,0-10.807,11.536l19.711,143.863A12.509,12.509,0,0,0,1574.625,1956.843Z" transform="translate(-1400.375 -1360.748)"/><path class="ag" d="M1634.908,1956.829l192.275-162.165a12.152,12.152,0,0,1,2.631,6.761l.548,8.436-173.273,146.968Zm130.4-166.939L1609.48,1922.919l1.417,22.37a11.989,11.989,0,0,0,1.414,4.917l189.967-160.315Z" transform="translate(-1448.912 -1360.735)"/><path class="u" d="M1656.395,2391.716h231.069a4.757,4.757,0,0,0,4.673-4.406h0a4.111,4.111,0,0,0-4.147-4.41H1656.921a4.757,4.757,0,0,0-4.659,4.41h0a4.11,4.11,0,0,0,4.133,4.406Z" transform="translate(-1479.961 -1791.218)"/><path class="af" d="M2488.223,2404.91h54.1c5.207,0,9.707-4.964,10.02-11.031h0c.312-6.065-3.689-11.029-8.888-11.029h-54.1c-5.207,0-9.708,4.963-10.02,11.029h0C2479.025,2399.947,2483.024,2404.91,2488.223,2404.91Z" transform="translate(-2080.353 -1791.182)"/><circle class="l" cx="78.604" cy="78.604" r="78.604" transform="translate(160.211 111.163) rotate(-45)"/><g class="ah" transform="translate(160.211 0)"><path class="ai" d="M2038.754,456.44l-.85,10.568s.083,1.658-1.047,1.516a4.689,4.689,0,0,1-3.417-5.158c.071-1.143-.05-4.826-.05-4.826s-5.169-3.313-6.868-6.378c0,0-2.642-4.659-.145-5.98a31.152,31.152,0,0,1,3.516-1.751l4.607,4.909Z" transform="translate(-1910.981 -384.027)"/><path class="aj" d="M1976.631,536.432h-23.6c-3.681,0-6.674-3.549-6.674-7.907v-7.808c0-4.36,2.993-7.907,6.674-7.907h23.6c3.681,0,6.674,3.547,6.674,7.907v7.819C1983.3,532.894,1980.312,536.432,1976.631,536.432Zm-23.6-19.284c-1.1,0-2.324,1.461-2.324,3.563v7.819c0,2.094,1.225,3.563,2.324,3.563h23.6c1.1,0,2.324-1.461,2.324-3.563v-7.814c0-2.1-1.225-3.563-2.324-3.563Z" transform="translate(-1853.673 -433.665)"/><path class="e" d="M1938.05,635.46a5.253,5.253,0,0,1-5.388,5.07h-81.076a5.251,5.251,0,0,1-5.386-5.07V578.28a5.249,5.249,0,0,1,5.386-5.07h81.076a5.251,5.251,0,0,1,5.388,5.07Z" transform="translate(-1780.965 -477.512)"/><path class="aj" d="M1938.05,609.283v-31a5.251,5.251,0,0,0-5.388-5.07h-81.076a5.249,5.249,0,0,0-5.386,5.07v31Z" transform="translate(-1780.965 -477.512)"/><path class="e" d="M1935.277,588.724a5.253,5.253,0,0,1-5.388,5.07h-84.43a5.253,5.253,0,0,1-5.388-5.07V560.99a5.253,5.253,0,0,1,5.388-5.07h84.43a5.253,5.253,0,0,1,5.388,5.07Z" transform="translate(-1776.515 -464.96)"/><rect class="ai" width="16.754" height="9.138" transform="translate(102.78 124.034)"/><path class="ai" d="M1991.766,422.011a2.314,2.314,0,0,0-.05-.436V409.162l-2.935,1.5-.208-7.674.022-18.727h-18.19v17.316l-3.245,6.364.022,10.771h0v4.818h0l.1,3.884a2.67,2.67,0,0,0,2.936,2.316,2.706,2.706,0,0,0,2.817-2.357h.063a3.135,3.135,0,0,0,6.183,0h.09a3.1,3.1,0,0,0,6.188,0h.107a2.987,2.987,0,0,0,3.16,2.491,2.949,2.949,0,0,0,3.037-2.853Z" transform="translate(-1868.773 -340.347)"/><rect class="e" width="26.777" height="26.248" transform="translate(97.373 27.381)"/></g><circle class="l" cx="85.812" cy="85.812" r="85.812" transform="translate(507.301 102.764)"/><g class="ak" transform="translate(507.301 102.764)"><path class="ai" d="M3042.146,942.793l-23.332-17.913-8.208,3.977-13.388,6.457-6.948.455v29.073l61.658,3.8,17.681-25.258Z" transform="translate(-2958.568 -835.563)"/><path class="ai" d="M3105.551,944.407,3088.3,968.629l-47.924-2.954c1.189-2.119,1.083-4.358,1.469-6.9a91.066,91.066,0,0,0,1.318-14.123c-.019-5.325.153-10.492.548-15.682l11.476-4.111,23.332,17.911Z" transform="translate(-2994.944 -835.548)"/><path class="ai" d="M3198.031,941.09l31.96-17.283,13.037-19.571s3.738-9.921,4.6-14.356c.449-2.332-3.583-6.879-8.863-1.39-3.256,3.385-7.263,10.587-7.263,10.587l-9.044,9.392-14.764,6.627-28.184-.608,5.165,25.565Z" transform="translate(-3095.942 -807.258)"/><path class="e" d="M2885.275,965.124l-35.989.074-4.377-49.588,42.166,2Z" transform="translate(-2853.047 -828.834)"/><path class="aj" d="M3159.657,930.369a7.373,7.373,0,0,1-4.835-.247l-3.069-.989c-3.22-1.039-5.347-3.385-4.75-5.24l1.644-8.872c.6-1.855,4.7-1.833,7.918-.795l3.07.989c3.22,1.039,8.29,3.766,7.693,5.621C3167.323,920.826,3160.663,930.012,3159.657,930.369Z" transform="translate(-3072.273 -827.315)"/><path class="aj" d="M3271.2,930.369a7.372,7.372,0,0,0,4.834-.247l3.067-.989c3.221-1.039,5.347-3.385,4.75-5.24l-1.644-8.872c-.6-1.855-4.7-1.833-7.918-.795l-3.069.989c-3.221,1.039-8.291,3.766-7.693,5.621C3263.527,920.826,3270.2,930.012,3271.2,930.369Z" transform="translate(-3156.895 -827.315)"/><path class="aj" d="M3299.312,759.887c-1.727-1.447-1.179-2.8.71-4.034,7.964-5.194,12.807-4.445,13.336-4.259.938.332,1.423,1.326,1.174,2.741l-2.083,11.927c-.392,2.217-2.124,2.85-3.851,1.4Z" transform="translate(-3182.155 -709.663)"/><ellipse class="aj" cx="33.957" cy="26.908" rx="33.957" ry="26.908" transform="translate(66.884 44.104)"/><path class="aj" d="M3284.785,754.341c-1.949-1.132-1.645-2.563,0-4.1,6.961-6.476,11.862-6.578,12.416-6.474.979.167,1.628,1.066,1.625,2.505l-.03,12.106c0,2.253-1.606,3.171-3.563,2.039Z" transform="translate(-3171.386 -704.076)"/><path class="ai" d="M3323.005,824.193a2.193,2.193,0,1,0-2.193,2.193A2.192,2.192,0,0,0,3323.005,824.193Z" transform="translate(-3196.927 -760.879)"/><path class="aj" d="M3205.044,769.915a.652.652,0,0,1-.186-1.277,35.29,35.29,0,0,1,19.977,0,.652.652,0,1,1-.37,1.25,33.966,33.966,0,0,0-19.232,0A.648.648,0,0,1,3205.044,769.915Z" transform="translate(-3114.006 -721.095)"/><path class="aj" d="M3352.509,835.354c0,2.379-1.589,4.826-3.53,5.435l-4.169,1.31c-1.94.611-3.53-.839-3.53-3.217V826.37c0-2.379,1.59-3.837,3.53-3.218l4.169,1.31c1.94.608,3.53,3.056,3.53,5.435Z" transform="translate(-3213.376 -761.612)"/><path class="aj" d="M3120.576,784.209a.438.438,0,0,0-.049-.688,8.432,8.432,0,0,0-2.831-.715,8.719,8.719,0,0,1-3.383-1.452,2.975,2.975,0,0,1-.712-.724,2.861,2.861,0,0,0,2.261-.469,2.457,2.457,0,0,0,.23-3.015,2.11,2.11,0,0,0-3.144-.373,3.677,3.677,0,0,0-1.371,2.146,2.511,2.511,0,0,1-1.324-2.36c.022-.31-.386-.337-.5-.091-.671,1.485.441,2.689,1.749,3.415a3.424,3.424,0,0,0,.17.874c.548,1.661,2.286,2.631,3.813,3.253C3116.871,784.574,3119.269,785.308,3120.576,784.209Zm-7.139-5.481c.291-.567,1.03-1.285,1.49-.548.763,1.228-.75,1.428-1.688,1.321a1.75,1.75,0,0,1,.2-.77Z" transform="translate(-3045.16 -727.666)"/><path class="ai" d="M3027.981,889.04l12.764,4.659,14.172-19.429s7.759-3.272,10.261-4.053c8.392-2.615,8.565-10.047,8.2-11.511-.619-2.524-4.848-.773-4.848-.773l-22.5,6.624L3015.62,886.3Z" transform="translate(-2976.971 -786.535)"/><path class="e" d="M3227.8,692.253a8.636,8.636,0,1,0-11.024,5.232A8.637,8.637,0,0,0,3227.8,692.253Z" transform="translate(-3118.823 -658.312)"/><path class="aj" d="M3230.276,695.627a7.183,7.183,0,1,0-9.181,4.352A7.183,7.183,0,0,0,3230.276,695.627Zm-8.921,3.623a6.411,6.411,0,1,1,8.192-3.884,6.411,6.411,0,0,1-8.192,3.884Z" transform="translate(-3122.668 -662.174)"/><path class="aj" d="M3230.619,695.787a2.039,2.039,0,0,1,2.894-1.318l.332-.929,1.03.367-.334.937a7.883,7.883,0,0,1,1.762.995l-.49,1.37c-.636-.291-1.779-.754-2.316-.946-.622-.23-.948-.29-1.162.307l-.1.274c-.167.466-.038.724.535.926l.872.31a2.041,2.041,0,0,1,1.159,2.878l-.159.449a2.082,2.082,0,0,1-2.977,1.485l-.317.885-1.031-.367.321-.9a5.972,5.972,0,0,1-1.782-1.009l.488-1.37c.422.186,1.461.641,2.467,1,.458.164.863.189,1.03-.274l.112-.312c.14-.389.1-.666-.433-.855l-.836-.3a2.082,2.082,0,0,1-1.308-2.927Z" transform="translate(-3131.767 -667.627)"/></g><circle class="l" cx="65.994" cy="65.994" r="65.994" transform="translate(0 239.751) rotate(-45)"/><g class="al" transform="translate(0 146.421)"><path class="ai" d="M1393.075,1024.5l-18.793,8.57-7.562,7.636-20.881,9.192-12.139-35.983,26.974-9.324,20.311-8.532Z" transform="translate(-1248.715 -930.892)"/><path class="e" d="M1488.155,993.13l-17.225-37.4L1503.7,940.36l14.051,39.54Z" transform="translate(-1348.334 -890.458)"/><path class="aj" d="M1254.455,1052.409a3.585,3.585,0,0,1-4.87-1.349l-30.365-53.6a3.585,3.585,0,0,1,1.349-4.87l28.5-16.143a3.585,3.585,0,0,1,4.87,1.349l30.364,53.6a3.585,3.585,0,0,1-1.348,4.87Z" transform="translate(-1165.277 -916.322)"/><rect class="l" width="32.754" height="61.85" transform="matrix(0.87, -0.493, 0.493, 0.87, 56.99, 79.277)"/><path class="aj" d="M1309.761,1092.216a13.426,13.426,0,1,1,5.262-18.409A13.543,13.543,0,0,1,1309.761,1092.216Z" transform="translate(-1216.661 -982.43)"/><path class="e" d="M1319.921,1095.071c2.223-1.247,3.711-.274,4.73,1.37l1.329-.754.838,1.48-1.343.759a12.188,12.188,0,0,1,1.058,2.952l-1.976,1.121c-.45-.981-1.321-2.686-1.757-3.451-.5-.9-.822-1.3-1.675-.822l-.384.216c-.669.378-.778.822-.312,1.628l.7,1.247c1.3,2.3-.307,3.837-1.551,4.549l-.647.365c-2.636,1.494-4.111.274-5-1.274l-1.269.721-.822-1.48,1.288-.729a9.234,9.234,0,0,1-1.069-2.987l1.965-1.113c.3.644,1.063,2.228,1.88,3.667.373.658.822,1.1,1.494.718l.45-.255c.548-.315.792-.677.359-1.442l-.68-1.2a3.23,3.23,0,0,1,1.433-4.758Z" transform="translate(-1232.853 -1002.356)"/><path class="aj" d="M1323.887,988l-3.739-6.6-6.049,3.429a6.052,6.052,0,0,0,9.787,3.171Z" transform="translate(-1234.487 -920.25)"/><path class="aj" d="M1432.493,1170.643l-3.714-6.553a6.165,6.165,0,0,0-1.031.463,6.055,6.055,0,0,0-1.321,9.524Z" transform="translate(-1314.76 -1052.87)"/><path class="aj" d="M1224.563,1042.163a6.051,6.051,0,0,0,3.6-10.313L1221,1035.9Z" transform="translate(-1166.903 -956.873)"/><path class="aj" d="M1335.886,1226.332a6.141,6.141,0,0,0-.6-1.48,6.054,6.054,0,0,0-10.088-.682l3.525,6.219Z" transform="translate(-1242.545 -1094.748)"/><path class="aj" d="M1292.042,1040.919a3.875,3.875,0,1,0-2.947.365A3.878,3.878,0,0,0,1292.042,1040.919Z" transform="translate(-1214.271 -958.192)"/><path class="aj" d="M1369.568,1177.786a3.878,3.878,0,1,0-5.284-1.463A3.878,3.878,0,0,0,1369.568,1177.786Z" transform="translate(-1270.55 -1057.547)"/><path class="ai" d="M1318.593,1019.124l-17.653-10.157-2.922.99c-.573,9.3-9.017,8.743-10.415,8.584s-.773-3.6-.773-3.6l3.969-13.851,14.613-4.64c3.771.724,22.748,8.343,22.748,8.343Z" transform="translate(-1214.591 -931.175)"/><path class="ai" d="M1233.276,1102.877a4.611,4.611,0,0,1-6.074-2.275h0a4.6,4.6,0,0,1,1.565-6.3l6.893-3.648a4.589,4.589,0,0,1,6.071,2.272h0a4.625,4.625,0,0,1-1.565,6.317Z" transform="translate(-1170.957 -999.23)"/><path class="ai" d="M1249.444,1132.394a4.879,4.879,0,0,1-6.627-1.979h0a4.917,4.917,0,0,1,2.118-6.608l7.894-4.18a4.884,4.884,0,0,1,6.63,1.984h0a4.914,4.914,0,0,1-2.116,6.6Z" transform="translate(-1182.348 -1020.166)"/><path class="ai" d="M1267.712,1164.979a4.659,4.659,0,0,1-6.213-2.192h0a4.7,4.7,0,0,1,1.7-6.389l7.145-3.779a4.664,4.664,0,0,1,6.216,2.193h0a4.692,4.692,0,0,1-1.707,6.388Z" transform="translate(-1195.869 -1044.192)"/><path class="ai" d="M1289.7,1196.36c-1.809.956-4.215-.047-5.369-2.245h0c-1.148-2.193-.617-4.752,1.195-5.709l5.923-3.13c1.806-.959,4.213.044,5.364,2.237h0c1.154,2.192.62,4.755-1.192,5.712Z" transform="translate(-1212.44 -1067.985)"/></g></g></g></svg>