<svg xmlns="http://www.w3.org/2000/svg" xmlns:xlink="http://www.w3.org/1999/xlink" width="42" height="46" viewBox="0 0 42 46"><defs><style>.a{fill:#a7b4cb;}.b{fill:rgba(167,180,203,0.1);}.c{opacity:0.3;clip-path:url(#a);}</style><clipPath id="a"><path class="a" d="M39.978,38.962l-1-4a5.808,5.808,0,0,0-3.808-4.131l-7.333-2.443c-1.788-.745-2.606-3.625-2.783-4.718a6.929,6.929,0,0,0,2.45-4.5,1.359,1.359,0,0,1,.2-.858.833.833,0,0,0,.572-.5,12.456,12.456,0,0,0,.893-3.641.8.8,0,0,0-.025-.2,2.143,2.143,0,0,0-.808-1.213V8.333c0-2.685-.82-3.786-1.683-4.425C26.49,2.615,25.1,0,20.005,0a8.689,8.689,0,0,0-8.333,8.333v4.418a2.143,2.143,0,0,0-.808,1.213.8.8,0,0,0-.025.2,12.456,12.456,0,0,0,.893,3.643.708.708,0,0,0,.5.478c.093.047.268.288.268.878a6.928,6.928,0,0,0,2.463,4.513c-.175,1.092-.988,3.97-2.726,4.7l-7.4,2.456a5.808,5.808,0,0,0-3.806,4.128l-1,4A.833.833,0,0,0,.84,40H39.17a.833.833,0,0,0,.808-1.035Z" transform="translate(1724.995 25.003)"/></clipPath></defs><rect class="b" width="42" height="42" rx="8"/><g class="c" transform="translate(-1724 -19)"><rect class="a" width="42" height="42" rx="8" transform="translate(1724 19)"/></g></svg>