<svg xmlns="http://www.w3.org/2000/svg" xmlns:xlink="http://www.w3.org/1999/xlink" width="42" height="43.217" viewBox="0 0 42 43.217"><defs><style>.a{fill:rgba(113,124,142,0.3);}.b{fill:rgba(113,124,142,0.1);}.c{clip-path:url(#a);}</style><clipPath id="a"><path class="a" d="M32.23,28.369a3.127,3.127,0,0,0-2.561-2.664l-6.114-2.037c-1.491-.621-2.173-3.022-2.32-3.934a5.777,5.777,0,0,0,2.043-3.756,1.133,1.133,0,0,1,.168-.716.7.7,0,0,0,.477-.417,10.385,10.385,0,0,0,.745-3.036.668.668,0,0,0-.021-.168,1.787,1.787,0,0,0-.674-1.012V6.947c0-2.238-.684-3.157-1.4-3.689C22.431,2.18,21.276,0,17.025,0a7.245,7.245,0,0,0-6.947,6.947v3.684A1.787,1.787,0,0,0,9.4,11.643a.668.668,0,0,0-.021.168,10.386,10.386,0,0,0,.745,3.037.591.591,0,0,0,.417.4c.078.039.224.24.224.732a5.776,5.776,0,0,0,2.054,3.763c-.146.91-.824,3.31-2.273,3.916L4.38,25.706C2.8,26.231,2.471,26.981,2.075,28.6c3.056,2.215,4.461,6.868,15.43,7.064C29.243,35.732,30.015,30.367,32.23,28.369Z" transform="translate(306.848 856.555)"/></clipPath></defs><g transform="translate(-275 -849)"><g transform="translate(-1993 -1022)"><rect class="b" width="42" height="42" rx="21" transform="translate(2268 1871)"/></g><g class="c" transform="translate(-28)"><g transform="translate(-1965 -1022)"><rect class="a" width="42" height="42" rx="21" transform="translate(2268 1871)"/></g></g></g></svg>