<svg xmlns="http://www.w3.org/2000/svg" width="20" height="20" viewBox="0 0 20 20"><defs><style>.a{fill:#a7b4cb;opacity:0.6;}.b{fill:#16161f;}</style></defs><g transform="translate(-5 -5)"><path class="a" d="M3.141,19.861A3.211,3.211,0,0,1,.209,16.852C.1,15.343,0,13.118,0,10S.1,4.657.209,3.148A3.211,3.211,0,0,1,3.141.139C3.978.06,4.959,0,6,0S8.022.06,8.859.139a3.211,3.211,0,0,1,2.932,3.009C11.9,4.657,12,6.882,12,10s-.1,5.343-.209,6.852a3.211,3.211,0,0,1-2.932,3.009C8.022,19.94,7.041,20,6,20S3.978,19.94,3.141,19.861Z" transform="translate(17 25) rotate(180)"/><path class="b" d="M5.207,7.293A1,1,0,0,1,3.793,8.707l-3.5-3.5a1,1,0,0,1,0-1.414l3.5-3.5A1,1,0,0,1,5.207,1.707L3.414,3.5H13a1,1,0,0,1,0,2H3.414Z" transform="translate(25 19.5) rotate(180)"/></g></svg>