<svg xmlns="http://www.w3.org/2000/svg" width="17.9" height="17.9" viewBox="0 0 17.9 17.9"><defs><style>.a{fill:rgba(167,180,203,0.6);}.b{fill:#0f171e;}</style></defs><path class="a" d="M12.1,17.746A2.383,2.383,0,0,1,10.053,15.7,14.138,14.138,0,0,1,9.9,13.9a14.151,14.151,0,0,1,.153-1.8A2.385,2.385,0,0,1,12.1,10.052,14.331,14.331,0,0,1,13.9,9.9a14.317,14.317,0,0,1,1.8.153A2.385,2.385,0,0,1,17.746,12.1a14.151,14.151,0,0,1,.153,1.8,14.138,14.138,0,0,1-.153,1.8A2.383,2.383,0,0,1,15.7,17.746a14.151,14.151,0,0,1-1.8.153A14.164,14.164,0,0,1,12.1,17.746Zm-9.9,0A2.383,2.383,0,0,1,.153,15.7,14.138,14.138,0,0,1,0,13.9a14.151,14.151,0,0,1,.153-1.8A2.385,2.385,0,0,1,2.2,10.052,14.3,14.3,0,0,1,4,9.9a14.317,14.317,0,0,1,1.8.153A2.387,2.387,0,0,1,7.847,12.1,14.308,14.308,0,0,1,8,13.9a14.294,14.294,0,0,1-.152,1.8A2.385,2.385,0,0,1,5.8,17.746,14.151,14.151,0,0,1,4,17.9,14.138,14.138,0,0,1,2.2,17.746Zm9.9-9.9A2.385,2.385,0,0,1,10.053,5.8,14.151,14.151,0,0,1,9.9,4a14.138,14.138,0,0,1,.153-1.8A2.383,2.383,0,0,1,12.1.153,14.165,14.165,0,0,1,13.9,0a14.151,14.151,0,0,1,1.8.153A2.383,2.383,0,0,1,17.746,2.2,14.138,14.138,0,0,1,17.9,4a14.151,14.151,0,0,1-.153,1.8A2.385,2.385,0,0,1,15.7,7.847,14.308,14.308,0,0,1,13.9,8,14.321,14.321,0,0,1,12.1,7.847Z" transform="translate(0 0)"/><path class="b" d="M.153,2.2A2.385,2.385,0,0,1,2.2.153,14.3,14.3,0,0,1,4,0,14.3,14.3,0,0,1,5.8.153,2.385,2.385,0,0,1,7.847,2.2,14.29,14.29,0,0,1,8,4a14.29,14.29,0,0,1-.153,1.8A2.385,2.385,0,0,1,5.8,7.847,14.29,14.29,0,0,1,4,8a14.29,14.29,0,0,1-1.8-.153A2.385,2.385,0,0,1,.153,5.8,14.3,14.3,0,0,1,0,4,14.3,14.3,0,0,1,.153,2.2Z"/></svg>