<svg xmlns="http://www.w3.org/2000/svg" xmlns:xlink="http://www.w3.org/1999/xlink" width="18" height="18" viewBox="0 0 18 18"><defs><style>.a,.b{fill:none;}.a,.c{clip-rule:evenodd;}.c,.d{fill:#0f171e;}.e{clip-path:url(#a);}.f{clip-path:url(#b);}.g{fill:rgba(167,180,202,0.6);}.h{clip-path:url(#c);}.i{clip-path:url(#d);}</style><clipPath id="a"><path class="a" d="M14-25a1.8,1.8,0,0,0-1.8,1.8.3.3,0,0,1-.219.287,7.144,7.144,0,0,0-1.441.6.3.3,0,0,1-.359-.048,1.8,1.8,0,0,0-2.545,0,1.8,1.8,0,0,0,0,2.546.3.3,0,0,1,.048.358,7.131,7.131,0,0,0-.6,1.441A.3.3,0,0,1,6.8-17.8,1.8,1.8,0,0,0,5-16a1.8,1.8,0,0,0,1.8,1.8.3.3,0,0,1,.287.219,7.116,7.116,0,0,0,.6,1.441.3.3,0,0,1-.048.359,1.8,1.8,0,0,0,0,2.545,1.8,1.8,0,0,0,2.545,0,.3.3,0,0,1,.359-.049,7.067,7.067,0,0,0,1.441.6A.3.3,0,0,1,12.2-8.8,1.8,1.8,0,0,0,14-7a1.8,1.8,0,0,0,1.8-1.8.3.3,0,0,1,.219-.287,7.119,7.119,0,0,0,1.441-.6.3.3,0,0,1,.359.049,1.8,1.8,0,0,0,2.545,0,1.8,1.8,0,0,0,0-2.545.3.3,0,0,1-.049-.359,7.119,7.119,0,0,0,.6-1.441A.3.3,0,0,1,21.2-14.2,1.8,1.8,0,0,0,23-16a1.8,1.8,0,0,0-1.8-1.8.3.3,0,0,1-.287-.219,7.134,7.134,0,0,0-.6-1.441.3.3,0,0,1,.049-.358,1.8,1.8,0,0,0,0-2.546,1.8,1.8,0,0,0-2.545,0,.3.3,0,0,1-.359.048,7.144,7.144,0,0,0-1.441-.6A.3.3,0,0,1,15.8-23.2,1.8,1.8,0,0,0,14-25Zm0,11.7A2.7,2.7,0,0,0,16.7-16,2.7,2.7,0,0,0,14-18.7,2.7,2.7,0,0,0,11.3-16,2.7,2.7,0,0,0,14-13.3Z" transform="translate(-5 25)"/></clipPath><clipPath id="b"><path class="b" d="M-1245,1588.5H482.991V-162H-1245Z" transform="translate(1245 162)"/></clipPath><clipPath id="c"><path class="c" d="M15-13a2,2,0,0,0,2-2,2,2,0,0,0-2-2,2,2,0,0,0-2,2A2,2,0,0,0,15-13Zm0,2a4,4,0,0,0,4-4,4,4,0,0,0-4-4,4,4,0,0,0-4,4A4,4,0,0,0,15-11Z" transform="translate(-11 19)"/></clipPath><clipPath id="d"><path class="d" d="M-1245,1783H675V-162H-1245Z" transform="translate(1245 162)"/></clipPath></defs><g transform="translate(-5 25)"><g class="e" transform="translate(5 -25)"><g class="f" transform="translate(-1124.994 -123.3)"><path class="g" d="M0-30H27V-3H0Z" transform="translate(1120.494 148.8)"/></g></g><g class="h" transform="translate(10 -20)"><g class="i" transform="translate(-1256 -143)"><path class="d" d="M6-24H24V-6H6Z" transform="translate(1245 162)"/></g></g></g></svg>