<svg xmlns="http://www.w3.org/2000/svg" width="17.902" height="21.93" viewBox="0 0 17.902 21.93"><defs><style>.a{fill:#16161f;}.b{fill:#a7b4cb;opacity:0.6;}</style></defs><g transform="translate(-6 -4)"><g transform="translate(6 4)"><path class="a" d="M9.914,4.993A4.957,4.957,0,1,1,4.957,0,4.975,4.975,0,0,1,9.914,4.993Z" transform="translate(3.994)"/><path class="b" d="M15.732.552a1.984,1.984,0,0,0-2.49-.224,8.883,8.883,0,0,1-4.291,1.1A8.883,8.883,0,0,1,4.66.328,1.984,1.984,0,0,0,2.17.552,8.973,8.973,0,0,0,0,6.419v1a1.993,1.993,0,0,0,1.989,2H15.913a1.993,1.993,0,0,0,1.989-2v-1A8.973,8.973,0,0,0,15.732.552Z" transform="translate(0 12.515)"/></g></g></svg>