<svg xmlns="http://www.w3.org/2000/svg" width="48" height="48" viewBox="0 0 48 48"><defs><style>.a{fill:rgba(60,156,222,0.1);}.b{fill:#3c9cde;}.c{fill:rgba(60,156,222,0.4);}</style></defs><g transform="translate(-7519 -10238)"><rect class="a" width="48" height="48" rx="10" transform="translate(7519 10238)"/><g transform="translate(7531.574 10250.632)"><path class="b" d="M9.143.006a1.051,1.051,0,0,1,1.14,1.08V19.368a1.049,1.049,0,0,1-1.14,1.079,10.284,10.284,0,0,1,0-20.44Z" transform="translate(0 2.284)"/><path class="c" d="M1.14,20.446A1.051,1.051,0,0,1,0,19.367V1.085A1.049,1.049,0,0,1,1.14.006,10.273,10.273,0,0,1,3.935.725,10.277,10.277,0,0,1,7.272,2.954,10.277,10.277,0,0,1,9.5,6.291a10.289,10.289,0,0,1,.783,3.935A10.289,10.289,0,0,1,9.5,14.161,10.277,10.277,0,0,1,7.272,17.5a10.277,10.277,0,0,1-3.336,2.229A10.316,10.316,0,0,1,1.14,20.446Z" transform="translate(12.569 0)"/></g></g></svg>