<svg xmlns="http://www.w3.org/2000/svg" width="48" height="48" viewBox="0 0 48 48"><defs><style>.a{fill:rgba(60,156,222,0.1);}.b{fill:rgba(60,156,222,0.4);}.c{fill:#3c9cde;}</style></defs><g transform="translate(-7519 -10238)"><rect class="a" width="48" height="48" rx="10" transform="translate(7519 10238)"/><g transform="translate(7527.174 10246.506)"><g transform="translate(4 6)"><path class="b" d="M0,2.332A2.332,2.332,0,0,1,2.332,0h11.66a2.332,2.332,0,0,1,2.332,2.332v5.83A8.162,8.162,0,0,1,0,8.162Z" transform="translate(4.664)"/><path class="c" d="M3.5,0A3.5,3.5,0,0,0,0,3.5V4.664A4.664,4.664,0,0,0,4.664,9.328H5.83A1.166,1.166,0,1,0,5.83,7H4.664A2.332,2.332,0,0,1,2.332,4.664V3.5A1.166,1.166,0,0,1,3.5,2.332H5.83A1.166,1.166,0,1,0,5.83,0Z" transform="translate(0 2.332)"/><path class="c" d="M3.5,0A3.5,3.5,0,0,1,7,3.5V4.664A4.664,4.664,0,0,1,2.332,9.328H1.166A1.166,1.166,0,1,1,1.166,7H2.332A2.332,2.332,0,0,0,4.664,4.664V3.5A1.166,1.166,0,0,0,3.5,2.332H1.166A1.166,1.166,0,0,1,1.166,0Z" transform="translate(18.656 2.332)"/><path class="c" d="M4.664,0A1.166,1.166,0,0,0,3.5,1.166v3.5H1.166A1.166,1.166,0,0,0,1.166,7h7a1.166,1.166,0,1,0,0-2.332H5.83v-3.5A1.166,1.166,0,0,0,4.664,0Z" transform="translate(8.162 13.992)"/></g></g></g></svg>