<svg xmlns="http://www.w3.org/2000/svg" width="48" height="48" viewBox="0 0 48 48"><defs><style>.a{fill:rgba(60,156,222,0.1);}.b{fill:rgba(60,156,222,0.4);}.c{fill:#3c9cde;}</style></defs><g transform="translate(-1280 -217)"><rect class="a" width="48" height="48" rx="10" transform="translate(1280 217)"/><g transform="translate(1293.201 227.962)"><path class="b" d="M14.4,0h5.923a1.288,1.288,0,0,1,.9,2.189L16.851,6.18ZM.369,2.189A1.288,1.288,0,0,1,1.269,0H7.194L4.746,6.18Z" transform="translate(0 6.778)"/><path class="c" d="M10.3.726a1.288,1.288,0,0,0-2.318,0L.127,20.3a1.288,1.288,0,0,0,1.8,1.674l6.7-3.348h1.03l6.7,3.348a1.288,1.288,0,0,0,1.8-1.674Z" transform="translate(1.658)"/></g></g></svg>