<svg xmlns="http://www.w3.org/2000/svg" xmlns:xlink="http://www.w3.org/1999/xlink" width="48" height="48" viewBox="0 0 48 48"><defs><style>.a,.b{fill:rgba(60,156,222,0.6);}.a,.c,.e{clip-rule:evenodd;}.c,.d{fill:#3c9cde;}.e,.f{fill:rgba(60,156,222,0.3);}.g{fill:rgba(60,156,222,0.1);}.h{clip-path:url(#a);}.i{clip-path:url(#b);}.j{clip-path:url(#c);}.k{clip-path:url(#d);}.l{clip-path:url(#e);}.m{clip-path:url(#f);}</style><clipPath id="a"><path class="a" d="M791.053-372.158a1.105,1.105,0,0,1,1.105-1.105,1.105,1.105,0,0,1,1.105,1.105v24.316a1.105,1.105,0,0,1-1.105,1.105,1.105,1.105,0,0,1-1.105-1.105Z"/></clipPath><clipPath id="b"><path class="b" d="M-250,0H1190V-1024H-250Z"/></clipPath><clipPath id="c"><path class="c" d="M799.895-367.737A1.105,1.105,0,0,1,801-368.842h7.054a1.105,1.105,0,0,1,.989,1.6l-2.269,4.538a1.1,1.1,0,0,0,0,.988l2.269,4.538a1.105,1.105,0,0,1-.989,1.6h-5.948a2.211,2.211,0,0,1-2.211-2.211Z"/></clipPath><clipPath id="d"><path class="d" d="M-250,0H1190V-1024H-250Z"/></clipPath><clipPath id="e"><path class="e" d="M793.263-371.053h6.632a2.211,2.211,0,0,1,2.211,2.211v9.947A1.105,1.105,0,0,1,801-357.789h-7.737Z"/></clipPath><clipPath id="f"><path class="f" d="M-250,0H1190V-1024H-250Z"/></clipPath></defs><g transform="translate(-7519 -10237)"><rect class="g" width="48" height="48" rx="10" transform="translate(7519 10237)"/><g transform="translate(6736 9954)"><g class="h" transform="translate(10 667)"><g class="i"><path class="b" d="M786.053-378.263h12.211v36.526H786.053Z"/></g></g><g class="j" transform="translate(10 667)"><g class="k"><path class="d" d="M794.895-373.842H814.16v23.263H794.895Z"/></g></g><g class="l" transform="translate(10 667)"><g class="m"><path class="f" d="M788.263-376.053h18.842v23.263H788.263Z"/></g></g></g></g></svg>