<svg xmlns="http://www.w3.org/2000/svg" width="48" height="48" viewBox="0 0 48 48"><defs><style>.a{fill:rgba(60,156,222,0.1);}.b{fill:rgba(60,156,222,0.3);opacity:0.6;}.c{fill:#3c9cde;}</style></defs><g transform="translate(-1010 -217)"><rect class="a" width="48" height="48" rx="10" transform="translate(1010 217)"/><g transform="translate(1022 229)"><path class="b" d="M12.254,23.986a12.131,12.131,0,0,1-5.489-1.295,1.859,1.859,0,0,1-1.027-1.4,2.313,2.313,0,0,1,.676-1.989l.115-.114a2.7,2.7,0,0,1,1.967-.75,4.1,4.1,0,0,1,1.334.234,7.392,7.392,0,0,0,4.85,0,4.093,4.093,0,0,1,1.333-.234,2.707,2.707,0,0,1,1.968.75l.114.114a2.313,2.313,0,0,1,.676,1.989,1.86,1.86,0,0,1-1.027,1.4A12.129,12.129,0,0,1,12.254,23.986ZM3.027,18.275h0a1.9,1.9,0,0,1-1.732-1.054A12.261,12.261,0,0,1,8.386.1,1.941,1.941,0,0,1,9,0a2.148,2.148,0,0,1,2.029,2.246v.162a3.2,3.2,0,0,1-1.971,2.7A7.362,7.362,0,0,0,5.31,14.157a3.189,3.189,0,0,1-.516,3.3l-.114.115A2.364,2.364,0,0,1,3.027,18.275Z" transform="translate(0 0)"/><path class="c" d="M0,2.408a3.173,3.173,0,0,0,1.97,2.7,7.352,7.352,0,0,1,4.157,6.623,7.346,7.346,0,0,1-.409,2.425,3.168,3.168,0,0,0,.516,3.3l.114.114a2.085,2.085,0,0,0,3.386-.352,12.206,12.206,0,0,0,1.295-5.488A12.26,12.26,0,0,0,2.642.1,2.084,2.084,0,0,0,0,2.246Z" transform="translate(13.479 0)"/></g></g></svg>