<svg xmlns="http://www.w3.org/2000/svg" width="48" height="48" viewBox="0 0 48 48"><defs><style>.a{fill:rgba(60,156,222,0.1);}.b{fill:rgba(60,156,222,0.3);}.c{fill:#3c9cde;}</style></defs><g transform="translate(-7519 -10237)"><rect class="a" width="48" height="48" rx="10" transform="translate(7519 10237)"/><g transform="translate(7523.106 10241.063)"><g transform="translate(6 4.381)"><path class="b" d="M0,4.4A4.395,4.395,0,0,1,6.708.665L24.726,11.819a4.395,4.395,0,0,1,0,7.473L6.708,30.447A4.395,4.395,0,0,1,0,26.71Z" transform="translate(0 0)"/><path class="c" d="M0,1.467A1.66,1.66,0,0,1,2.521.225l8.424,4.681a1.384,1.384,0,0,1,0,2.484L2.521,12.072A1.66,1.66,0,0,1,0,10.83Z" transform="translate(6.025 9.408)"/></g></g></g></svg>