<svg xmlns="http://www.w3.org/2000/svg" xmlns:xlink="http://www.w3.org/1999/xlink" width="77.211" height="14.812" viewBox="0 0 77.211 14.812"><defs><style>.a,.c{fill:#717c8e;}.b{clip-path:url(#a);}.c{fill-rule:evenodd;}</style><clipPath id="a"><rect class="a" width="77.211" height="14.812"/></clipPath></defs><g class="b"><path class="c" d="M39.353,23.748A18.689,18.689,0,0,1,28.8,26.974a19.1,19.1,0,0,1-12.89-4.917c-.267-.241-.029-.571.292-.384a25.945,25.945,0,0,0,12.9,3.422,25.66,25.66,0,0,0,9.838-2.013C39.421,22.877,39.826,23.4,39.353,23.748Z" transform="translate(-8.886 -12.162)"/><path class="c" d="M67.777,21.732c-.365-.467-2.412-.221-3.332-.111-.279.034-.322-.21-.071-.386,1.633-1.147,4.31-.816,4.621-.432s-.083,3.071-1.613,4.351c-.236.2-.46.092-.355-.168C67.372,24.126,68.142,22.2,67.777,21.732Z" transform="translate(-36.123 -11.501)"/><path class="c" d="M64.531,1.927V.813A.275.275,0,0,1,64.813.53h5A.278.278,0,0,1,70.1.811v.956a1.572,1.572,0,0,1-.376.7l-2.588,3.7a5.547,5.547,0,0,1,2.85.612.51.51,0,0,1,.265.435V8.4c0,.164-.179.353-.368.255a5.754,5.754,0,0,0-5.279.01c-.174.093-.355-.094-.355-.259V7.276a1.345,1.345,0,0,1,.186-.766l3-4.3H64.819A.278.278,0,0,1,64.531,1.927Z" transform="translate(-36.144 -0.298)"/><path class="c" d="M20.928,8.7h-1.52a.286.286,0,0,1-.272-.257V.646a.286.286,0,0,1,.294-.28h1.415a.286.286,0,0,1,.276.262V1.646h.029a2.088,2.088,0,0,1,3.973,0,2.244,2.244,0,0,1,3.859-.591A4.141,4.141,0,0,1,29.366,3.5l0,4.923a.286.286,0,0,1-.293.28H27.554a.285.285,0,0,1-.273-.28V4.289a9.932,9.932,0,0,0-.043-1.461.792.792,0,0,0-.893-.674,1.008,1.008,0,0,0-.909.64,4.719,4.719,0,0,0-.142,1.494V8.424A.287.287,0,0,1,25,8.7H23.483a.285.285,0,0,1-.273-.28l0-4.136c0-.87.142-2.15-.936-2.15s-1.05,1.247-1.05,2.15V8.424A.287.287,0,0,1,20.928,8.7Z" transform="translate(-10.766 -0.113)"/><path class="c" d="M83.072,1.794c-1.121,0-1.192,1.526-1.192,2.478S81.867,7.26,83.059,7.26s1.234-1.642,1.234-2.643a7.221,7.221,0,0,0-.227-2.069A.951.951,0,0,0,83.072,1.794ZM83.059.2c2.256,0,3.476,1.938,3.476,4.4,0,2.38-1.348,4.268-3.476,4.268-2.214,0-3.42-1.937-3.42-4.35C79.639,2.089,80.859.2,83.059.2Z" transform="translate(-44.804 -0.113)"/><path class="c" d="M99.79,8.7H98.275A.285.285,0,0,1,98,8.424l0-7.8a.288.288,0,0,1,.292-.255H99.7a.289.289,0,0,1,.27.218V1.777H100A2.067,2.067,0,0,1,102.072.2a1.993,1.993,0,0,1,1.774.919,4.964,4.964,0,0,1,.4,2.429V8.459a.288.288,0,0,1-.291.245h-1.524a.287.287,0,0,1-.271-.245V4.223c0-.854.1-2.1-.951-2.1a1,1,0,0,0-.88.624,3.467,3.467,0,0,0-.241,1.478v4.2A.291.291,0,0,1,99.79,8.7Z" transform="translate(-55.133 -0.113)"/><path class="c" d="M51.563,8.589a.314.314,0,0,1-.359.035,3.705,3.705,0,0,1-.871-1.013,3.012,3.012,0,0,1-2.506,1.1,2.157,2.157,0,0,1-2.275-2.369,2.582,2.582,0,0,1,1.621-2.484,10.5,10.5,0,0,1,2.858-.527v-.2a1.944,1.944,0,0,0-.185-1.1,1.015,1.015,0,0,0-.853-.395,1.157,1.157,0,0,0-1.222.912.322.322,0,0,1-.264.28l-1.474-.16a.269.269,0,0,1-.227-.318C46.142.594,47.715.045,49.146.03h.113A3.418,3.418,0,0,1,51.5.786c.74.691.668,1.612.668,2.616V5.77a2.075,2.075,0,0,0,.574,1.408.286.286,0,0,1,0,.4c-.311.26-.862.739-1.165,1.01ZM50.031,4.883A2.985,2.985,0,0,1,49.747,6.5a1.236,1.236,0,0,1-1.052.691c-.583,0-.924-.444-.924-1.1,0-1.295,1.161-1.53,2.261-1.53Z" transform="translate(-25.627 -0.017)"/><path class="c" d="M6.011,8.589a.315.315,0,0,1-.359.035,3.69,3.69,0,0,1-.871-1.013,3.013,3.013,0,0,1-2.506,1.1A2.157,2.157,0,0,1,0,6.347,2.581,2.581,0,0,1,1.621,3.863a10.5,10.5,0,0,1,2.858-.527v-.2a1.944,1.944,0,0,0-.185-1.1,1.015,1.015,0,0,0-.853-.395,1.157,1.157,0,0,0-1.222.912.322.322,0,0,1-.264.28L.482,2.675a.268.268,0,0,1-.227-.318C.589.594,2.163.045,3.594.03h.113A3.418,3.418,0,0,1,5.944.786c.739.691.668,1.612.668,2.616V5.77a2.075,2.075,0,0,0,.574,1.408.287.287,0,0,1,0,.4c-.311.26-.863.739-1.166,1.01ZM4.479,4.883A2.981,2.981,0,0,1,4.194,6.5a1.235,1.235,0,0,1-1.052.691c-.583,0-.924-.444-.924-1.1,0-1.295,1.161-1.53,2.261-1.53Z" transform="translate(0 -0.017)"/><path class="c" d="M159.2,11.707v-.573c0-.163.08-.276.25-.266a3.573,3.573,0,0,0,1.086.024,1.261,1.261,0,0,0,.892-.786c.249-.57.414-1.029.518-1.33L158.78.943c-.053-.133-.069-.38.2-.38h1.105a.345.345,0,0,1,.344.265l2.292,6.363L164.907.828a.344.344,0,0,1,.343-.265h1.042c.264,0,.249.246.2.38L163.352,9.02c-.406,1.075-.947,2.788-2.164,3.085a3.209,3.209,0,0,1-1.833-.087A.357.357,0,0,1,159.2,11.707Z" transform="translate(-89.309 -0.317)"/><path class="c" d="M147.959,8.114a.266.266,0,0,1-.266.265h-.779a.3.3,0,0,1-.3-.265l-.078-.531a4.554,4.554,0,0,1-1.275.755,3.2,3.2,0,0,1-2.869-.135,2.286,2.286,0,0,1-.992-1.977,2.421,2.421,0,0,1,.615-1.682,3.116,3.116,0,0,1,2.375-.91,7.4,7.4,0,0,1,2.076.274V2.841c0-1.086-.457-1.555-1.662-1.555a8.067,8.067,0,0,0-2.607.444.239.239,0,0,1-.249-.26V.861a.378.378,0,0,1,.26-.33A7.858,7.858,0,0,1,144.95,0c1.375,0,3.009.31,3.009,2.425Zm-1.5-1.559V4.944a8.319,8.319,0,0,0-1.724-.2,1.994,1.994,0,0,0-1.412.451,1.332,1.332,0,0,0-.329.913,1.221,1.221,0,0,0,.495,1.071,2.014,2.014,0,0,0,1.613.073A3.526,3.526,0,0,0,146.461,6.555Z" transform="translate(-79.546)"/><path class="c" d="M125.427,1.316c1.73,0,2.2,1.36,2.2,2.917a3.5,3.5,0,0,1-.727,2.522,1.968,1.968,0,0,1-1.545.51,3.751,3.751,0,0,1-2.008-.76V2.053A3.578,3.578,0,0,1,125.427,1.316Zm-2.345,10.36h-1.044a.266.266,0,0,1-.266-.265V.532a.266.266,0,0,1,.266-.265h.8a.3.3,0,0,1,.3.265l.084.57a4.106,4.106,0,0,1,2.63-1.09c2.572,0,3.417,2.119,3.417,4.322,0,2.357-1.293,4.251-3.481,4.251a3.662,3.662,0,0,1-2.445-.93v3.757A.266.266,0,0,1,123.082,11.676Z" transform="translate(-68.507 -0.006)"/></g></svg>