<svg xmlns="http://www.w3.org/2000/svg" width="54.104" height="22.215" viewBox="0 0 54.104 22.215"><defs><style>.a{fill:#717c8e;}</style></defs><path class="a" d="M9.945,2.864A3.324,3.324,0,0,1,7.281,4.122a3.768,3.768,0,0,1,.951-2.758A3.973,3.973,0,0,1,10.875,0a4.013,4.013,0,0,1-.93,2.864m.919,1.458c-1.469-.085-2.727.835-3.424.835S5.664,4.365,4.5,4.386A4.341,4.341,0,0,0,.813,6.626C-.772,9.353.4,13.39,1.934,15.61c.75,1.1,1.649,2.3,2.832,2.262,1.12-.042,1.564-.729,2.917-.729s1.754.729,2.938.708c1.226-.021,2-1.1,2.748-2.2a9.64,9.64,0,0,0,1.226-2.526A3.982,3.982,0,0,1,12.206,9.5,4.066,4.066,0,0,1,14.14,6.1a4.188,4.188,0,0,0-3.276-1.775M19.35,1.258V17.734h2.558V12.1h3.54a5.229,5.229,0,0,0,5.506-5.432,5.168,5.168,0,0,0-5.422-5.411H19.35Zm2.558,2.156h2.949c2.219,0,3.488,1.184,3.488,3.266s-1.268,3.276-3.5,3.276H21.908ZM35.626,17.861a4.231,4.231,0,0,0,3.773-2.1h.053v1.976h2.367v-8.2c0-2.378-1.9-3.91-4.83-3.91-2.716,0-4.724,1.554-4.8,3.688h2.3a2.245,2.245,0,0,1,2.42-1.68c1.564,0,2.441.729,2.441,2.071v.909l-3.192.19c-2.97.18-4.576,1.4-4.576,3.509C31.589,16.444,33.248,17.861,35.626,17.861Zm.687-1.955c-1.363,0-2.23-.655-2.23-1.659,0-1.036.835-1.638,2.431-1.733l2.843-.18v.93A2.779,2.779,0,0,1,36.313,15.905Zm8.666,6.309c2.494,0,3.667-.951,4.692-3.836l4.492-12.6h-2.6l-3.012,9.734H48.5L45.486,5.781H42.812l4.333,12-.233.729a2.033,2.033,0,0,1-2.156,1.712c-.2,0-.592-.021-.75-.042v1.976A7.045,7.045,0,0,0,44.979,22.215Z" transform="translate(-0.059)"/></svg>