<svg xmlns="http://www.w3.org/2000/svg" width="50.959" height="31.6" viewBox="0 0 50.959 31.6"><defs><style>.a,.b{fill:#717c8e;}.b{opacity:0.3;}</style></defs><g transform="translate(-244.233 -7435.653)"><g transform="translate(244.233 7435.653)"><path class="a" d="M82.213,64.4H66.444L64.83,66.215l-5.2,5.868h0L58.014,73.9H42.446l1.573-1.835.746-.867,1.573-1.835H39.18A2.423,2.423,0,0,0,36.8,71.8h0v5.162a2.41,2.41,0,0,0,2.38,2.44H66.645a6.074,6.074,0,0,0,3.973-1.815l4.154-4.719Z" transform="translate(-36.8 -58.875)"/><path class="b" d="M107.334,37.02a2.423,2.423,0,0,1,2.38,2.44v5.162a2.41,2.41,0,0,1-2.38,2.44h-7.159l1.593-1.815h0l.786-.907,1.593-1.815H88.378L79.969,52H64.3L75.532,39.3l.423-.484A6.167,6.167,0,0,1,79.949,37h27.385Z" transform="translate(-58.754 -37)"/></g><path class="a" d="M87.759,164.218v-.746c0-.1-.06-.161-.2-.161h-.484c-.141,0-.242-.02-.262-.081a.85.85,0,0,1-.04-.383v-2.823h.786a.207.207,0,0,0,.2-.2v-.786a.207.207,0,0,0-.2-.2h-.786v-1.028a.171.171,0,0,0-.04-.121.287.287,0,0,0-.121-.04h-.02l-1.17.2a.982.982,0,0,0-.141.061.174.174,0,0,0-.06.121v.786h-.786a.207.207,0,0,0-.2.2v.645a.122.122,0,0,0,.06.121.325.325,0,0,0,.141.081l.786.121v2.823a3.243,3.243,0,0,0,.1.847,1.34,1.34,0,0,0,.3.5,1.072,1.072,0,0,0,.5.242,3.684,3.684,0,0,0,.706.06,2.317,2.317,0,0,0,.383-.02c.1-.02.242-.04.383-.061a.148.148,0,0,0,.161-.161m-4.194-.1v-.867a.122.122,0,0,0-.06-.121.286.286,0,0,0-.121-.04h-.02a4.967,4.967,0,0,1-.524.04,6.1,6.1,0,0,1-.665.02.737.737,0,0,1-.3-.06.767.767,0,0,1-.262-.181.776.776,0,0,1-.161-.343,2.029,2.029,0,0,1-.061-.544v-.807a2.029,2.029,0,0,1,.061-.544,1.087,1.087,0,0,1,.161-.343.768.768,0,0,1,.262-.181.81.81,0,0,1,.3-.061,6.086,6.086,0,0,1,.665.02c.161.02.343.02.524.04h.02a.171.171,0,0,0,.121-.04.122.122,0,0,0,.06-.121v-.867a.193.193,0,0,0-.04-.141.591.591,0,0,0-.161-.081c-.141-.04-.3-.06-.524-.1a4.39,4.39,0,0,0-.766-.04,2.22,2.22,0,0,0-1.654.625,2.555,2.555,0,0,0-.625,1.835v.807a2.5,2.5,0,0,0,.625,1.835,2.189,2.189,0,0,0,1.654.625c.282,0,.544-.02.766-.04a4.9,4.9,0,0,0,.524-.1.3.3,0,0,0,.161-.081c.04-.02.04-.081.04-.141m-6.312-1.028a2.151,2.151,0,0,1-.383.141,1.535,1.535,0,0,1-.423.06.957.957,0,0,1-.464-.081c-.1-.061-.141-.181-.141-.4v-.081a1.221,1.221,0,0,1,.04-.3.522.522,0,0,1,.141-.222.8.8,0,0,1,.262-.141,2.139,2.139,0,0,1,.423-.04h.544Zm1.533-2.359a2.358,2.358,0,0,0-.161-.907,1.685,1.685,0,0,0-.444-.6,1.652,1.652,0,0,0-.706-.343,3.482,3.482,0,0,0-.948-.121,7.245,7.245,0,0,0-.948.061,4.2,4.2,0,0,0-.726.141c-.121.04-.181.1-.181.222v.786a.292.292,0,0,0,.04.141.287.287,0,0,0,.121.04h.04c.081,0,.181-.02.282-.02.121,0,.242-.02.383-.02s.3-.02.464-.02h.464a.961.961,0,0,1,.524.121.627.627,0,0,1,.2.544v.343h-.524a3.24,3.24,0,0,0-1.815.383,1.408,1.408,0,0,0-.565,1.25v.081a1.771,1.771,0,0,0,.141.786,1.474,1.474,0,0,0,.383.524,1.647,1.647,0,0,0,.524.282,2.128,2.128,0,0,0,.625.081,2.066,2.066,0,0,0,.746-.121,2.943,2.943,0,0,0,.6-.323v.161a.207.207,0,0,0,.2.2H78.6a.207.207,0,0,0,.2-.2V160.73ZM73.6,164.218v-.746c0-.1-.061-.161-.2-.161h-.464c-.141,0-.242-.02-.262-.081a.85.85,0,0,1-.04-.383v-2.823h.786a.207.207,0,0,0,.2-.2v-.786a.207.207,0,0,0-.2-.2h-.786v-1.028a.171.171,0,0,0-.04-.121.287.287,0,0,0-.121-.04h-.02l-1.17.2a.981.981,0,0,0-.141.061.174.174,0,0,0-.061.121v.786H70.3a.207.207,0,0,0-.2.2v.645a.122.122,0,0,0,.06.121.325.325,0,0,0,.141.081l.786.121v2.823a3.243,3.243,0,0,0,.1.847,1.34,1.34,0,0,0,.3.5.986.986,0,0,0,.5.242,3.684,3.684,0,0,0,.706.06,2.317,2.317,0,0,0,.383-.02c.1-.02.242-.04.383-.061a.144.144,0,0,0,.141-.161m-4.235-.02v-3.227a4.081,4.081,0,0,0-.081-.867,1.971,1.971,0,0,0-.262-.706,1.174,1.174,0,0,0-.524-.464,1.787,1.787,0,0,0-.867-.182,2.64,2.64,0,0,0-.827.121,2.83,2.83,0,0,0-.766.4v-.242a.207.207,0,0,0-.2-.2H64.75a.207.207,0,0,0-.2.2V164.2a.207.207,0,0,0,.2.2h1.17a.207.207,0,0,0,.2-.2v-3.811a5.159,5.159,0,0,1,.484-.222,1.15,1.15,0,0,1,.444-.081,1.809,1.809,0,0,1,.363.04.424.424,0,0,1,.222.141.589.589,0,0,1,.1.282,2.707,2.707,0,0,1,.02.423V164.2a.207.207,0,0,0,.2.2h1.17a.183.183,0,0,0,.141-.061.16.16,0,0,0,.1-.141m-7.34-2.238c0,.786-.282,1.19-.867,1.19a.742.742,0,0,1-.645-.3,1.555,1.555,0,0,1-.222-.887v-.686a1.51,1.51,0,0,1,.222-.887.742.742,0,0,1,.645-.3c.565,0,.867.4.867,1.19Zm1.573-.686a3.366,3.366,0,0,0-.161-1.049,2.2,2.2,0,0,0-.464-.786,2.033,2.033,0,0,0-.766-.5,3.12,3.12,0,0,0-2.1,0,2.033,2.033,0,0,0-.766.5,2.2,2.2,0,0,0-.464.786,3.367,3.367,0,0,0-.161,1.049v.686a3.367,3.367,0,0,0,.161,1.049,2.2,2.2,0,0,0,.464.786,2.034,2.034,0,0,0,.766.5,3.12,3.12,0,0,0,2.1,0,2.033,2.033,0,0,0,.766-.5,2.2,2.2,0,0,0,.464-.786,3.366,3.366,0,0,0,.161-1.049Zm-5.4,2.843v-.867a.122.122,0,0,0-.06-.121.291.291,0,0,0-.141-.04h-.02a4.967,4.967,0,0,1-.524.04c-.161,0-.383.02-.665.02a.737.737,0,0,1-.3-.06.767.767,0,0,1-.262-.181.776.776,0,0,1-.161-.343,2.029,2.029,0,0,1-.06-.544v-.807a2.03,2.03,0,0,1,.06-.544,1.087,1.087,0,0,1,.161-.343.768.768,0,0,1,.262-.181.81.81,0,0,1,.3-.061,6.087,6.087,0,0,1,.665.02c.161.02.343.02.524.04h.02a.292.292,0,0,0,.141-.04.122.122,0,0,0,.06-.121v-.867a.193.193,0,0,0-.04-.141.591.591,0,0,0-.161-.081c-.141-.04-.3-.06-.524-.1a4.39,4.39,0,0,0-.766-.04,2.22,2.22,0,0,0-1.654.625,2.555,2.555,0,0,0-.625,1.835v.807a2.5,2.5,0,0,0,.625,1.835,2.189,2.189,0,0,0,1.654.625c.282,0,.544-.02.766-.04.222-.04.383-.061.524-.1a.3.3,0,0,0,.161-.081c.04-.02.04-.081.04-.141m-4.759.081v-3.227a4.082,4.082,0,0,0-.081-.867,1.971,1.971,0,0,0-.262-.706,1.174,1.174,0,0,0-.524-.464,1.787,1.787,0,0,0-.867-.182,2.64,2.64,0,0,0-.827.121,2.83,2.83,0,0,0-.766.4v-.242a.207.207,0,0,0-.2-.2H48.819a.207.207,0,0,0-.2.2V164.2a.207.207,0,0,0,.2.2h1.17a.207.207,0,0,0,.2-.2v-3.811a5.159,5.159,0,0,1,.484-.222,1.15,1.15,0,0,1,.444-.081,1.809,1.809,0,0,1,.363.04.424.424,0,0,1,.222.141.589.589,0,0,1,.1.282,2.706,2.706,0,0,1,.02.423V164.2a.207.207,0,0,0,.2.2h1.17a.183.183,0,0,0,.141-.061.209.209,0,0,0,.1-.141m-7.5-1.109a2.151,2.151,0,0,1-.383.141,1.535,1.535,0,0,1-.423.06.957.957,0,0,1-.464-.081c-.1-.061-.141-.181-.141-.4v-.081a1.221,1.221,0,0,1,.04-.3.522.522,0,0,1,.141-.222.8.8,0,0,1,.262-.141,2.139,2.139,0,0,1,.423-.04h.544Zm1.553-2.359a2.358,2.358,0,0,0-.161-.907,1.684,1.684,0,0,0-.444-.6,1.652,1.652,0,0,0-.706-.343,3.482,3.482,0,0,0-.948-.121,7.245,7.245,0,0,0-.948.061,4.2,4.2,0,0,0-.726.141c-.121.04-.181.1-.181.222v.786a.292.292,0,0,0,.04.141.287.287,0,0,0,.121.04h.04c.081,0,.181-.02.282-.02.121,0,.242-.02.4-.02.141,0,.3-.02.464-.02h.464a.961.961,0,0,1,.524.121.627.627,0,0,1,.2.544v.343h-.524a3.24,3.24,0,0,0-1.815.383,1.457,1.457,0,0,0-.565,1.25v.081a1.771,1.771,0,0,0,.141.786,1.474,1.474,0,0,0,.383.524,1.647,1.647,0,0,0,.524.282,2.128,2.128,0,0,0,.625.081,2.066,2.066,0,0,0,.746-.121,2.943,2.943,0,0,0,.6-.323v.161a.207.207,0,0,0,.2.2h1.089a.207.207,0,0,0,.2-.2V160.73Zm-6.937,1.533a.768.768,0,0,1-.282.625,1.8,1.8,0,0,1-1.028.222h-.807v-1.815h1.089a1,1,0,0,1,.807.262.973.973,0,0,1,.222.6Zm-.04-2.884a1.557,1.557,0,0,1-.04.3.514.514,0,0,1-.161.242,1.069,1.069,0,0,1-.3.161,1.574,1.574,0,0,1-.484.061H38.433v-1.674h.746a2.16,2.16,0,0,1,1.049.182.637.637,0,0,1,.3.585v.141Zm1.654,2.783a1.512,1.512,0,0,0-.242-.867,1.533,1.533,0,0,0-.625-.565,1.367,1.367,0,0,0,.6-.565,1.768,1.768,0,0,0,.222-.847v-.181a2.019,2.019,0,0,0-.222-.968,1.69,1.69,0,0,0-.625-.625,3.029,3.029,0,0,0-.968-.343,7.849,7.849,0,0,0-1.25-.1h-.484c-.161,0-.323.02-.484.02a3.02,3.02,0,0,0-.444.04c-.141.02-.242.02-.323.04a.685.685,0,0,0-.4.181.674.674,0,0,0-.121.464v5.888a.71.71,0,0,0,.121.464.836.836,0,0,0,.4.181,1.775,1.775,0,0,0,.343.04c.141.02.282.02.444.04.161,0,.323.02.484.02h.5a7.271,7.271,0,0,0,1.19-.1,2.75,2.75,0,0,0,.968-.343,1.911,1.911,0,0,0,.665-.665,2.149,2.149,0,0,0,.242-1.069Z" transform="translate(207.433 7302.772)"/></g></svg>