<svg xmlns="http://www.w3.org/2000/svg" width="67.897" height="29.197" viewBox="0 0 67.897 29.197"><defs><style>.a{fill:#f7f7f4;}.a,.b{fill-rule:evenodd;}.b{fill:#717c8e;}</style></defs><g transform="translate(-17.717 -22.137)"><path class="a" d="M17.717,27.376a5.252,5.252,0,0,1,5.264-5.239H80.35a5.251,5.251,0,0,1,5.264,5.239V46.1a5.251,5.251,0,0,1-5.264,5.237H22.981A5.252,5.252,0,0,1,17.717,46.1V27.376Z" transform="translate(0 0)"/><path class="b" d="M45.9,53.388V71.752A3.283,3.283,0,0,0,49.2,75.026H79.252V50.114H49.2A3.283,3.283,0,0,0,45.9,53.388Zm41.113,9.09c0,1.169-.578,1.973-1.536,1.973a1.721,1.721,0,0,1-1.551-1.874c0-1.1.62-1.916,1.551-1.916A1.624,1.624,0,0,1,87.018,62.478ZM81.4,69.184h2.535V65.2h.028a2.549,2.549,0,0,0,2.326,1.2c2.183,0,3.353-1.8,3.353-3.973,0-1.775-1.113-3.706-3.142-3.706a2.9,2.9,0,0,0-2.734,1.494h-.028V58.886H81.4ZM93.1,63.9c0-.7.675-.971,1.536-.971.38,0,.747.027,1.071.042A1.653,1.653,0,0,1,94.143,64.7C93.551,64.7,93.1,64.409,93.1,63.9Zm5.114,2.325a9.042,9.042,0,0,1-.14-1.733V61.76c0-2.24-1.619-3.044-3.494-3.044a7.578,7.578,0,0,0-2.93.522l.043,1.72a4.755,4.755,0,0,1,2.338-.55c.914,0,1.661.268,1.676,1.269a7.4,7.4,0,0,0-1.184-.1c-1.351,0-3.789.268-3.789,2.508,0,1.593,1.3,2.31,2.747,2.31a2.515,2.515,0,0,0,2.325-1.324h.028c0,.382.041.76.057,1.156Zm1.141,2.959a7.376,7.376,0,0,0,1.578.17c2.325,0,2.874-1.79,3.592-3.636l2.692-6.833H104.68l-1.507,4.79h-.028l-1.578-4.79H98.834l2.972,7.508a1.289,1.289,0,0,1-1.283,1.015,3.047,3.047,0,0,1-1-.155Z" transform="translate(-26.027 -25.833)"/><path class="a" d="M95.142,131.335c0-1,.494-1.832,1.438-1.832a1.605,1.605,0,0,1,1.619,1.733,1.714,1.714,0,0,1-1.619,1.888C95.819,133.123,95.142,132.476,95.142,131.335Zm5.509-3.607h-2.3v1.324h-.027a2.87,2.87,0,0,0-2.495-1.494c-2.282,0-3.311,1.636-3.311,3.819s1.254,3.691,3.267,3.691a2.86,2.86,0,0,0,2.467-1.254h.028v.4c0,1.436-.789,2.127-2.253,2.127a5.046,5.046,0,0,1-2.48-.605l-.127,2a8.522,8.522,0,0,0,2.8.465c2.959,0,4.423-.973,4.423-3.988Zm4.286-3.057H102.4v1.86h2.536Zm-2.535,10.4h2.535v-7.34H102.4Zm9.6-7.425a5.481,5.481,0,0,0-.859-.085,2.265,2.265,0,0,0-2.17,1.523h-.028v-1.352h-2.31v7.34h2.535v-3.1c0-1.438.663-2.3,1.846-2.3a2.961,2.961,0,0,1,.859.083Zm4.366,5.819c-1.169,0-1.648-.972-1.648-2.056s.479-2.071,1.648-2.071,1.649.972,1.649,2.071S117.534,133.462,116.364,133.462Zm0,1.775c2.423,0,4.269-1.408,4.269-3.831s-1.846-3.848-4.269-3.848-4.268,1.409-4.268,3.848S113.941,135.236,116.364,135.236Z" transform="translate(-69.071 -94.675)"/></g></svg>