<svg xmlns="http://www.w3.org/2000/svg" width="55.942" height="22.215" viewBox="0 0 55.942 22.215"><defs><style>.a{fill:#717c8e;}</style></defs><path class="a" d="M192.166,19.562v6.512H190.1V9.993h5.479a4.954,4.954,0,0,1,3.548,1.392,4.475,4.475,0,0,1,1.482,3.394,4.455,4.455,0,0,1-1.482,3.413,4.939,4.939,0,0,1-3.548,1.369h-3.413Zm0-7.589v5.613h3.464a2.781,2.781,0,0,0,2.044-4.762,2.694,2.694,0,0,0-2.044-.853h-3.464Z" transform="translate(-165.709 -8.709)"/><path class="a" d="M276.451,46.78A5.122,5.122,0,0,1,280.067,48a4.34,4.34,0,0,1,1.324,3.357v6.781h-1.976V56.615h-.09a3.946,3.946,0,0,1-3.413,1.886,4.437,4.437,0,0,1-3.042-1.078,3.441,3.441,0,0,1-1.224-2.694,3.268,3.268,0,0,1,1.291-2.716A5.458,5.458,0,0,1,276.383,51a6.1,6.1,0,0,1,3.031.674V51.2a2.352,2.352,0,0,0-.853-1.828,2.925,2.925,0,0,0-1.994-.753,3.162,3.162,0,0,0-2.739,1.46l-1.819-1.146A5.064,5.064,0,0,1,276.451,46.78Zm-2.673,7.994a1.65,1.65,0,0,0,.685,1.347,2.52,2.52,0,0,0,1.605.539,3.294,3.294,0,0,0,2.324-.965,3.018,3.018,0,0,0,1.026-2.267,4.22,4.22,0,0,0-2.694-.77,3.492,3.492,0,0,0-2.1.607,1.81,1.81,0,0,0-.847,1.509Z" transform="translate(-236.792 -40.777)"/><path class="a" d="M361.226,49.58l-6.9,15.852H352.2l2.56-5.547L350.22,49.58h2.245l3.278,7.9h.045l3.188-7.9Z" transform="translate(-305.284 -43.218)"/><path class="a" d="M80.871,60.878A11.008,11.008,0,0,0,80.712,59H72v3.558h4.99a4.276,4.276,0,0,1-1.845,2.807v2.31h2.978A9.034,9.034,0,0,0,80.871,60.878Z" transform="translate(-62.762 -51.429)"/><path class="a" d="M15.924,93.25a8.842,8.842,0,0,0,6.123-2.23l-2.978-2.31a5.6,5.6,0,0,1-8.331-2.931H7.67v2.38a9.238,9.238,0,0,0,8.254,5.09Z" transform="translate(-6.686 -74.773)"/><path class="a" d="M4.055,45.586a5.535,5.535,0,0,1,0-3.536V39.67H.987a9.238,9.238,0,0,0,0,8.3Z" transform="translate(-0.003 -34.579)"/><path class="a" d="M15.925,3.653a5.016,5.016,0,0,1,3.544,1.386h0L22.106,2.4A8.876,8.876,0,0,0,15.925,0a9.238,9.238,0,0,0-8.254,5.09l3.068,2.38A5.526,5.526,0,0,1,15.925,3.653Z" transform="translate(-6.688 0.005)"/></svg>