<svg xmlns="http://www.w3.org/2000/svg" width="75.497" height="18.435" viewBox="0 0 75.497 18.435"><defs><style>.a{fill:#717c8e;}</style></defs><g transform="translate(0)"><path class="a" d="M42.106,6.749H37.928a.58.58,0,0,0-.574.49l-1.69,10.713a.348.348,0,0,0,.345.4H38a.58.58,0,0,0,.574-.491l.456-2.889a.58.58,0,0,1,.573-.491h1.323c2.752,0,4.34-1.332,4.755-3.971a3.218,3.218,0,0,0-.533-2.7,3.876,3.876,0,0,0-3.045-1.067Zm.482,3.913c-.228,1.5-1.374,1.5-2.481,1.5h-.63l.442-2.8a.348.348,0,0,1,.344-.294h.289c.754,0,1.466,0,1.834.43a1.392,1.392,0,0,1,.2,1.164Zm12.006-.048h-2a.348.348,0,0,0-.344.294l-.089.56-.14-.2a2.848,2.848,0,0,0-2.363-.839,4.6,4.6,0,0,0-4.467,4.023,3.776,3.776,0,0,0,.745,3.073,3.13,3.13,0,0,0,2.52,1.018,3.828,3.828,0,0,0,2.769-1.145l-.089.556a.348.348,0,0,0,.343.4h1.8a.58.58,0,0,0,.574-.491l1.081-6.847a.347.347,0,0,0-.343-.4Zm-2.789,3.894a2.23,2.23,0,0,1-2.257,1.91,1.55,1.55,0,0,1-1.657-1.945,2.239,2.239,0,0,1,2.242-1.926,1.688,1.688,0,0,1,1.334.545A1.732,1.732,0,0,1,51.805,14.507Zm13.444-3.894h-2.01a.583.583,0,0,0-.481.255l-2.773,4.084L58.81,11.028a.582.582,0,0,0-.557-.414H56.277a.348.348,0,0,0-.33.461l2.214,6.5-2.082,2.939a.348.348,0,0,0,.284.55h2.008a.58.58,0,0,0,.477-.249l6.687-9.652a.348.348,0,0,0-.286-.547Z" transform="translate(-13.876 -2.626)"/><path class="a" d="M90.886,6.749H86.708a.58.58,0,0,0-.573.49l-1.69,10.713a.348.348,0,0,0,.343.4h2.144a.406.406,0,0,0,.4-.343l.48-3.037a.58.58,0,0,1,.573-.491h1.322c2.753,0,4.34-1.332,4.756-3.971a3.216,3.216,0,0,0-.533-2.7,3.872,3.872,0,0,0-3.044-1.067Zm.482,3.913c-.228,1.5-1.373,1.5-2.481,1.5h-.63l.443-2.8a.347.347,0,0,1,.343-.294h.289c.754,0,1.466,0,1.834.43a1.392,1.392,0,0,1,.2,1.164Zm12.006-.048h-2a.346.346,0,0,0-.343.294l-.089.56-.141-.2a2.846,2.846,0,0,0-2.362-.839,4.6,4.6,0,0,0-4.466,4.023,3.778,3.778,0,0,0,.745,3.073,3.132,3.132,0,0,0,2.52,1.018,3.828,3.828,0,0,0,2.769-1.145l-.089.556a.348.348,0,0,0,.345.4h1.8a.58.58,0,0,0,.573-.491l1.082-6.847a.349.349,0,0,0-.345-.4Zm-2.789,3.894a2.229,2.229,0,0,1-2.257,1.91,1.55,1.55,0,0,1-1.657-1.945,2.24,2.24,0,0,1,2.242-1.926,1.688,1.688,0,0,1,1.334.545A1.723,1.723,0,0,1,100.585,14.507Zm5.147-7.464-1.715,10.909a.348.348,0,0,0,.343.4h1.724a.58.58,0,0,0,.574-.491L108.35,7.151a.348.348,0,0,0-.343-.4h-1.93A.349.349,0,0,0,105.733,7.042Z" transform="translate(-32.857 -2.626)"/><path class="a" d="M4.852,18.208l.319-2.029-.712-.016h-3.4L3.423,1.188a.193.193,0,0,1,.192-.164h5.73c1.9,0,3.215.4,3.9,1.177a2.684,2.684,0,0,1,.625,1.171,4.228,4.228,0,0,1,0,1.615l-.007.047v.413l.321.182a2.254,2.254,0,0,1,.651.5,2.31,2.31,0,0,1,.528,1.184,5.008,5.008,0,0,1-.075,1.718,6.049,6.049,0,0,1-.7,1.944,4,4,0,0,1-1.115,1.222,4.523,4.523,0,0,1-1.5.677,7.488,7.488,0,0,1-1.877.217H9.649A1.341,1.341,0,0,0,8.323,14.22l-.034.183-.564,3.577L7.7,18.11a.113.113,0,0,1-.035.076.1.1,0,0,1-.059.021H4.852Z" transform="translate(-0.413 -0.398)"/><path class="a" d="M16.488,7.667q-.026.164-.059.336c-.756,3.88-3.341,5.22-6.643,5.22H8.105a.816.816,0,0,0-.807.692l-.861,5.459-.244,1.547a.43.43,0,0,0,.425.5H9.6a.718.718,0,0,0,.709-.6l.029-.151L10.9,17.1l.036-.2a.717.717,0,0,1,.709-.606h.446c2.889,0,5.15-1.173,5.811-4.567A3.889,3.889,0,0,0,17.3,8.3a2.851,2.851,0,0,0-.816-.629Z" transform="translate(-2.408 -2.983)"/><path class="a" d="M16.4,6.978a5.961,5.961,0,0,0-.735-.163,9.337,9.337,0,0,0-1.482-.108H9.7a.716.716,0,0,0-.708.606l-.955,6.051-.027.177a.816.816,0,0,1,.807-.692h1.681c3.3,0,5.887-1.341,6.643-5.22.023-.115.042-.227.059-.336a4.028,4.028,0,0,0-.621-.262L16.4,6.978Z" transform="translate(-3.115 -2.61)"/><path class="a" d="M5.873,4.7A.714.714,0,0,1,6.581,4.1h4.491a9.337,9.337,0,0,1,1.482.108,5.961,5.961,0,0,1,.9.216,4.089,4.089,0,0,1,.621.262A3.664,3.664,0,0,0,13.3,1.39C12.449.417,10.906,0,8.932,0H3.2a.819.819,0,0,0-.809.692L.006,15.821a.492.492,0,0,0,.486.569H4.029l.888-5.635L5.873,4.7Z" transform="translate(0 0)"/></g></svg>