<svg xmlns="http://www.w3.org/2000/svg" width="73.533" height="12.46" viewBox="0 0 73.533 12.46"><defs><style>.a{fill:#717c8e;}</style></defs><path class="a" d="M122.7,45.839q-.012-.383-.362-.4h-1.247a.439.439,0,0,0-.455.485v2.243a.45.45,0,0,0,.5.484h1.143a.376.376,0,0,0,.3-.134.322.322,0,0,0,.121-.262Zm-3.665-.318a2,2,0,0,1,.376-1.279,1.609,1.609,0,0,1,.479-.309,1.421,1.421,0,0,1,.584-.134h2.289q1.514.013,1.539,1.658v3.376a1.394,1.394,0,0,1-.455,1.01,1.463,1.463,0,0,1-1.047.457h-2.164v2.434h-1.6V45.521" transform="translate(-109.457 -40.274)"/><path class="a" d="M202.085,48.329a.257.257,0,0,0,.128.224.42.42,0,0,0,.291.1h1.23c.278,0,.422-.108.43-.326V47.87c0-.251-.147-.377-.442-.377H202.5a.542.542,0,0,0-.333.077.522.522,0,0,0-.086.351Zm2.079-2.53c.008-.246-.135-.364-.431-.356h-3.225V43.8h3.631a1.422,1.422,0,0,1,1.613,1.537v3.441a1.6,1.6,0,0,1-.4,1.079,1.354,1.354,0,0,1-1.046.444H202.11q-1.6-.014-1.626-1.466V47.506a1.39,1.39,0,0,1,1.55-1.546h2.13V45.8" transform="translate(-184.347 -40.274)"/><path class="a" d="M285.3,51.089a.518.518,0,0,0,.326-.135.345.345,0,0,0,.129-.263V50.3H283.7a1.664,1.664,0,0,1-.641-.1,1.478,1.478,0,0,1-.505-.34,1.648,1.648,0,0,1-.345-.544,1.717,1.717,0,0,1-.11-.659V43.8h1.6v4.335c0,.347.142.521.429.521h1.13a.5.5,0,0,0,.349-.134.341.341,0,0,0,.142-.273V43.8h1.588v7.164a2.014,2.014,0,0,1-.407,1.276,1.376,1.376,0,0,1-1.094.495H282.1V51.089h3.2" transform="translate(-259.394 -40.274)"/><path class="a" d="M362.8,48.655h2.853c.261-.009.4-.114.4-.314v-.148a.325.325,0,0,0-.038-.141c-.064-.124-.142-.186-.235-.186h-1.414a1.579,1.579,0,0,1-1.079-.432,1.239,1.239,0,0,1-.47-.947V45.26q.025-1.435,1.561-1.461h3.309v1.645h-2.8c-.329,0-.495.1-.495.3V45.9q0,.313.507.313h1.41a1.324,1.324,0,0,1,.963.433,1.462,1.462,0,0,1,.418,1.009v1.2a1.592,1.592,0,0,1-.465,1.009,1.291,1.291,0,0,1-.446.342,1.826,1.826,0,0,1-.634.089H362.8V48.655" transform="translate(-333.601 -40.274)"/><path class="a" d="M439.329,48.329a.255.255,0,0,0,.13.224.416.416,0,0,0,.289.1h1.232c.278,0,.421-.108.43-.326V47.87c0-.251-.149-.377-.443-.377h-1.219a.538.538,0,0,0-.332.077.521.521,0,0,0-.087.351Zm2.08-2.53c.007-.246-.136-.364-.432-.356h-3.224V43.8h3.632A1.42,1.42,0,0,1,443,45.336v3.441a1.6,1.6,0,0,1-.4,1.079,1.348,1.348,0,0,1-1.045.444h-2.2q-1.6-.014-1.624-1.466V47.506a1.388,1.388,0,0,1,1.55-1.546h2.13V45.8" transform="translate(-402.497 -40.274)"/><path class="a" d="M519.326,15.227a1.361,1.361,0,0,1,.494-1.068,1.843,1.843,0,0,1,1.225-.419h1.017v1.589h-.616c-.338.008-.511.17-.518.483v.348h1.134v1.646h-1.134v4.855h-1.6V15.227" transform="translate(-477.527 -12.634)"/><path class="a" d="M568.7,45.769V45.73a.256.256,0,0,0-.1-.21.469.469,0,0,0-.275-.077H567.21a.491.491,0,0,0-.347.122.348.348,0,0,0-.167.3v.66Zm-1.982,2.325v.1a.445.445,0,0,0,.1.312.229.229,0,0,0,.208.147h3.289V50.3h-3.5a2.415,2.415,0,0,1-.744-.09,1.35,1.35,0,0,1-.515-.31,1.371,1.371,0,0,1-.356-.534,2.368,2.368,0,0,1-.1-.757l-.014-3.292a1.389,1.389,0,0,1,1.558-1.518h2.158a1.394,1.394,0,0,1,1.518,1.574v1.3l-3.611,1.42" transform="translate(-519.614 -40.274)"/><path class="a" d="M650.7,49.815a3.332,3.332,0,0,1-.665-.063,1.417,1.417,0,0,1-.634-.3,1.527,1.527,0,0,1-.455-.643,2.233,2.233,0,0,1-.13-.794v-3.07a2,2,0,0,1,.075-.661,1.377,1.377,0,0,1,.338-.559,1.47,1.47,0,0,1,.6-.381,2.815,2.815,0,0,1,.685-.076h2.454v.385h-2.4a1.687,1.687,0,0,0-1,.261,1.159,1.159,0,0,0-.376.979v3.072a2.032,2.032,0,0,0,.1.629,1.106,1.106,0,0,0,.857.776,2.633,2.633,0,0,0,.567.057h2.287v.385H650.7" transform="translate(-596.594 -39.789)"/><path class="a" d="M723.544,45.832h-3.217a1.227,1.227,0,0,0-.9.357,1.322,1.322,0,0,0-.336.959v.98a2.058,2.058,0,0,0,.061.52.8.8,0,0,0,.3.438,1.411,1.411,0,0,0,.922.344h1.949a1.119,1.119,0,0,0,1.225-1.29Zm.382,2.212a3.993,3.993,0,0,1-.051.655,1.48,1.48,0,0,1-.32.6,1.612,1.612,0,0,1-1.25.518h-1.913a1.69,1.69,0,0,1-1.212-.444,1.571,1.571,0,0,1-.48-1.219v-.99a1.53,1.53,0,0,1,1.668-1.714h3.187v-.433a1.5,1.5,0,0,0-.309-.938.967.967,0,0,0-.46-.351,2.363,2.363,0,0,0-.6-.07h-3.477v-.385h3.3a4.937,4.937,0,0,1,.821.063.949.949,0,0,1,.349.146,1.131,1.131,0,0,1,.316.3,2.046,2.046,0,0,1,.433,1.316v2.95" transform="translate(-660.854 -39.789)"/><path class="a" d="M808.911,43.656q-1.338.025-1.315,1.462v4.7h-.383v-4.7q-.027-1.849,1.76-1.848h.426v.385h-.488" transform="translate(-742.241 -39.789)"/><path class="a" d="M852.7,19.44h-3.032a2.316,2.316,0,0,0-.591.071,1.042,1.042,0,0,0-.53.336,1.136,1.136,0,0,0-.3.5,1.667,1.667,0,0,0-.073.6v2.995a1.1,1.1,0,0,0,.437,1.019,1.74,1.74,0,0,0,.48.19,2.3,2.3,0,0,0,.591.07H851a1.991,1.991,0,0,0,1.212-.344,1.293,1.293,0,0,0,.483-1.119Zm.383,4.338a1.684,1.684,0,0,1-1.967,1.822h-1.422a3.928,3.928,0,0,1-.806-.076,1.53,1.53,0,0,1-.7-.444,1.482,1.482,0,0,1-.322-.636,2.426,2.426,0,0,1-.075-.718V20.93a1.676,1.676,0,0,1,1.9-1.875H852.7V16.934h.383v6.845" transform="translate(-779.544 -15.571)"/><path class="a" d="M2.646,3.278a1.968,1.968,0,0,1,.377-.126,2.433,2.433,0,0,1,4.761,0,1.753,1.753,0,0,1,.889.43,3.5,3.5,0,0,0-.024-.608A3.262,3.262,0,0,0,2.14,3.13a4.622,4.622,0,0,0-.008.47,2.07,2.07,0,0,1,.513-.321" transform="translate(-1.958 0)"/><path class="a" d="M5.35,43.8H1.439a1.422,1.422,0,0,0-.584.134,1.613,1.613,0,0,0-.48.309A2.007,2.007,0,0,0,0,45.521v3.057a2,2,0,0,0,.375,1.278,1.6,1.6,0,0,0,.48.312,1.452,1.452,0,0,0,.584.132H5.35q1.515-.014,1.54-1.659V45.457Q6.865,43.811,5.35,43.8" transform="translate(0 -40.274)"/></svg>