<svg xmlns="http://www.w3.org/2000/svg" width="70.127" height="21.74" viewBox="0 0 70.127 21.74"><defs><style>.a{fill:#717c8e;}</style></defs><g transform="translate(80.788 -287.231)"><path class="a" d="M-57.6,287.231a6.452,6.452,0,0,0-2.763.632,8.642,8.642,0,0,0-3.3,2.884,12.519,12.519,0,0,0-1.516,2.933c-.758,2.077-.75,3.762.025,4.873a3.64,3.64,0,0,0,3.212,1.38h.007c3.385,0,5.912-2.219,7.512-6.595.423-1.158.98-3.319-.039-4.777a3.571,3.571,0,0,0-3.136-1.33Zm20.425,0a6.449,6.449,0,0,0-2.762.632,8.637,8.637,0,0,0-3.3,2.884,12.492,12.492,0,0,0-1.516,2.933c-.759,2.077-.75,3.762.026,4.873a3.637,3.637,0,0,0,3.212,1.38h.006c3.386,0,5.913-2.219,7.512-6.595.424-1.158.98-3.319-.038-4.777A3.573,3.573,0,0,0-37.171,287.231Zm-31.3.176a6.826,6.826,0,0,0-3.166.492c-.969.492-1.825,1.477-2.484,3.446a3.9,3.9,0,0,0-.228,1.1,1.653,1.653,0,0,0,.165.822,2.389,2.389,0,0,0,.689.782,3.385,3.385,0,0,0,1.049.53l.466.133c.246.071.534.155.716.211a1.449,1.449,0,0,1,.33.139.662.662,0,0,1,.262.265.586.586,0,0,1,.063.254.83.83,0,0,1-.049.3.8.8,0,0,1-.489.545,3.585,3.585,0,0,1-1.226.143h-7.27l-1.149,3.157h7.782a8.476,8.476,0,0,0,3.357-.547,5.156,5.156,0,0,0,3.043-3.825,2.6,2.6,0,0,0-.186-2.017,2.876,2.876,0,0,0-1.757-1.151l-.414-.12-.612-.176a.822.822,0,0,1-.484-.348.685.685,0,0,1-.072-.553.809.809,0,0,1,.4-.485,1.634,1.634,0,0,1,.787-.175h4.524c.032-.046.061-.1.093-.142a9.988,9.988,0,0,1,2.922-2.783Zm20.333,0a4.236,4.236,0,0,0-4.219,2.925l-3.42,9.4h3.746l1.757-4.83,3.311,0,.942-2.587-3.3,0,.532-1.5a.79.79,0,0,1,.763-.482h3.9c.033-.047.062-.1.093-.143a10.534,10.534,0,0,1,3.092-2.783Zm17.38.007-4.486,12.322h3.811L-29.8,295.4c.08.179,1.042,4.337,1.042,4.337h4.006a38.417,38.417,0,0,0-1.264-4.29,6.76,6.76,0,0,0-.474-.971,5.617,5.617,0,0,0,3.451-3.152,2.858,2.858,0,0,0-.071-2.7c-.562-.809-1.706-1.207-3.5-1.209h-4.148Zm7.816,0a3.08,3.08,0,0,1,.622.657,3.2,3.2,0,0,1,.512,2.268h2.269l-3.42,9.4h3.417l3.422-9.4h4.39l1.065-2.926Zm-5.305,2.544h.629c1.15,0,1.579.337,1.189,1.387a2.2,2.2,0,0,1-2.272,1.594h-.652l1.106-2.98Zm-30.251.061h0c1.171,0,1.438.68.411,3.492h0c-1.056,2.89-1.822,3.618-2.976,3.618h0c-1.124,0-1.518-.712-.466-3.589.785-2.147,1.8-3.521,3.033-3.521Zm20.425,0h0c1.17,0,1.438.68.41,3.492-1.055,2.89-1.822,3.618-2.975,3.618h0c-1.125,0-1.517-.712-.466-3.589C-40.318,291.392-39.3,290.019-38.07,290.019Z" transform="translate(0)"/><path class="a" d="M-77.083,446.122a.93.93,0,0,0-.539.129.974.974,0,0,0-.3.467c-.078.215-.09.364-.036.449s.2.128.445.128a.9.9,0,0,0,.542-.133.976.976,0,0,0,.3-.463c.079-.218.093-.368.039-.452S-76.837,446.122-77.083,446.122Zm2.066,0a.925.925,0,0,0-.541.129.978.978,0,0,0-.3.467c-.078.215-.09.364-.038.449s.2.128.443.128a.914.914,0,0,0,.544-.133.972.972,0,0,0,.3-.463c.079-.218.091-.368.037-.452S-74.775,446.122-75.017,446.122Zm38.567,1.6a3.308,3.308,0,0,0-.837.108,2.837,2.837,0,0,0-.772.329,2.725,2.725,0,0,0-.641.553,2.506,2.506,0,0,0-.444.773,1.715,1.715,0,0,0-.126.657,1.089,1.089,0,0,0,.122.475,1.109,1.109,0,0,0,.288.345,2.629,2.629,0,0,0,.383.257c.136.076.269.148.4.216a1.867,1.867,0,0,1,.334.218.654.654,0,0,1,.2.264.5.5,0,0,1-.016.357,1.119,1.119,0,0,1-.185.326,1.109,1.109,0,0,1-.281.246,1.361,1.361,0,0,1-.361.154,1.621,1.621,0,0,1-.426.055,1.836,1.836,0,0,1-.579-.079,1.91,1.91,0,0,1-.389-.172,1.95,1.95,0,0,1-.246-.173.273.273,0,0,0-.16-.078.179.179,0,0,0-.092.026.291.291,0,0,0-.088.087,1.011,1.011,0,0,0-.089.161c-.03.066-.064.148-.1.245a1.786,1.786,0,0,0-.1.334.259.259,0,0,0,.023.177.569.569,0,0,0,.149.142,1.372,1.372,0,0,0,.291.153,2.537,2.537,0,0,0,.434.125,2.856,2.856,0,0,0,.57.052,3.566,3.566,0,0,0,.924-.122,3.206,3.206,0,0,0,.852-.367,2.976,2.976,0,0,0,.708-.607,2.717,2.717,0,0,0,.488-.846,1.658,1.658,0,0,0,.119-.64,1.085,1.085,0,0,0-.126-.473,1.134,1.134,0,0,0-.3-.346,2.989,2.989,0,0,0-.389-.257c-.136-.076-.271-.147-.4-.215a2.013,2.013,0,0,1-.344-.218.626.626,0,0,1-.2-.264.5.5,0,0,1,.018-.353.97.97,0,0,1,.145-.26.9.9,0,0,1,.227-.21,1.141,1.141,0,0,1,.3-.137,1.322,1.322,0,0,1,.373-.049,1.444,1.444,0,0,1,.455.064A1.737,1.737,0,0,1-36,448.9a2.131,2.131,0,0,1,.226.144.271.271,0,0,0,.141.066.158.158,0,0,0,.093-.028.309.309,0,0,0,.081-.09,1.364,1.364,0,0,0,.08-.156c.028-.062.059-.14.092-.231s.053-.151.069-.206a.951.951,0,0,0,.034-.137.351.351,0,0,0,0-.088.225.225,0,0,0-.035-.081.474.474,0,0,0-.151-.118,1.592,1.592,0,0,0-.29-.128,2.355,2.355,0,0,0-.373-.089,2.609,2.609,0,0,0-.423-.033Zm19.631,0a4.384,4.384,0,0,0-1.392.223,4.434,4.434,0,0,0-1.238.64,4.846,4.846,0,0,0-1.013,1.016,5.306,5.306,0,0,0-.718,1.35,3.774,3.774,0,0,0-.26,1.3,1.782,1.782,0,0,0,.259.974,1.608,1.608,0,0,0,.76.61,3.2,3.2,0,0,0,1.235.21q.251,0,.508-.023t.517-.071c.175-.032.344-.069.512-.114s.31-.086.427-.127a.6.6,0,0,0,.265-.168.83.83,0,0,0,.139-.248l.886-2.434a.563.563,0,0,0,.037-.168.248.248,0,0,0-.023-.125.172.172,0,0,0-.076-.078.265.265,0,0,0-.125-.027h-2.066a.16.16,0,0,0-.085.027.343.343,0,0,0-.086.081.808.808,0,0,0-.088.144,2.129,2.129,0,0,0-.093.221,1.021,1.021,0,0,0-.085.362c.006.071.037.107.094.107h1.159l-.517,1.418a2.148,2.148,0,0,1-.43.142,2.066,2.066,0,0,1-.428.047,1.757,1.757,0,0,1-.728-.137.959.959,0,0,1-.454-.407,1.3,1.3,0,0,1-.147-.668,2.89,2.89,0,0,1,.2-.924,3.638,3.638,0,0,1,.455-.872,3.254,3.254,0,0,1,.638-.676,2.859,2.859,0,0,1,.773-.435,2.473,2.473,0,0,1,.86-.153,2.476,2.476,0,0,1,.7.085,2.833,2.833,0,0,1,.474.184,1.906,1.906,0,0,1,.3.184.31.31,0,0,0,.168.085.158.158,0,0,0,.081-.023.314.314,0,0,0,.083-.083,1.088,1.088,0,0,0,.09-.159,2.314,2.314,0,0,0,.1-.236,1.814,1.814,0,0,0,.1-.357.288.288,0,0,0-.023-.187.607.607,0,0,0-.167-.156,1.5,1.5,0,0,0-.344-.167,3.108,3.108,0,0,0-.521-.132A4.007,4.007,0,0,0-16.819,447.729Zm-38.646.076c-.161,0-.288,0-.38.013a.462.462,0,0,0-.217.064.264.264,0,0,0-.108.149,1.509,1.509,0,0,0-.05.267l-.553,5.337a.52.52,0,0,0,0,.182.16.16,0,0,0,.1.1.783.783,0,0,0,.24.047q.159.012.433.011c.174,0,.314,0,.423-.011a1.029,1.029,0,0,0,.269-.05.448.448,0,0,0,.173-.106.9.9,0,0,0,.131-.177l2.337-3.876h.009l-.432,3.876a.459.459,0,0,0,0,.182.157.157,0,0,0,.1.1.781.781,0,0,0,.24.047q.159.012.428.011c.16,0,.295,0,.4-.011a1.216,1.216,0,0,0,.272-.047.492.492,0,0,0,.187-.1.815.815,0,0,0,.145-.182l3.341-5.323a2.613,2.613,0,0,0,.15-.276.168.168,0,0,0,.011-.154.186.186,0,0,0-.144-.064,3.04,3.04,0,0,0-.319-.013q-.223,0-.35.013a.754.754,0,0,0-.2.042.284.284,0,0,0-.12.085.941.941,0,0,0-.086.13l-2.773,4.671h-.009l.539-4.652a.443.443,0,0,0,0-.151.129.129,0,0,0-.075-.087.546.546,0,0,0-.193-.04c-.088-.006-.207-.01-.358-.01s-.257,0-.345.013a.858.858,0,0,0-.216.042.332.332,0,0,0-.136.087.905.905,0,0,0-.1.146l-2.808,4.652h0l.632-4.685a.443.443,0,0,0,.013-.139.093.093,0,0,0-.062-.076.544.544,0,0,0-.184-.033C-55.2,447.807-55.316,447.8-55.465,447.8Zm14.752,0a2.778,2.778,0,0,0-.3.014,1.353,1.353,0,0,0-.2.038.334.334,0,0,0-.126.062.212.212,0,0,0-.062.085l-2.1,5.777a.109.109,0,0,0,0,.086.127.127,0,0,0,.078.061.769.769,0,0,0,.178.038,2.563,2.563,0,0,0,.295.014,2.866,2.866,0,0,0,.308-.014,1.121,1.121,0,0,0,.2-.038.349.349,0,0,0,.125-.061.206.206,0,0,0,.061-.086l2.1-5.777a.107.107,0,0,0,0-.085.131.131,0,0,0-.08-.062.819.819,0,0,0-.175-.038,2.559,2.559,0,0,0-.3-.014Zm-37.82,0a2.839,2.839,0,0,0-.308.014,1.356,1.356,0,0,0-.205.038.306.306,0,0,0-.124.061.211.211,0,0,0-.06.085l-1.354,3.721a2.9,2.9,0,0,0-.2,1.023,1.264,1.264,0,0,0,.219.73,1.24,1.24,0,0,0,.616.438,2.946,2.946,0,0,0,.983.144,3.953,3.953,0,0,0,1.146-.161,3.307,3.307,0,0,0,.964-.468,3.307,3.307,0,0,0,.761-.752,3.964,3.964,0,0,0,.532-1.007L-74.232,448a.114.114,0,0,0,0-.085.117.117,0,0,0-.076-.061.823.823,0,0,0-.173-.038,2.423,2.423,0,0,0-.291-.014,2.847,2.847,0,0,0-.305.014,1.306,1.306,0,0,0-.205.038.31.31,0,0,0-.121.061.209.209,0,0,0-.059.085l-1.34,3.683a2.446,2.446,0,0,1-.3.575,1.965,1.965,0,0,1-.4.425,1.693,1.693,0,0,1-.488.263,1.725,1.725,0,0,1-.556.09,1.229,1.229,0,0,1-.491-.088.647.647,0,0,1-.306-.262.809.809,0,0,1-.1-.443,2.067,2.067,0,0,1,.14-.631L-77.985,448a.11.11,0,0,0,0-.085.13.13,0,0,0-.079-.061.838.838,0,0,0-.175-.038A2.5,2.5,0,0,0-78.532,447.8Zm45.864,0a2.845,2.845,0,0,0-.308.014,1.276,1.276,0,0,0-.2.037.336.336,0,0,0-.125.062.216.216,0,0,0-.059.086l-1.354,3.72a2.88,2.88,0,0,0-.2,1.024,1.258,1.258,0,0,0,.218.73,1.243,1.243,0,0,0,.617.438,2.945,2.945,0,0,0,.982.144,3.959,3.959,0,0,0,1.146-.161,3.317,3.317,0,0,0,.964-.468,3.336,3.336,0,0,0,.761-.752,4,4,0,0,0,.532-1.007L-28.368,448a.116.116,0,0,0,0-.086.123.123,0,0,0-.076-.062.786.786,0,0,0-.173-.037,2.434,2.434,0,0,0-.29-.014,2.856,2.856,0,0,0-.305.014,1.232,1.232,0,0,0-.2.037.325.325,0,0,0-.122.062A.216.216,0,0,0-29.6,448l-1.34,3.682a2.473,2.473,0,0,1-.3.575,1.981,1.981,0,0,1-.4.425,1.675,1.675,0,0,1-.488.262,1.717,1.717,0,0,1-.557.09,1.239,1.239,0,0,1-.49-.088.648.648,0,0,1-.307-.262.8.8,0,0,1-.1-.443,2.046,2.046,0,0,1,.14-.631L-32.121,448a.109.109,0,0,0,0-.086.133.133,0,0,0-.079-.062.8.8,0,0,0-.175-.037,2.5,2.5,0,0,0-.293-.014Zm10.63.009c-.114,0-.208,0-.284.012a.787.787,0,0,0-.189.04.374.374,0,0,0-.118.066.209.209,0,0,0-.059.086l-1.045,2.87q-.118.327-.242.685t-.23.69h-.005c-.011-.126-.022-.252-.037-.378s-.028-.255-.044-.385-.034-.261-.054-.392-.04-.264-.06-.4l-.378-2.236a1.748,1.748,0,0,0-.062-.309.486.486,0,0,0-.11-.2.412.412,0,0,0-.183-.1,1.13,1.13,0,0,0-.291-.03H-26.1a.654.654,0,0,0-.36.111.644.644,0,0,0-.251.334l-2,5.5a.147.147,0,0,0-.008.086.112.112,0,0,0,.062.063.528.528,0,0,0,.156.041,2.1,2.1,0,0,0,.269.014,2.448,2.448,0,0,0,.285-.014.9.9,0,0,0,.187-.041.331.331,0,0,0,.114-.063.236.236,0,0,0,.056-.086l1.166-3.2c.087-.24.169-.472.244-.7s.149-.452.219-.679h.009c0,.186.017.378.037.575s.042.38.069.551l.481,2.86a3.39,3.39,0,0,0,.072.385.667.667,0,0,0,.11.236.357.357,0,0,0,.178.121.943.943,0,0,0,.275.033h.529a.71.71,0,0,0,.187-.026.611.611,0,0,0,.182-.083.735.735,0,0,0,.153-.141.668.668,0,0,0,.108-.194l2-5.5a.141.141,0,0,0,.007-.086.115.115,0,0,0-.059-.066.4.4,0,0,0-.153-.04,2.428,2.428,0,0,0-.264-.012Zm-44.136.019a.532.532,0,0,0-.3.092.588.588,0,0,0-.215.3l-1.941,5.332c-.05.139-.051.239,0,.3a.274.274,0,0,0,.228.093h3.073a.176.176,0,0,0,.088-.027.311.311,0,0,0,.088-.082.876.876,0,0,0,.09-.149c.03-.062.061-.138.095-.229s.057-.168.072-.229a.564.564,0,0,0,.018-.15.123.123,0,0,0-.029-.083.1.1,0,0,0-.069-.025h-2.2l.628-1.725H-64.7a.18.18,0,0,0,.087-.024.3.3,0,0,0,.087-.078.756.756,0,0,0,.088-.144,2.145,2.145,0,0,0,.095-.227,1.919,1.919,0,0,0,.07-.225.487.487,0,0,0,.018-.146.119.119,0,0,0-.03-.081.094.094,0,0,0-.069-.026H-66.2l.543-1.494h2.184a.159.159,0,0,0,.086-.026.345.345,0,0,0,.087-.083.855.855,0,0,0,.089-.149,2.2,2.2,0,0,0,.094-.225,2.123,2.123,0,0,0,.073-.234.607.607,0,0,0,.02-.151.117.117,0,0,0-.027-.082.091.091,0,0,0-.067-.024Zm5.13,0a.529.529,0,0,0-.3.092.585.585,0,0,0-.216.3l-2.022,5.555a.118.118,0,0,0,0,.085.12.12,0,0,0,.078.061.783.783,0,0,0,.177.038,2.539,2.539,0,0,0,.295.014,2.835,2.835,0,0,0,.308-.014,1.185,1.185,0,0,0,.2-.038.334.334,0,0,0,.124-.061.2.2,0,0,0,.062-.085l.848-2.331h.388a.752.752,0,0,1,.327.062.459.459,0,0,1,.2.182.853.853,0,0,1,.1.3c.02.119.034.256.045.411l.051,1.366a.284.284,0,0,0,.011.1.124.124,0,0,0,.074.066.55.55,0,0,0,.173.035c.077.006.181.01.314.01.158,0,.284,0,.377-.01a1.071,1.071,0,0,0,.22-.033.247.247,0,0,0,.112-.059.265.265,0,0,0,.051-.088.514.514,0,0,0,.023-.13c0-.055,0-.143,0-.262l-.077-1.205a2.965,2.965,0,0,0-.042-.39,1.435,1.435,0,0,0-.089-.308.789.789,0,0,0-.143-.229.8.8,0,0,0-.2-.16,3.024,3.024,0,0,0,.592-.237,2.527,2.527,0,0,0,.5-.346,2.362,2.362,0,0,0,.394-.451,2.6,2.6,0,0,0,.282-.56,1.818,1.818,0,0,0,.127-.646.936.936,0,0,0-.138-.486.942.942,0,0,0-.38-.333,1.91,1.91,0,0,0-.6-.18c-.081-.009-.172-.017-.275-.023s-.233-.01-.393-.01h-1.584Zm14.936,0a.53.53,0,0,0-.3.092.585.585,0,0,0-.216.3l-1.941,5.332c-.05.139-.052.239,0,.3a.277.277,0,0,0,.23.093h3.073a.171.171,0,0,0,.088-.027.294.294,0,0,0,.088-.082.758.758,0,0,0,.09-.149,2.318,2.318,0,0,0,.1-.229h0a2.252,2.252,0,0,0,.072-.229.561.561,0,0,0,.018-.15A.12.12,0,0,0-44.84,453a.1.1,0,0,0-.069-.025h-2.2l.628-1.725h1.848a.177.177,0,0,0,.087-.024.292.292,0,0,0,.088-.078.794.794,0,0,0,.088-.144,2.307,2.307,0,0,0,.095-.227,2.035,2.035,0,0,0,.069-.225.492.492,0,0,0,.018-.146.122.122,0,0,0-.03-.081.1.1,0,0,0-.069-.026h-1.848l.544-1.494h2.183a.165.165,0,0,0,.086-.026.343.343,0,0,0,.086-.083.776.776,0,0,0,.089-.149,2.036,2.036,0,0,0,.095-.225,2.1,2.1,0,0,0,.073-.234.574.574,0,0,0,.02-.151.118.118,0,0,0-.027-.082.093.093,0,0,0-.067-.024h-3.053Zm-25.933,0a.53.53,0,0,0-.3.092.582.582,0,0,0-.216.3l-1.941,5.332c-.05.139-.052.238,0,.3a.275.275,0,0,0,.229.093h1.627a4.815,4.815,0,0,0,.685-.045,3.789,3.789,0,0,0,.616-.139,3.35,3.35,0,0,0,.573-.241,2.737,2.737,0,0,0,.505-.349,2.665,2.665,0,0,0,.418-.469,2.508,2.508,0,0,0,.305-.591,1.607,1.607,0,0,0,.11-.563.984.984,0,0,0-.1-.437.8.8,0,0,0-.272-.305,1.135,1.135,0,0,0-.419-.165,2.1,2.1,0,0,0,.434-.2,2.125,2.125,0,0,0,.37-.283,2.078,2.078,0,0,0,.295-.357,2.048,2.048,0,0,0,.209-.418,1.517,1.517,0,0,0,.11-.69.782.782,0,0,0-.233-.485,1.229,1.229,0,0,0-.553-.286,3.671,3.671,0,0,0-.917-.094Zm.512.931h.628a1.445,1.445,0,0,1,.442.052.488.488,0,0,1,.232.149.387.387,0,0,1,.081.243.92.92,0,0,1-.063.331,1.321,1.321,0,0,1-.167.315,1.212,1.212,0,0,1-.254.26,1.181,1.181,0,0,1-.33.175,1.4,1.4,0,0,1-.454.064h-.694Zm11.013.019h.558a2.908,2.908,0,0,1,.329.015,1.513,1.513,0,0,1,.2.037.459.459,0,0,1,.343.294.828.828,0,0,1-.049.51,1.322,1.322,0,0,1-.2.359,1.243,1.243,0,0,1-.3.277,1.439,1.439,0,0,1-.4.18,1.756,1.756,0,0,1-.486.064h-.633Zm-11.922,2.478h.737a1.8,1.8,0,0,1,.531.061.616.616,0,0,1,.287.175.47.47,0,0,1,.1.281.951.951,0,0,1-.067.38,1.21,1.21,0,0,1-.2.362,1.283,1.283,0,0,1-.3.264,1.364,1.364,0,0,1-.366.161,1.7,1.7,0,0,1-.456.054h-.9Z" transform="translate(0 -145.088)"/></g></svg>