<svg xmlns="http://www.w3.org/2000/svg" width="57.354" height="18.562" viewBox="0 0 57.354 18.562"><defs><style>.a{fill:#717c8e;}</style></defs><g transform="translate(-81.166 -105.048)"><path class="a" d="M438.153,128.7h-4.646l2.906-17.968h4.646Z" transform="translate(-332.134 -5.354)"/><path class="a" d="M579.116,105.813a11.45,11.45,0,0,0-4.167-.765c-4.588,0-7.819,2.447-7.839,5.945-.038,2.581,2.313,4.014,4.072,4.875,1.8.879,2.409,1.453,2.409,2.237-.018,1.2-1.452,1.759-2.79,1.759a9.247,9.247,0,0,1-4.359-.956l-.612-.287-.65,4.034a14.14,14.14,0,0,0,5.182.956c4.875,0,8.049-2.409,8.086-6.136.019-2.045-1.223-3.613-3.9-4.894-1.625-.822-2.62-1.377-2.62-2.218.019-.765.842-1.548,2.676-1.548a7.894,7.894,0,0,1,3.461.688l.42.191.632-3.88Z" transform="translate(-456.254)"/><path class="a" d="M797.71,122.33c.383-1.032,1.855-5.027,1.855-5.027-.019.038.382-1.051.611-1.72l.325,1.548s.88,4.3,1.071,5.2Zm5.735-11.6h-3.594a2.293,2.293,0,0,0-2.428,1.491l-6.9,16.477H795.4l.975-2.7h5.965c.133.631.554,2.7.554,2.7h4.3l-3.748-17.968Z" transform="translate(-668.674 -5.354)"/><path class="a" d="M177.306,110.727l-4.55,12.253-.5-2.485a13.753,13.753,0,0,0-6.423-7.532L170,128.676h4.913l7.3-17.949h-4.913Z" transform="translate(-79.814 -5.353)"/><path class="a" d="M88.717,110.727H81.242l-.076.363c5.831,1.491,9.693,5.085,11.279,9.405l-1.625-8.258a1.922,1.922,0,0,0-2.1-1.51Z" transform="translate(0 -5.354)"/></g></svg>