<svg xmlns="http://www.w3.org/2000/svg" xmlns:xlink="http://www.w3.org/1999/xlink" width="16" height="16" viewBox="0 0 16 16"><defs><style>.a,.e{fill:rgba(167,180,203,0.6);}.a,.b{clip-rule:evenodd;}.b,.c{fill:none;}.d{clip-path:url(#a);}.f{clip-path:url(#b);}.g{isolation:isolate;}.h{clip-path:url(#c);}.i{clip-path:url(#d);}.j{fill:#fff;}</style><clipPath id="a"><path class="a" d="M183.3-12.366a3.849,3.849,0,0,1,3.338-3.338,32.44,32.44,0,0,1,8.733,0,3.849,3.849,0,0,1,3.338,3.338A33.668,33.668,0,0,1,199-8a33.668,33.668,0,0,1-.3,4.366A3.849,3.849,0,0,1,195.366-.3,33.666,33.666,0,0,1,191,0a33.665,33.665,0,0,1-4.366-.3A3.849,3.849,0,0,1,183.3-3.634,33.668,33.668,0,0,1,183-8,33.668,33.668,0,0,1,183.3-12.366Z"/></clipPath><clipPath id="b"><path class="b" d="M192.766-11.366a.8.8,0,0,1,0,1.131L190.531-8l2.234,2.234a.8.8,0,0,1,0,1.131.8.8,0,0,1-1.131,0l-2.8-2.8a.8.8,0,0,1,0-1.131l2.8-2.8a.8.8,0,0,1,1.131,0Z"/></clipPath><clipPath id="c"><rect class="c" width="15" height="18" transform="translate(183 -17)"/></clipPath><clipPath id="d"><path class="c" d="M188-4h6v-8h-6Z"/></clipPath></defs><g class="d" transform="translate(-183 16)"><path class="e" d="M178-21h26V5H178Z"/></g><g class="f" transform="translate(-183 16)"><g class="g"><g class="h"><g class="i"><path class="j" d="M183.6-16.6H198V.6H183.6Z"/></g></g></g></g></svg>