<svg xmlns="http://www.w3.org/2000/svg" width="30" height="30" viewBox="0 0 30 30"><defs><style>.a{fill:none;}.b{fill:#a7b4cb;opacity:0.6;}.c{fill:#16161f;}</style></defs><rect class="a" width="30" height="30"/><path class="b" d="M16.8,23.9a38.384,38.384,0,0,1-6.4-5.3,38.413,38.413,0,0,1-5.3-6.4A1.1,1.1,0,0,1,5.3,11L6.7,9.6l.5-.3,2.9-.6.5-.2.7-.7A7,7,0,0,1,19.65,6.55L20.3,5.9a1,1,0,0,1,1.4,0l1.4,1.4a1,1,0,0,1,0,1.4l-.695.694A7.3,7.3,0,0,1,21,17.9l-.5.5a.8.8,0,0,0-.2.5l-.6,2.9-.3.5L18,23.7a1.1,1.1,0,0,1-1.2.2Zm4.6-16Z"/><path class="c" d="M3.189,2.9c-1-1.1-1.9-2-2.6-2.9a4,4,0,0,0,5.5,5.5C5.189,4.8,4.289,3.9,3.189,2.9Z" transform="translate(7.211 15.7)"/></svg>