<svg xmlns="http://www.w3.org/2000/svg" xmlns:xlink="http://www.w3.org/1999/xlink" width="28" height="30" viewBox="0 0 28 30"><defs><style>.a{fill:none;}.b{clip-path:url(#a);}.c{clip-path:url(#b);}.d{clip-path:url(#c);}.e{clip-path:url(#e);}</style><clipPath id="a"><path class="a" d="M294.753-34.381,281.19-40.956a.436.436,0,0,0-.38,0l-13.562,6.576a.44.44,0,0,0-.247.4v15.97a.44.44,0,0,0,.247.4l13.562,6.576A.436.436,0,0,0,281-11a.437.437,0,0,0,.19-.044l13.562-6.576a.44.44,0,0,0,.247-.4v-15.97A.44.44,0,0,0,294.753-34.381ZM281-40.073l12.556,6.088-3.64,1.765a.437.437,0,0,0-.074-.047l-12.471-6.046Zm-4.617,2.256,12.538,6.079-2.568,1.245-12.533-6.076ZM289.214-30.9v4.6l-2.4,1.163v-4.6Zm4.911,12.613L281.438-12.14V-27.133l3.026-1.467a.44.44,0,0,0,.2-.587.437.437,0,0,0-.584-.2L281-27.9l-1.213-.588a.436.436,0,0,0-.584.2.44.44,0,0,0,.2.587l1.156.561V-12.14l-12.687-6.151V-33.285l9.661,4.684a.434.434,0,0,0,.19.044.437.437,0,0,0,.394-.248.44.44,0,0,0-.2-.587l-9.473-4.593,4.347-2.107,13.144,6.373.006.008v5.273a.44.44,0,0,0,.2.372.436.436,0,0,0,.233.067.436.436,0,0,0,.19-.044l3.274-1.587a.44.44,0,0,0,.247-.4v-5.3l4.035-1.957v14.994Z"/></clipPath><clipPath id="b"><path class="a" d="M-271,1543H1649V-979H-271Z"/></clipPath><clipPath id="c"><path class="a" d="M271.741-19.906l-2.084-1.047a.45.45,0,0,0-.612.222.485.485,0,0,0,.213.636l2.084,1.047a.441.441,0,0,0,.2.048.457.457,0,0,0,.413-.27A.485.485,0,0,0,271.741-19.906Z"/></clipPath><clipPath id="e"><path class="a" d="M273.737-20.918l-4.068-2.034a.459.459,0,0,0-.622.225.491.491,0,0,0,.217.645l4.068,2.034a.451.451,0,0,0,.2.048.465.465,0,0,0,.42-.273A.491.491,0,0,0,273.737-20.918Z"/></clipPath></defs><g transform="translate(-1328 -697)"><g class="b" transform="translate(1061 738)"><g class="c"><path d="M262-46h38V-6H262Z"/></g></g><g class="d" transform="translate(1061 738)"><g class="c"><path d="M264-26h13v12H264Z"/></g></g><g class="e" transform="translate(1061 738)"><g class="c"><path d="M264-28h15v13H264Z"/></g></g></g></svg>