<svg xmlns="http://www.w3.org/2000/svg" xmlns:xlink="http://www.w3.org/1999/xlink" width="24.974" height="30" viewBox="0 0 24.974 30"><defs><style>.a,.b,.h,.i{fill:none;}.a{clip-rule:evenodd;}.c{clip-path:url(#a);}.d{clip-path:url(#b);}.e{isolation:isolate;}.f{clip-path:url(#c);}.g{clip-path:url(#d);}.h,.i{stroke:#000;}.h{stroke-width:2px;}.i{stroke-linecap:round;stroke-linejoin:round;stroke-width:1.1px;}.j{clip-path:url(#e);}.k{clip-path:url(#f);}.l{clip-path:url(#g);}.m{clip-path:url(#h);}</style><clipPath id="a"><path class="a" d="M4.162-37H20.812a4.084,4.084,0,0,1,4.162,4v22a4.084,4.084,0,0,1-4.162,4H4.162A4.084,4.084,0,0,1,0-11V-33A4.084,4.084,0,0,1,4.162-37Z"/></clipPath><clipPath id="b"><path class="b" d="M-271,1543H1726.93V-979H-271Z" transform="translate(271 979)"/></clipPath><clipPath id="c"><rect class="b" width="47" height="50" transform="translate(0.225)"/></clipPath><clipPath id="d"><path class="b" d="M0-7H24.974V-37H0Z" transform="translate(0 37)"/></clipPath><clipPath id="e"><path class="a" d="M7.5-34h10A1.5,1.5,0,0,1,19-32.5,1.5,1.5,0,0,1,17.5-31H7.5A1.5,1.5,0,0,1,6-32.5,1.5,1.5,0,0,1,7.5-34Z"/></clipPath><clipPath id="f"><path class="b" d="M-271,1543H1649V-979H-271Z"/></clipPath><clipPath id="g"><rect class="b" width="33" height="23" transform="translate(-4 -44)"/></clipPath><clipPath id="h"><path class="b" d="M6-31H19v-3H6Z"/></clipPath></defs><g transform="translate(-1061 -701)"><g class="c" transform="translate(1061 738)"><g class="d" transform="translate(-281.999 -979)"><g class="e" transform="translate(270.774 932)"><g class="f" transform="translate(0)"><g class="g" transform="translate(11.225 10)"><path class="h" d="M4.162,0H20.812a4.084,4.084,0,0,1,4.162,4V26a4.084,4.084,0,0,1-4.162,4H4.162A4.084,4.084,0,0,1,0,26V4A4.084,4.084,0,0,1,4.162,0Z"/></g></g></g></g></g><g transform="translate(1067 723)"><path class="i" d="M.025,0c0,2.076-.319,3,1.336,3H12.542c1.7,0,1.445-1.476,1.445-3"/></g><g transform="translate(1073 710)"><path class="i" d="M.5,0V0Z"/></g><g transform="translate(1069 717)"><path class="i" d="M0,0,4.5,5,9,0"/></g><g class="j" transform="translate(1061 738)"><g class="k"><g class="e"><g class="l"><g class="m"><g transform="translate(6 -34)"><path class="h" d="M1.5,0h10a1.5,1.5,0,0,1,0,3H1.5a1.5,1.5,0,0,1,0-3Z"/></g></g></g></g></g></g></g></svg>