<svg xmlns="http://www.w3.org/2000/svg" xmlns:xlink="http://www.w3.org/1999/xlink" width="18.172" height="22.172" viewBox="0 0 18.172 22.172"><defs><style>.a,.b{fill:#a7b4cb;}.a,.c{clip-rule:evenodd;}.c,.d{fill:#0f171e;}.e{opacity:0.6;clip-path:url(#a);}.f{clip-path:url(#b);}.g{clip-path:url(#c);}.h{clip-path:url(#d);}</style><clipPath id="a"><path class="a" d="M23-6a1,1,0,0,1,1,1,1,1,0,0,1-1,1H7A1,1,0,0,1,6-5,1,1,0,0,1,7-6ZM16.879-25.293a3,3,0,0,1,4.243,0h0l2.171,2.172a3,3,0,0,1,0,4.243h0L22.414-18,16-24.414Z" transform="translate(-6 26.172)"/></clipPath><clipPath id="b"><path class="b" d="M-1139,544H781V-1401H-1139Z" transform="translate(1139 1401)"/></clipPath><clipPath id="c"><path class="c" d="M7.086-15.5,13.5-9.086l-.5.5A2,2,0,0,1,11.586-8H8a2,2,0,0,1-2-2H6v-3.586A2,2,0,0,1,6.586-15h0Zm7.5-7.5L21-16.586,14.914-10.5,8.5-16.914Z" transform="translate(-6 23)"/></clipPath><clipPath id="d"><path class="d" d="M-1139,544H781V-1401H-1139Z" transform="translate(1139 1401)"/></clipPath></defs><g class="e"><g class="f" transform="translate(-1145 -1374.828)"><path class="b" d="M1-31.172H29.172V1H1Z" transform="translate(1139 1401)"/></g></g><g class="g" transform="translate(0 3.172)"><g class="h" transform="translate(-1145 -1378)"><path class="d" d="M1-28H26V-3H1Z" transform="translate(1139 1401)"/></g></g></svg>