<svg xmlns="http://www.w3.org/2000/svg" width="54.313" height="47.351" viewBox="0 0 54.313 47.351"><defs><style>.a{fill:#0c4c98;fill-rule:evenodd;}</style></defs><path class="a" d="M53.14,271.816l.883,1.47a1.239,1.239,0,0,0,2.131,0l.883-1.47,1.619-2.792a1.25,1.25,0,0,0,0-1.248l-1.544-2.718-3.9-6.764-.958-1.619L49.316,251.6l-3.527-6.252a1.361,1.361,0,0,0-1.106-.661H18.725a1.226,1.226,0,0,0-1.106.661l-2.5,4.263a1.231,1.231,0,0,0,1.106,1.841H40.71a1.226,1.226,0,0,1,1.106.661l2.5,4.262a1.231,1.231,0,0,1-1.106,1.841H16.223a1.3,1.3,0,0,0-1.106,1.915L16,261.6l1.619,2.792a1.291,1.291,0,0,0,1.106.587H48.506a1.226,1.226,0,0,1,1.106.661l1.544,2.718Zm-6.1,6.764H20.195a1.255,1.255,0,0,0-1.106,1.841l2.428,4.263a1.361,1.361,0,0,0,1.106.661H47.036a1.3,1.3,0,0,1,1.106,1.915l-2.428,4.195a1.291,1.291,0,0,1-1.106.587H18.725a1.313,1.313,0,0,1-1.106-.587l-3.527-6.1L11.151,280.2l-.958-1.619-3.9-6.771-1.619-2.792a1.25,1.25,0,0,1,0-1.248l1.544-2.718.883-1.544a1.239,1.239,0,0,1,2.131,0l.883,1.544,1.915,3.385,1.032,1.767.587,1.032a1.291,1.291,0,0,0,1.106.587H44.534a1.226,1.226,0,0,1,1.106.661l2.428,4.263A1.192,1.192,0,0,1,47.036,278.58Z" transform="translate(-4.51 -244.69)"/></svg>