<svg xmlns="http://www.w3.org/2000/svg" width="434.263" height="134.84" viewBox="0 0 434.263 134.84"><defs><style>.a{fill:#0c4c98;fill-rule:evenodd;}.b{fill:#0e0f0f;}</style></defs><g transform="translate(-117.04 -162.69)"><path class="a" d="M83.23,288.6l1.43,2.38a2.005,2.005,0,0,0,3.45,0l1.43-2.38,2.62-4.52a2.024,2.024,0,0,0,0-2.02l-2.5-4.4-6.31-10.95-1.55-2.62-4.76-8.21-5.71-10.12a2.2,2.2,0,0,0-1.79-1.07H27.52a1.984,1.984,0,0,0-1.79,1.07l-4.05,6.9a1.992,1.992,0,0,0,1.79,2.98H63.11a1.984,1.984,0,0,1,1.79,1.07l4.05,6.9a1.992,1.992,0,0,1-1.79,2.98H23.47a2.1,2.1,0,0,0-1.79,3.1l1.43,2.38,2.62,4.52a2.09,2.09,0,0,0,1.79.95H75.73a1.984,1.984,0,0,1,1.79,1.07l2.5,4.4Zm-9.88,10.95H29.9a2.032,2.032,0,0,0-1.79,2.98l3.93,6.9a2.2,2.2,0,0,0,1.79,1.07H73.35a2.1,2.1,0,0,1,1.79,3.1l-3.93,6.79a2.09,2.09,0,0,1-1.79.95H27.52a2.126,2.126,0,0,1-1.79-.95l-5.71-9.88-4.76-8.33-1.55-2.62L7.4,288.6l-2.62-4.52a2.024,2.024,0,0,1,0-2.02l2.5-4.4,1.43-2.5a2.005,2.005,0,0,1,3.45,0l1.43,2.5,3.1,5.48L18.36,286l.95,1.67a2.09,2.09,0,0,0,1.79.95H69.3a1.984,1.984,0,0,1,1.79,1.07l3.93,6.9A1.93,1.93,0,0,1,73.35,299.55Z" transform="translate(285.701 -82)"/><path class="b" d="M273.47,279.67H252.99l-4.64-.12a2.081,2.081,0,0,0-2.02,2.02v13.69a2.081,2.081,0,0,0,2.02,2.02h2.62a2.081,2.081,0,0,0,2.02-2.02v-6.9a2.081,2.081,0,0,1,2.02-2.02h18.45a2.081,2.081,0,0,0,2.02-2.02V281.7A2.067,2.067,0,0,0,273.47,279.67Z"/><path class="b" d="M271.05,275.4h2.08l1.78.02c.07-.01.12-.02.19-.03h-4.03Z"/><path class="b" d="M276.94,270.77h0v0Z"/><path class="b" d="M274.91,268.72H248.24a2.081,2.081,0,0,0-2.02,2.02v2.62a2.081,2.081,0,0,0,2.02,2.02h26.85a2.087,2.087,0,0,0,1.83-1.78v-2.87A2.057,2.057,0,0,0,274.91,268.72Z"/><path class="b" d="M216.56,277.88a8.359,8.359,0,0,0-2.62-6.55,9.777,9.777,0,0,0-6.67-2.62h-16.9a9.25,9.25,0,0,0-6.67,2.62,8.525,8.525,0,0,0-2.62,6.55v10.48a8.359,8.359,0,0,0,2.62,6.55,9.777,9.777,0,0,0,6.67,2.62h17.02a9.777,9.777,0,0,0,6.67-2.62,8.525,8.525,0,0,0,2.62-6.55Zm-6.54,10.48c0,1.55-.95,2.38-2.74,2.38H190.49c-1.67,0-2.62-.83-2.62-2.38V277.88c0-1.55.83-2.38,2.62-2.38h16.9c1.67,0,2.62.83,2.62,2.38v10.48Z"/><path class="b" d="M143.23,279.55h-18.1c-.95,0-1.43-.71-1.43-2.14s.48-2.14,1.43-2.14h22.86a2.081,2.081,0,0,0,2.02-2.02v-2.62a2.081,2.081,0,0,0-2.02-2.02H125.13a7.381,7.381,0,0,0-5.83,2.74,9.772,9.772,0,0,0,0,12.5,8.1,8.1,0,0,0,5.95,2.62h18.1c.95,0,1.43.71,1.43,2.14s-.48,2.14-1.43,2.14H120.61a2.081,2.081,0,0,0-2.02,2.02v2.62a2.081,2.081,0,0,0,2.02,2.02h22.74a7.512,7.512,0,0,0,5.95-2.62,9.782,9.782,0,0,0,2.14-6.19,8.78,8.78,0,0,0-2.26-6.43A7.682,7.682,0,0,0,143.23,279.55Z"/><path class="b" d="M490.13,268.71h-2.62a2.081,2.081,0,0,0-2.02,2.02v24.64a2.081,2.081,0,0,0,2.02,2.02h2.62a2.081,2.081,0,0,0,2.02-2.02V270.73A2.074,2.074,0,0,0,490.13,268.71Z"/><path class="b" d="M394.78,279.67H374.3l-4.64-.12a2.081,2.081,0,0,0-2.02,2.02v13.69a2.081,2.081,0,0,0,2.02,2.02h2.62a2.081,2.081,0,0,0,2.02-2.02v-6.9a2.081,2.081,0,0,1,2.02-2.02h18.45a2.081,2.081,0,0,0,2.02-2.02V281.7A2.067,2.067,0,0,0,394.78,279.67Z"/><path class="b" d="M338.47,270.76v-.02a2.081,2.081,0,0,0-2.02-2.02H307.88a2.081,2.081,0,0,0-2.02,2.02v2.62a2.081,2.081,0,0,0,2.02,2.02h8.93a2.081,2.081,0,0,1,2.02,2.02v17.98a2.081,2.081,0,0,0,2.02,2.02h2.62a2.081,2.081,0,0,0,2.02-2.02V277.4a2.081,2.081,0,0,1,2.02-2.02h7.15l1.78.02a.425.425,0,0,0,.11-.02,2.068,2.068,0,0,0,1.83-1.46,2.381,2.381,0,0,0,.08-.32v-1l.01-1.84Z"/><path class="b" d="M392.35,275.39h2.08l1.78.02c.07-.01.12-.02.19-.03h-4.03Z"/><path class="b" d="M398.23,270.76v0Z"/><path class="b" d="M396.21,268.71H369.54a2.081,2.081,0,0,0-2.02,2.02v2.62a2.081,2.081,0,0,0,2.02,2.02h26.85a2.087,2.087,0,0,0,1.83-1.78v-2.87A2.071,2.071,0,0,0,396.21,268.71Z"/><path class="b" d="M455.73,292.8v-.03a2.081,2.081,0,0,0-2.02-2.02H435.73a2.081,2.081,0,0,1-2.02-2.02V270.75a2.081,2.081,0,0,0-2.02-2.02h-2.62a2.081,2.081,0,0,0-2.02,2.02v24.64a2.081,2.081,0,0,0,2.02,2.02h24.77a2.1,2.1,0,0,0,1.92-1.79l.01-2.84Z"/><path class="b" d="M551.11,269.96a2.059,2.059,0,0,0-1.83-1.24h-3.54a1.916,1.916,0,0,0-1.52.72l-3.64,4.34a2.146,2.146,0,0,0,0,2.65l1.7,2.05a2.083,2.083,0,0,0,3.15,0l5.39-6.39A2.007,2.007,0,0,0,551.11,269.96Z"/><path class="b" d="M550.85,294.07l-9.29-11.19-4.29-5.24-3.02-3.65-3.77-4.56a1.907,1.907,0,0,0-1.55-.71v-.01h-3.42a2.054,2.054,0,0,0-1.75,2.98,1.774,1.774,0,0,0,.23.35l1.72,2.05,6.07,7.36a2.13,2.13,0,0,1,0,2.62l-8.21,10a2.05,2.05,0,0,0,1.55,3.33h3.33a1.936,1.936,0,0,0,1.55-.71l5.6-6.67a2.042,2.042,0,0,1,3.1,0l5.6,6.67a1.907,1.907,0,0,0,1.55.71h3.45A2.05,2.05,0,0,0,550.85,294.07Z"/></g></svg>