<svg xmlns="http://www.w3.org/2000/svg" width="30" height="30" viewBox="0 0 30 30"><defs><style>.a{fill:#a7b4cb;opacity:0.6;}.b{fill:#16161f;}</style></defs><path class="a" d="M21,25a2,2,0,1,1,2-2A2,2,0,0,1,21,25ZM11,25a2,2,0,1,1,2-2A2,2,0,0,1,11,25Zm9.491-6H11.826A3,3,0,0,1,8.86,16.448l-.021-.176L8.1,8.2a.992.992,0,0,0-.437-.739L7.556,7.4l-1-.5A1,1,0,0,1,7.34,5.06l.108.046,1,.5a3.005,3.005,0,0,1,1.622,2.219l.024.193.139,1.526a.5.5,0,0,0,.413.447l.085.007H23.97a.962.962,0,0,1,.726.323.876.876,0,0,1,.211.7,11.232,11.232,0,0,1-.223,1.2l-.086.324-1.221,4.274a3,3,0,0,1-2.7,2.171Z"/><path class="b" d="M.106.553A1,1,0,0,1,1.447.106l1,.5A3,3,0,0,1,4.1,3.019l.734,8.072a1,1,0,0,0,1,.91h8.665a1,1,0,0,0,.962-.725l1.586-5.549a1,1,0,1,1,1.923.549l-1.586,5.549A3,3,0,0,1,14.492,14H5.827a3,3,0,0,1-2.988-2.728L2.105,3.2a1,1,0,0,0-.549-.8l-1-.5A1,1,0,0,1,.106.553Z" transform="translate(6 5)"/></svg>