<svg xmlns="http://www.w3.org/2000/svg" width="18" height="19" viewBox="0 0 18 19"><defs><style>.a{fill:rgba(255,85,78,0.4);opacity:0.6;}.b{fill:#ff554e;}</style></defs><g transform="translate(-6.4 -5.333)"><g transform="translate(6.4 5.333)"><path class="a" d="M14.21,19A1.9,1.9,0,1,1,16.1,17.1,1.9,1.9,0,0,1,14.21,19ZM4.737,19a1.9,1.9,0,1,1,1.894-1.9A1.9,1.9,0,0,1,4.737,19Zm8.991-5.7H5.519a2.845,2.845,0,0,1-2.81-2.425l-.02-.168-.7-7.667a.946.946,0,0,0-.415-.7l-.1-.062L.523,1.8A.953.953,0,0,1,.1.525.946.946,0,0,1,1.269.057l.1.044.951.477A2.854,2.854,0,0,1,3.858,2.686l.023.183.131,1.45a.474.474,0,0,0,.392.425l.08.007H17.023a.91.91,0,0,1,.688.307.833.833,0,0,1,.2.667A10.857,10.857,0,0,1,17.7,6.865l-.082.307-1.157,4.061A2.846,2.846,0,0,1,13.9,13.295Z" transform="translate(0)"/><path class="b" d="M.1.524A.947.947,0,0,1,1.371.1l.951.476A2.843,2.843,0,0,1,3.881,2.861l.7,7.65a.948.948,0,0,0,.943.862h8.209a.947.947,0,0,0,.911-.687l1.5-5.259a.947.947,0,1,1,1.822.521l-1.5,5.259a2.842,2.842,0,0,1-2.733,2.062H5.52a2.843,2.843,0,0,1-2.83-2.586l-.7-7.65a.948.948,0,0,0-.52-.762L.524,1.8A.948.948,0,0,1,.1.524Z" transform="translate(0 0)"/></g></g></svg>