<svg width="30" height="30" viewBox="0 0 30 30" fill="none" xmlns="http://www.w3.org/2000/svg">
<path opacity="0.6" fill-rule="evenodd" clip-rule="evenodd" d="M20 10H24C24.5523 10 25 10.4477 25 11V20C25 20.5523 24.5523 21 24 21H20V10Z" fill="#A7B4CB"/>
<path fill-rule="evenodd" clip-rule="evenodd" d="M19 10C15.2 10 15 5.8 15 5C15 3.89543 14.1046 3 13 3C11.8954 3 11 3.89543 11 5C10.9994 6.73806 11.4106 8.45154 12.2 10H6.30001C5.97354 9.98484 5.66026 10.1302 5.46099 10.3892C5.26172 10.6483 5.20161 10.9883 5.30001 11.3L7.80001 20.3C7.93576 20.7333 8.34641 21.0208 8.80001 21H20V10H19Z" fill="#16161F"/>
</svg>



