<svg xmlns="http://www.w3.org/2000/svg" width="18" height="14.727" viewBox="0 0 18 14.727"><defs><style>.a{fill:rgba(167,180,203,0.6);}.b{fill:#0f171e;}</style></defs><g transform="translate(-4 -6)"><g transform="translate(4 6)"><path class="a" d="M0,2.455A2.455,2.455,0,0,1,2.455,0H15.545A2.455,2.455,0,0,1,18,2.455v9.818a2.454,2.454,0,0,1-2.455,2.455H2.455A2.455,2.455,0,0,1,0,12.273Z"/><path class="b" d="M7,5H3A3,3,0,0,1,3-1H7A1,1,0,0,1,8,0V4A1,1,0,0,1,7,5ZM3,1A1,1,0,1,0,4,2,1,1,0,0,0,3,1Z" transform="translate(10 5.035)"/></g></g></svg>