<svg xmlns="http://www.w3.org/2000/svg" xmlns:xlink="http://www.w3.org/1999/xlink" width="20" height="20" viewBox="0 0 20 20"><defs><style>.a,.c{fill:rgba(167,180,203,0.6);}.a{clip-rule:evenodd;}.b{clip-path:url(#a);}</style><clipPath id="a"><path class="a" d="M54.369-68.458a4.811,4.811,0,0,1,4.173-4.173A42.09,42.09,0,0,1,64-73a42.092,42.092,0,0,1,5.458.369,4.811,4.811,0,0,1,4.173,4.173A42.081,42.081,0,0,1,74-63a42.083,42.083,0,0,1-.369,5.458,4.811,4.811,0,0,1-4.173,4.173A42.083,42.083,0,0,1,64-53a42.081,42.081,0,0,1-5.458-.369,4.811,4.811,0,0,1-4.173-4.173A42.09,42.09,0,0,1,54-63,42.088,42.088,0,0,1,54.369-68.458Z" transform="translate(-54 73)"/></clipPath></defs><g class="b" transform="translate(0 0)"><path class="c" d="M49-78H79v30H49Z" transform="translate(-54 73)"/></g></svg>