<svg xmlns="http://www.w3.org/2000/svg" xmlns:xlink="http://www.w3.org/1999/xlink" width="18.297" height="24.396" viewBox="0 0 18.297 24.396"><defs><style>.a{fill:rgba(60,156,222,0.3);}.b{fill:#3c9cde;}.c{clip-path:url(#a);}.d{clip-path:url(#b);}</style><clipPath id="a"><path class="a" d="M11.436-24c-5.2,3-4.574,11.436-4.574,11.436s-2.287-.762-2.287-4.193A9.3,9.3,0,0,0,0-8.753,9.148,9.148,0,0,0,9.148.4,9.148,9.148,0,0,0,18.3-8.753C18.3-16.186,11.436-17.71,11.436-24Z" transform="translate(0 24)"/></clipPath><clipPath id="b"><path class="b" d="M9.86-2.935A3.431,3.431,0,0,1,5.7-5.433,3.431,3.431,0,0,1,8.2-9.592c4.438-1.107,4.995-3.6,4.995-3.6S15.408-4.318,9.86-2.935Z" transform="translate(-5.598 13.195)"/></clipPath></defs><g class="c"><path class="a" d="M-5-29H23.462V5.561H-5Z" transform="translate(-0.082 23.917)"/></g><g class="d" transform="translate(5.691 10.984)"><path class="b" d="M.6-18.195H18.8V2.333H.6Z" transform="translate(-5.681 13.112)"/></g></svg>