<svg xmlns="http://www.w3.org/2000/svg" xmlns:xlink="http://www.w3.org/1999/xlink" width="17.348" height="23.981" viewBox="0 0 17.348 23.981"><defs><style>.a,.g{fill:#3c9cde;}.a,.b,.c{clip-rule:evenodd;}.b,.k{fill:rgba(60,156,222,0.3);}.c,.d,.e,.r{fill:none;}.d,.r{stroke:#3c9cde;}.f{clip-path:url(#a);}.h{clip-path:url(#b);}.i{clip-path:url(#c);}.j{clip-path:url(#d);}.l{clip-path:url(#e);}.m{clip-path:url(#f);}.n{clip-path:url(#g);}.o{isolation:isolate;}.p{clip-path:url(#h);}.q{clip-path:url(#i);}.r{stroke-width:4px;}</style><clipPath id="a"><path class="a" d="M1.02-12h1.02a1.02,1.02,0,0,1,1.02,1.02,1.02,1.02,0,0,1-1.02,1.02H1.02A1.02,1.02,0,0,1,0-10.98,1.02,1.02,0,0,1,1.02-12Z" transform="translate(0 12)"/></clipPath><clipPath id="b"><path class="a" d="M15.02-12h1.02a1.02,1.02,0,0,1,1.02,1.02,1.02,1.02,0,0,1-1.02,1.02H15.02A1.02,1.02,0,0,1,14-10.98,1.02,1.02,0,0,1,15.02-12Z" transform="translate(-14 12)"/></clipPath><clipPath id="c"><path class="a" d="M7.5-21.459v-1.02A1.02,1.02,0,0,1,8.52-23.5a1.02,1.02,0,0,1,1.02,1.02v1.02a1.02,1.02,0,0,1-1.02,1.02A1.02,1.02,0,0,1,7.5-21.459Z" transform="translate(-7.5 23.5)"/></clipPath><clipPath id="d"><path class="b" d="M8.633-22a6.633,6.633,0,0,1,6.633,6.633V-1.591A2.041,2.041,0,0,1,13.225.45H4.041A2.041,2.041,0,0,1,2-1.591V-15.367A6.633,6.633,0,0,1,8.633-22Z" transform="translate(-2 22)"/></clipPath><clipPath id="e"><path class="a" d="M2.02-2H15.287a1.02,1.02,0,0,1,1.02,1.02,1.02,1.02,0,0,1-1.02,1.02H2.02A1.02,1.02,0,0,1,1-.98,1.02,1.02,0,0,1,2.02-2Z" transform="translate(-1 2)"/></clipPath><clipPath id="f"><path class="a" d="M2.02-17H15.287a1.02,1.02,0,0,1,1.02,1.02,1.02,1.02,0,0,1-1.02,1.02H2.02A1.02,1.02,0,0,1,1-15.98,1.02,1.02,0,0,1,2.02-17Z" transform="translate(-1 17)"/></clipPath><clipPath id="g"><path class="c" d="M8.561-7.877a3.061,3.061,0,0,0,3.061-3.061A3.061,3.061,0,0,0,8.561-14,3.061,3.061,0,0,0,5.5-10.939,3.061,3.061,0,0,0,8.561-7.877Z" transform="translate(-5.5 14)"/></clipPath><clipPath id="h"><rect class="d" width="47.962" height="46.941"/></clipPath><clipPath id="i"><path class="e" d="M5-7.877h7.143V-14H5Z" transform="translate(-5 14)"/></clipPath></defs><g transform="translate(0 23.5)"><g class="f" transform="translate(0 -11.765)"><path class="g" d="M-5-17H8.266V-4.754H-5Z" transform="translate(-0.102 11.898)"/></g><g class="h" transform="translate(14.287 -11.765)"><path class="g" d="M9-17H22.266V-4.754H9Z" transform="translate(-14.102 11.898)"/></g><g class="i" transform="translate(7.653 -23.5)"><path class="g" d="M2.5-15.234V-28.5H14.746v13.266Z" transform="translate(-7.602 23.398)"/></g><g class="j" transform="translate(2.041 -21.969)"><path class="k" d="M-3-27H20.471V5.655H-3Z" transform="translate(-2.102 21.898)"/></g><g class="l" transform="translate(1.02 -1.56)"><path class="g" d="M-4-7H21.512V5.246H-4Z" transform="translate(-1.102 1.898)"/></g><g class="m" transform="translate(1.02 -16.867)"><path class="g" d="M-4-22H21.512V-9.754H-4Z" transform="translate(-1.102 16.898)"/></g><g class="n" transform="translate(5.613 -13.806)"><g class="o" transform="translate(-20.92 -20.409)"><g class="p"><g class="q" transform="translate(20.409 20.409)"><g transform="translate(0.51)"><path class="r" d="M3.061,6.123A3.061,3.061,0,1,0,0,3.061,3.061,3.061,0,0,0,3.061,6.123Z"/></g></g></g></g></g></g></svg>