<svg xmlns="http://www.w3.org/2000/svg" xmlns:xlink="http://www.w3.org/1999/xlink" width="249.401" height="127.372" viewBox="0 0 249.401 127.372"><defs><style>.a{fill:url(#a);}.b{fill:url(#b);}.c{fill:#3f3f3f;}</style><linearGradient id="a" x1="0.211" y1="0.22" x2="0.685" y2="0.572" gradientUnits="objectBoundingBox"><stop offset="0.606" stop-color="#0071bc" stop-opacity="0.698"/><stop offset="0.607" stop-color="#0071bc" stop-opacity="0.718"/><stop offset="0.613" stop-color="#0071bc" stop-opacity="0.784"/><stop offset="0.62" stop-color="#0071bc" stop-opacity="0.82"/><stop offset="0.64" stop-color="#0071bc" stop-opacity="0.831"/><stop offset="0.687" stop-color="#0071bc" stop-opacity="0.8"/><stop offset="0.856" stop-color="#0071bc" stop-opacity="0.725"/><stop offset="1" stop-color="#0071bc" stop-opacity="0.698"/></linearGradient><linearGradient id="b" x1="0.162" y1="-0.145" x2="0.734" y2="1.075" gradientUnits="objectBoundingBox"><stop offset="0" stop-color="#0071bc" stop-opacity="0.898"/><stop offset="0.606" stop-color="#0071bc" stop-opacity="0.698"/><stop offset="0.607" stop-color="#0071bc" stop-opacity="0.718"/><stop offset="0.613" stop-color="#0071bc" stop-opacity="0.784"/><stop offset="0.62" stop-color="#0071bc" stop-opacity="0.82"/><stop offset="0.64" stop-color="#0071bc" stop-opacity="0.831"/><stop offset="0.687" stop-color="#0071bc" stop-opacity="0.8"/><stop offset="0.856" stop-color="#0071bc" stop-opacity="0.725"/><stop offset="1" stop-color="#0071bc" stop-opacity="0.698"/></linearGradient></defs><g transform="translate(-1294.392 -1021.415)"><g transform="translate(1378.193 1021.415)"><path class="a" d="M1494.521,1107.922c-30.41-17.249-31.51-54.969-31.123-66.12,0-.1,0-.2,0-.3-.034-3.012,1.55-4.1,2.884-4.483,11.359-3.257,27.749-14.766,27.885-14.881a3,3,0,0,1,3.295-.4l26.133,14.534a33.366,33.366,0,0,1,4.434,2.578c1.385.908-4.156,4.272-7.122,2.784l-24.387-13.659c-3.883,3.125-17.2,11.063-27.138,14.365-.324,10.685.9,44.945,28.1,60.369.314.178.831.432,4.3,2.22,1.4.72-1.62,3.7-5.208,3.7A4.8,4.8,0,0,1,1494.521,1107.922Z" transform="translate(-1463.348 -1021.415)"/><g transform="translate(23.74 32.04)"><path class="b" d="M1569.152,1105.254l-1.826-10.122a11.086,11.086,0,0,0-10.91-9.118h-32.355a11.086,11.086,0,0,0-10.91,9.118l-1.826,10.122a7.012,7.012,0,0,0,6.9,8.256h13.658a8.5,8.5,0,0,0,6.17-2.655l.478-.5a2.458,2.458,0,0,1,3.492-.078l1.547,1.494a6.213,6.213,0,0,0,4.315,1.743h14.366A7.011,7.011,0,0,0,1569.152,1105.254Z" transform="translate(-1511.212 -1086.013)"/></g></g><g transform="translate(1294.392 1121.853)"><path class="c" d="M1305.183,1250.847c-4.179,0-7.473-.661-10.3-2.615a1.11,1.11,0,0,1-.1-1.764l1.513-1.279a2.422,2.422,0,0,1,2.725-.284,12.879,12.879,0,0,0,6.207,1.329c3.654,0,5.59-1.191,5.59-3.311a2.732,2.732,0,0,0-.969-2.195,4.942,4.942,0,0,0-2.817-.893l-3.742-.484a11.366,11.366,0,0,1-6.075-2.195,6.374,6.374,0,0,1-2.245-5.208c0-4.725,4.138-8.036,10.916-8.036,3.743,0,6.592.672,9.034,2.284a1.013,1.013,0,0,1,.107,1.625l-1.566,1.308a2.319,2.319,0,0,1-2.551.3,11.164,11.164,0,0,0-5.2-1.012c-3.257,0-4.8,1.525-4.8,3.348a2.276,2.276,0,0,0,.88,1.9,5.585,5.585,0,0,0,2.861,1l3.742.484c2.861.335,4.622.967,5.986,2.083a6.64,6.64,0,0,1,2.421,5.58C1316.8,1247.946,1311.786,1250.847,1305.183,1250.847Z" transform="translate(-1294.393 -1223.913)"/><path class="c" d="M1431.512,1249.747v-24.28a1.1,1.1,0,0,1,1.1-1.1h3.912a1.1,1.1,0,0,1,1.1,1.1v24.28a1.1,1.1,0,0,1-1.1,1.1h-3.912A1.1,1.1,0,0,1,1431.512,1249.747Z" transform="translate(-1363.501 -1224.14)"/><path class="c" d="M1469.228,1248.358v-22.891a1.1,1.1,0,0,1,1.1-1.1h3.911a1.1,1.1,0,0,1,1.1,1.1v19.172a1.1,1.1,0,0,0,1.1,1.1h12.01a1.1,1.1,0,0,1,1.1,1.1v2.9a1.1,1.1,0,0,1-1.1,1.1h-16.74A2.493,2.493,0,0,1,1469.228,1248.358Z" transform="translate(-1382.51 -1224.14)"/><path class="c" d="M1655.677,1249.747v-24.28a1.1,1.1,0,0,1,1.1-1.1h3.912a1.1,1.1,0,0,1,1.1,1.1v24.28a1.1,1.1,0,0,1-1.1,1.1h-3.912A1.1,1.1,0,0,1,1655.677,1249.747Z" transform="translate(-1476.482 -1224.14)"/><path class="c" d="M1755.6,1248.333v-21.477a2.493,2.493,0,0,1,2.493-2.493h17.048a1.1,1.1,0,0,1,1.1,1.1v2.9a1.1,1.1,0,0,1-1.1,1.1h-12.319a1.1,1.1,0,0,0-1.1,1.1v3.01a1.1,1.1,0,0,0,1.1,1.1h10.162a1.1,1.1,0,0,1,1.1,1.1v2.906a1.1,1.1,0,0,1-1.1,1.1h-10.162a1.1,1.1,0,0,0-1.1,1.1v3.733a1.1,1.1,0,0,0,1.1,1.1h12.319a1.1,1.1,0,0,1,1.1,1.1v2.9a1.1,1.1,0,0,1-1.1,1.1h-17.024A2.517,2.517,0,0,1,1755.6,1248.333Z" transform="translate(-1526.844 -1224.14)"/><g transform="translate(194.891 0.223)"><path class="c" d="M1700.981,1250.851h-3.072a1.1,1.1,0,0,1-1.028-.7l-9.483-24.281a1.1,1.1,0,0,1,1.028-1.5h3.951a1.1,1.1,0,0,1,1.037.725l5.4,14.817a.668.668,0,0,0,1.255,0l5.4-14.817a1.1,1.1,0,0,1,1.037-.725h3.993a1.1,1.1,0,0,1,1.027,1.506l-9.523,24.281A1.1,1.1,0,0,1,1700.981,1250.851Z" transform="translate(-1687.323 -1224.363)"/></g><g transform="translate(33.458 0.223)"><path class="c" d="M1384.6,1226.242a1.1,1.1,0,0,0-.786-1.878h-5.084c-1.718,0-7.127,5.366-10.214,11.358a.328.328,0,0,1-.622-.156l.071-3.3v-6.795a1.1,1.1,0,0,0-1.1-1.1h-3.911a1.1,1.1,0,0,0-1.1,1.1v24.281a1.1,1.1,0,0,0,1.1,1.1h3.912a1.1,1.1,0,0,0,1.1-1.1C1370.457,1234.95,1384.6,1226.242,1384.6,1226.242Z" transform="translate(-1361.848 -1224.363)"/><path class="c" d="M1398.761,1261.307l-8.882-12.528c-.924-1.325-3.9,3.464-2.157,6.358l4.792,7.415a1.1,1.1,0,0,0,.918.49h4.425A1.1,1.1,0,0,0,1398.761,1261.307Z" transform="translate(-1374.617 -1236.554)"/></g></g><path class="c" d="M1530.9,1248.358v-22.891a1.1,1.1,0,0,1,1.1-1.1h3.912a1.1,1.1,0,0,1,1.1,1.1v19.172a1.1,1.1,0,0,0,1.1,1.1h12.011a1.1,1.1,0,0,1,1.1,1.1v2.9a1.1,1.1,0,0,1-1.1,1.1H1533.4A2.493,2.493,0,0,1,1530.9,1248.358Z" transform="translate(-119.204 -102.288)"/><path class="c" d="M1599.005,1250.847c-4.179,0-7.473-.661-10.3-2.615a1.11,1.11,0,0,1-.1-1.764l1.512-1.279a2.422,2.422,0,0,1,2.725-.284,12.881,12.881,0,0,0,6.208,1.329c3.653,0,5.59-1.191,5.59-3.311a2.732,2.732,0,0,0-.969-2.195,4.942,4.942,0,0,0-2.817-.893l-3.741-.484a11.366,11.366,0,0,1-6.074-2.195,6.372,6.372,0,0,1-2.245-5.208c0-4.725,4.138-8.036,10.916-8.036,3.743,0,6.592.672,9.034,2.284a1.013,1.013,0,0,1,.107,1.625l-1.566,1.308a2.32,2.32,0,0,1-2.551.3,11.165,11.165,0,0,0-5.2-1.012c-3.257,0-4.8,1.525-4.8,3.348a2.277,2.277,0,0,0,.88,1.9,5.587,5.587,0,0,0,2.861,1l3.742.484c2.861.335,4.622.967,5.986,2.083a6.641,6.641,0,0,1,2.421,5.58C1610.626,1247.946,1605.608,1250.847,1599.005,1250.847Z" transform="translate(-148.089 -102.06)"/></g></svg>