<svg xmlns="http://www.w3.org/2000/svg" xmlns:xlink="http://www.w3.org/1999/xlink" width="76.377" height="81.434" viewBox="0 0 76.377 81.434"><defs><style>.a{fill:url(#a);}.b{fill:url(#b);}</style><linearGradient id="a" x1="0.211" y1="0.22" x2="0.685" y2="0.572" gradientUnits="objectBoundingBox"><stop offset="0.606" stop-color="#0071bc" stop-opacity="0.698"/><stop offset="0.607" stop-color="#0071bc" stop-opacity="0.718"/><stop offset="0.613" stop-color="#0071bc" stop-opacity="0.784"/><stop offset="0.62" stop-color="#0071bc" stop-opacity="0.82"/><stop offset="0.64" stop-color="#0071bc" stop-opacity="0.831"/><stop offset="0.687" stop-color="#0071bc" stop-opacity="0.8"/><stop offset="0.856" stop-color="#0071bc" stop-opacity="0.725"/><stop offset="1" stop-color="#0071bc" stop-opacity="0.698"/></linearGradient><linearGradient id="b" x1="0.162" y1="-0.145" x2="0.734" y2="1.075" gradientUnits="objectBoundingBox"><stop offset="0" stop-color="#0071bc" stop-opacity="0.898"/><stop offset="0.606" stop-color="#0071bc" stop-opacity="0.698"/><stop offset="0.607" stop-color="#0071bc" stop-opacity="0.718"/><stop offset="0.613" stop-color="#0071bc" stop-opacity="0.784"/><stop offset="0.62" stop-color="#0071bc" stop-opacity="0.82"/><stop offset="0.64" stop-color="#0071bc" stop-opacity="0.831"/><stop offset="0.687" stop-color="#0071bc" stop-opacity="0.8"/><stop offset="0.856" stop-color="#0071bc" stop-opacity="0.725"/><stop offset="1" stop-color="#0071bc" stop-opacity="0.698"/></linearGradient></defs><g transform="translate(-1463.348 -1021.415)"><g transform="translate(1463.348 1021.415)"><path class="a" d="M1492.456,1102.193c-28.4-16.106-29.423-51.329-29.062-61.742,0-.093,0-.188,0-.281-.032-2.812,1.447-3.829,2.693-4.186,10.607-3.041,25.912-13.788,26.038-13.9a2.8,2.8,0,0,1,3.077-.377l24.4,13.572a31.2,31.2,0,0,1,4.141,2.407c1.293.848-3.881,3.99-6.651,2.6l-22.772-12.754c-3.625,2.918-16.064,10.331-25.341,13.414-.3,9.978.843,41.968,26.237,56.371.293.166.776.4,4.014,2.073,1.3.672-1.513,3.455-4.863,3.455A4.488,4.488,0,0,1,1492.456,1102.193Z" transform="translate(-1463.348 -1021.415)"/></g><g transform="translate(1485.516 1051.333)"><path class="b" d="M1565.315,1103.979l-1.7-9.452a10.352,10.352,0,0,0-10.187-8.515H1523.21a10.352,10.352,0,0,0-10.187,8.515l-1.7,9.452a6.547,6.547,0,0,0,6.443,7.71h12.754a7.937,7.937,0,0,0,5.762-2.479l.446-.471a2.3,2.3,0,0,1,3.26-.073l1.445,1.395a5.8,5.8,0,0,0,4.029,1.628h13.415A6.547,6.547,0,0,0,1565.315,1103.979Z" transform="translate(-1511.212 -1086.013)"/></g></g></svg>