<svg xmlns="http://www.w3.org/2000/svg" xmlns:xlink="http://www.w3.org/1999/xlink" width="257.377" height="68.358" viewBox="0 0 257.377 68.358"><defs><style>.a{fill:url(#a);}.b{fill:#2e2f2e;}.c{fill:#e4e3e3;font-size:12px;font-family:Calibri-Bold, Calibri;font-weight:700;letter-spacing:0.17em;}</style><linearGradient id="a" x1="0.235" y1="0.289" x2="0.692" y2="0.707" gradientUnits="objectBoundingBox"><stop offset="0.538" stop-color="#4098d8" stop-opacity="0.831"/><stop offset="0.541" stop-color="#187fc6"/></linearGradient></defs><g transform="translate(-127.455 -223.867)"><path class="a" d="M151.043,289.325c-23.01-13.052-23.843-41.594-23.55-50.031,0-.076,0-.153,0-.228-.026-2.279,1.173-3.1,2.183-3.392,8.6-2.465,21-11.173,21.1-11.261a2.271,2.271,0,0,1,2.493-.305l19.774,11a25.258,25.258,0,0,1,3.355,1.951c1.048.687-3.145,3.233-5.389,2.107l-18.453-10.335A87.744,87.744,0,0,1,132.021,239.7c-.245,8.085.683,34.008,21.261,45.68.237.134.629.327,3.253,1.68,1.057.545-1.226,2.8-3.94,2.8A3.637,3.637,0,0,1,151.043,289.325Zm33-20.408h-10.87A4.7,4.7,0,0,1,169.9,267.6l-1.171-1.13a1.86,1.86,0,0,0-2.642.059l-.361.381a6.432,6.432,0,0,1-4.67,2.009H150.725a5.305,5.305,0,0,1-5.221-6.247l1.382-7.66a8.389,8.389,0,0,1,8.255-6.9h24.482a8.389,8.389,0,0,1,8.255,6.9l1.382,7.66A5.305,5.305,0,0,1,184.039,268.917Z" transform="translate(0)"/><g transform="translate(196.116 248.324)"><path class="b" d="M278.2,295.036c-3.162,0-5.655-.5-7.8-1.979a.84.84,0,0,1-.075-1.335l1.145-.967a1.832,1.832,0,0,1,2.062-.215,9.745,9.745,0,0,0,4.7,1.005c2.765,0,4.23-.9,4.23-2.505a2.068,2.068,0,0,0-.733-1.661,3.74,3.74,0,0,0-2.132-.676l-2.831-.366a8.594,8.594,0,0,1-4.6-1.661,4.822,4.822,0,0,1-1.7-3.941c0-3.575,3.131-6.081,8.26-6.081a11.853,11.853,0,0,1,6.836,1.729.766.766,0,0,1,.08,1.23l-1.185.99a1.755,1.755,0,0,1-1.931.224,8.448,8.448,0,0,0-3.935-.766c-2.465,0-3.63,1.154-3.63,2.534a1.724,1.724,0,0,0,.666,1.435,4.222,4.222,0,0,0,2.165.76l2.831.366a8.269,8.269,0,0,1,4.529,1.577A5.023,5.023,0,0,1,287,288.956C287,292.84,283.2,295.036,278.2,295.036Z" transform="translate(-270.039 -274.655)"/><path class="b" d="M376.906,294.214V275.841a.835.835,0,0,1,.835-.835h2.96a.835.835,0,0,1,.835.835v18.372a.835.835,0,0,1-.835.835h-2.96A.835.835,0,0,1,376.906,294.214Z" transform="translate(-325.444 -274.837)"/><path class="b" d="M406.3,293.162V275.841a.835.835,0,0,1,.835-.835h2.96a.835.835,0,0,1,.835.835v14.507a.835.835,0,0,0,.835.835h9.089a.835.835,0,0,1,.835.835v2.2a.835.835,0,0,1-.835.835H408.187A1.886,1.886,0,0,1,406.3,293.162Z" transform="translate(-340.684 -274.837)"/><path class="b" d="M551.615,294.214V275.841a.835.835,0,0,1,.835-.835h2.96a.835.835,0,0,1,.835.835v18.372a.835.835,0,0,1-.835.835h-2.96A.835.835,0,0,1,551.615,294.214Z" transform="translate(-416.022 -274.837)"/><path class="b" d="M629.493,293.143V276.892a1.887,1.887,0,0,1,1.887-1.886h12.9a.835.835,0,0,1,.835.835v2.2a.835.835,0,0,1-.835.835h-9.321a.835.835,0,0,0-.835.835v2.278a.835.835,0,0,0,.835.835h7.689a.835.835,0,0,1,.835.835v2.2a.835.835,0,0,1-.835.835h-7.689a.835.835,0,0,0-.835.835v2.825a.835.835,0,0,0,.835.835h9.321a.835.835,0,0,1,.835.835v2.2a.835.835,0,0,1-.835.835H631.4A1.905,1.905,0,0,1,629.493,293.143Z" transform="translate(-456.398 -274.837)"/><g transform="translate(147.47 0.169)"><path class="b" d="M586.614,295.049H584.29a.835.835,0,0,1-.778-.531l-7.175-18.372a.835.835,0,0,1,.778-1.139h2.99a.836.836,0,0,1,.784.549l4.088,11.211a.505.505,0,0,0,.949,0l4.088-11.211a.836.836,0,0,1,.784-.549h3.021a.835.835,0,0,1,.777,1.14l-7.205,18.373A.835.835,0,0,1,586.614,295.049Z" transform="translate(-576.279 -275.006)"/></g><g transform="translate(25.317 0.169)"><path class="b" d="M339.829,276.428a.835.835,0,0,0-.594-1.422h-3.847c-1.3,0-5.393,4.06-7.729,8.594a.248.248,0,0,1-.47-.118l.053-2.5v-5.142a.835.835,0,0,0-.835-.835h-2.96a.835.835,0,0,0-.835.835v18.372a.835.835,0,0,0,.835.835h2.96a.835.835,0,0,0,.835-.835C329.127,283.017,339.829,276.428,339.829,276.428Z" transform="translate(-322.613 -275.006)"/><path class="b" d="M351.118,303.51l-6.721-9.48c-.7-1-2.955,2.621-1.632,4.811l3.626,5.611a.836.836,0,0,0,.694.371h3.349A.835.835,0,0,0,351.118,303.51Z" transform="translate(-332.849 -284.78)"/></g><path class="b" d="M454.37,293.162V275.841a.835.835,0,0,1,.835-.835h2.96a.835.835,0,0,1,.835.835v14.507a.835.835,0,0,0,.835.835h9.088a.835.835,0,0,1,.835.835v2.2a.835.835,0,0,1-.835.835H456.257A1.886,1.886,0,0,1,454.37,293.162Z" transform="translate(-365.606 -274.837)"/><path class="b" d="M507.2,295.036c-3.162,0-5.655-.5-7.8-1.979a.84.84,0,0,1-.075-1.335l1.145-.967a1.832,1.832,0,0,1,2.062-.215,9.745,9.745,0,0,0,4.7,1.005c2.765,0,4.23-.9,4.23-2.505a2.068,2.068,0,0,0-.733-1.661,3.739,3.739,0,0,0-2.132-.676l-2.831-.366a8.6,8.6,0,0,1-4.6-1.661,4.822,4.822,0,0,1-1.7-3.941c0-3.575,3.131-6.081,8.26-6.081a11.853,11.853,0,0,1,6.836,1.729.766.766,0,0,1,.08,1.23l-1.185.99a1.755,1.755,0,0,1-1.931.224,8.448,8.448,0,0,0-3.935-.766c-2.465,0-3.63,1.154-3.63,2.534a1.724,1.724,0,0,0,.666,1.435,4.222,4.222,0,0,0,2.165.76l2.831.366a8.27,8.27,0,0,1,4.53,1.577,5.023,5.023,0,0,1,1.832,4.223C515.995,292.84,512.2,295.036,507.2,295.036Z" transform="translate(-388.763 -274.655)"/></g><text class="c" transform="translate(221.433 289.225)"><tspan x="0" y="0">SKILLS I HAVE</tspan></text></g></svg>