<svg xmlns="http://www.w3.org/2000/svg" xmlns:xlink="http://www.w3.org/1999/xlink" width="159.506" height="38.122" viewBox="0 0 159.506 38.122"><defs><style>.a{fill:url(#a);}.b{fill:url(#b);}.c{fill:#3f3f3f;}</style><linearGradient id="a" x1="0.211" y1="0.22" x2="0.685" y2="0.572" gradientUnits="objectBoundingBox"><stop offset="0.606" stop-color="#0071bc" stop-opacity="0.698"/><stop offset="0.607" stop-color="#0071bc" stop-opacity="0.718"/><stop offset="0.613" stop-color="#0071bc" stop-opacity="0.784"/><stop offset="0.62" stop-color="#0071bc" stop-opacity="0.82"/><stop offset="0.64" stop-color="#0071bc" stop-opacity="0.831"/><stop offset="0.687" stop-color="#0071bc" stop-opacity="0.8"/><stop offset="0.856" stop-color="#0071bc" stop-opacity="0.725"/><stop offset="1" stop-color="#0071bc" stop-opacity="0.698"/></linearGradient><linearGradient id="b" x1="0.162" y1="-0.145" x2="0.734" y2="1.075" gradientUnits="objectBoundingBox"><stop offset="0" stop-color="#0071bc" stop-opacity="0.898"/><stop offset="0.606" stop-color="#0071bc" stop-opacity="0.698"/><stop offset="0.607" stop-color="#0071bc" stop-opacity="0.718"/><stop offset="0.613" stop-color="#0071bc" stop-opacity="0.784"/><stop offset="0.62" stop-color="#0071bc" stop-opacity="0.82"/><stop offset="0.64" stop-color="#0071bc" stop-opacity="0.831"/><stop offset="0.687" stop-color="#0071bc" stop-opacity="0.8"/><stop offset="0.856" stop-color="#0071bc" stop-opacity="0.725"/><stop offset="1" stop-color="#0071bc" stop-opacity="0.698"/></linearGradient></defs><g transform="translate(-2165.683 -1115.898)"><g transform="translate(2165.683 1115.898)"><path class="a" d="M2177.279,1151.546c-13.293-7.54-13.773-24.029-13.6-28.9,0-.044,0-.088,0-.131a1.768,1.768,0,0,1,1.261-1.96c4.966-1.424,12.13-6.454,12.189-6.505a1.312,1.312,0,0,1,1.44-.176l11.424,6.353a14.586,14.586,0,0,1,1.938,1.127c.605.4-1.817,1.868-3.114,1.217l-10.66-5.97a50.68,50.68,0,0,1-11.862,6.279c-.142,4.671.395,19.646,12.282,26.389.137.078.363.189,1.879.97.611.315-.708,1.617-2.276,1.617A2.1,2.1,0,0,1,2177.279,1151.546Z" transform="translate(-2163.652 -1113.732)"/><g transform="translate(10.377 14.006)"><path class="b" d="M2236.843,1186.741l-.8-4.425a4.845,4.845,0,0,0-4.769-3.986h-14.143a4.846,4.846,0,0,0-4.769,3.986l-.8,4.425a3.065,3.065,0,0,0,3.017,3.609h5.97a3.716,3.716,0,0,0,2.7-1.16l.208-.22a1.074,1.074,0,0,1,1.526-.034l.676.653a2.717,2.717,0,0,0,1.886.762h6.28A3.065,3.065,0,0,0,2236.843,1186.741Z" transform="translate(-2211.515 -1178.33)"/></g></g><g transform="translate(2207.401 1129.63)"><path class="c" d="M2352.978,1191.619a8.163,8.163,0,0,1-4.866-1.235.525.525,0,0,1-.046-.833l.714-.6a1.144,1.144,0,0,1,1.287-.134,6.084,6.084,0,0,0,2.932.627c1.726,0,2.64-.562,2.64-1.564a1.291,1.291,0,0,0-.457-1.037,2.336,2.336,0,0,0-1.331-.422l-1.767-.228a5.372,5.372,0,0,1-2.869-1.036,3.011,3.011,0,0,1-1.06-2.46c0-2.231,1.954-3.795,5.156-3.795a7.4,7.4,0,0,1,4.267,1.079.478.478,0,0,1,.05.768l-.739.618a1.1,1.1,0,0,1-1.205.14,5.27,5.27,0,0,0-2.456-.478c-1.539,0-2.266.72-2.266,1.581a1.075,1.075,0,0,0,.415.9,2.638,2.638,0,0,0,1.352.474l1.767.228a5.16,5.16,0,0,1,2.827.984,3.137,3.137,0,0,1,1.144,2.636C2358.466,1190.248,2356.1,1191.619,2352.978,1191.619Z" transform="translate(-2347.882 -1178.898)"/><path class="c" d="M2485,1191.336v-11.467a.521.521,0,0,1,.521-.521h1.847a.521.521,0,0,1,.522.521v11.467a.521.521,0,0,1-.522.521h-1.847A.521.521,0,0,1,2485,1191.336Z" transform="translate(-2452.882 -1179.243)"/><path class="c" d="M2522.715,1190.68v-10.811a.521.521,0,0,1,.521-.521h1.848a.521.521,0,0,1,.521.521v9.054a.521.521,0,0,0,.521.521h5.673a.521.521,0,0,1,.521.521v1.37a.521.521,0,0,1-.521.521h-7.906A1.177,1.177,0,0,1,2522.715,1190.68Z" transform="translate(-2481.76 -1179.243)"/><path class="c" d="M2709.164,1191.336v-11.467a.521.521,0,0,1,.521-.521h1.847a.521.521,0,0,1,.521.521v11.467a.521.521,0,0,1-.521.521h-1.847A.521.521,0,0,1,2709.164,1191.336Z" transform="translate(-2624.533 -1179.243)"/><path class="c" d="M2809.089,1190.669v-10.143a1.177,1.177,0,0,1,1.177-1.177h8.052a.521.521,0,0,1,.521.521v1.371a.521.521,0,0,1-.521.521H2812.5a.521.521,0,0,0-.521.521v1.422a.521.521,0,0,0,.521.521h4.8a.521.521,0,0,1,.521.521v1.372a.521.521,0,0,1-.521.521h-4.8a.521.521,0,0,0-.521.521v1.763a.521.521,0,0,0,.521.521h5.818a.521.521,0,0,1,.521.521v1.37a.521.521,0,0,1-.521.521h-8.04A1.189,1.189,0,0,1,2809.089,1190.669Z" transform="translate(-2701.052 -1179.243)"/><g transform="translate(92.044 0.105)"><path class="c" d="M2747.262,1191.858h-1.45a.522.522,0,0,1-.486-.332l-4.478-11.467a.521.521,0,0,1,.485-.711h1.866a.522.522,0,0,1,.49.343l2.552,7a.315.315,0,0,0,.592,0l2.552-7a.52.52,0,0,1,.489-.343h1.885a.521.521,0,0,1,.485.711l-4.5,11.468A.52.52,0,0,1,2747.262,1191.858Z" transform="translate(-2740.811 -1179.348)"/></g><g transform="translate(15.802 0.105)"><path class="c" d="M2426.083,1180.235a.521.521,0,0,0-.371-.887h-2.4c-.812,0-3.366,2.534-4.824,5.364a.155.155,0,0,1-.293-.073l.033-1.56v-3.209a.521.521,0,0,0-.521-.521h-1.848a.521.521,0,0,0-.521.521v11.467a.521.521,0,0,0,.521.521h1.847a.521.521,0,0,0,.521-.521C2419.4,1184.348,2426.083,1180.235,2426.083,1180.235Z" transform="translate(-2415.338 -1179.348)"/><path class="c" d="M2446.138,1209.56l-4.194-5.917c-.437-.626-1.845,1.636-1.019,3l2.263,3.5a.521.521,0,0,0,.433.232h2.09A.521.521,0,0,0,2446.138,1209.56Z" transform="translate(-2434.735 -1197.87)"/></g><path class="c" d="M2584.393,1190.68v-10.811a.521.521,0,0,1,.521-.521h1.847a.521.521,0,0,1,.521.521v9.054a.521.521,0,0,0,.521.521h5.673a.521.521,0,0,1,.521.521v1.37a.521.521,0,0,1-.521.521h-7.906A1.177,1.177,0,0,1,2584.393,1190.68Z" transform="translate(-2528.99 -1179.243)"/><path class="c" d="M2646.8,1191.619a8.163,8.163,0,0,1-4.866-1.235.525.525,0,0,1-.046-.833l.714-.6a1.144,1.144,0,0,1,1.287-.134,6.084,6.084,0,0,0,2.932.627c1.725,0,2.641-.562,2.641-1.564a1.291,1.291,0,0,0-.458-1.037,2.335,2.335,0,0,0-1.331-.422l-1.767-.228a5.371,5.371,0,0,1-2.869-1.036,3.011,3.011,0,0,1-1.06-2.46c0-2.231,1.954-3.795,5.156-3.795a7.4,7.4,0,0,1,4.267,1.079.478.478,0,0,1,.05.768l-.739.618a1.1,1.1,0,0,1-1.205.14,5.269,5.269,0,0,0-2.456-.478c-1.539,0-2.266.72-2.266,1.581a1.075,1.075,0,0,0,.416.9,2.635,2.635,0,0,0,1.351.474l1.767.228a5.159,5.159,0,0,1,2.827.984,3.136,3.136,0,0,1,1.143,2.636C2652.288,1190.248,2649.918,1191.619,2646.8,1191.619Z" transform="translate(-2572.876 -1178.898)"/></g></g></svg>