<svg xmlns="http://www.w3.org/2000/svg" width="18" height="16" viewBox="0 0 18 16"><defs><style>.a{fill:rgba(167,180,203,0.6);}.b{fill:#fff;}</style></defs><g transform="translate(-5.712 -6.253)"><path class="a" d="M6.269,3.258a1.289,1.289,0,0,1-1.14,0L.285,0A5.973,5.973,0,0,0,0,1.81,5.57,5.57,0,0,0,5.7,7.24a5.57,5.57,0,0,0,5.7-5.43A5.973,5.973,0,0,0,11.114,0Z" transform="translate(8.688 15.013)"/><path class="b" d="M8.105.132.455,5.357a.8.8,0,0,0,0,1.441l7.65,5.225a1.251,1.251,0,0,0,1.12,0L14.636,8.33a.961.961,0,0,1,.977-.085.9.9,0,0,1,.516.806v3.333a.794.794,0,0,0,.24.669.858.858,0,0,0,.693.232h0a.858.858,0,0,0,.693-.232.794.794,0,0,0,.24-.669V6.528a1.068,1.068,0,0,0-.373-.721L9.225.132a1.251,1.251,0,0,0-1.12,0Z" transform="translate(5.712 6.253)"/></g></svg>