<svg xmlns="http://www.w3.org/2000/svg" width="18" height="17" viewBox="0 0 18 17"><defs><style>.a{fill:#fff;}.b{fill:rgba(167,180,203,0.6);}</style></defs><g transform="translate(0 3)"><g transform="translate(0 -3)"><path class="a" d="M7.2.005a.827.827,0,0,1,.9.85V7.682a.9.9,0,0,1-.264.636L3.009,13.146a.827.827,0,0,1-1.236-.034A8.1,8.1,0,0,1,7.2.005Z" transform="translate(0)"/><path class="b" d="M.295,14.333A.822.822,0,0,1,.261,13.1L5.088,8.29a.9.9,0,0,0,.264-.634V.852A.826.826,0,0,1,6.25,0a8.064,8.064,0,0,1,4.24,14.263,8.12,8.12,0,0,1-10.2.066Z" transform="translate(4.548 0.9)"/></g></g></svg>