<svg xmlns="http://www.w3.org/2000/svg" width="18" height="15" viewBox="0 0 18 15"><defs><style>.a{fill:#f9f9fc;opacity:0.6;}.a,.b{fill-rule:evenodd;}.b{fill:#fff;}</style></defs><g transform="translate(4)"><g transform="translate(-4)"><path class="a" d="M9.988,8H21.919l1.988,2.615H8Z" transform="translate(-6.954 -8)"/><path class="b" d="M8,12H22a1.993,1.993,0,0,1,2,1.986v8.936a1.993,1.993,0,0,1-2,1.986H19c-1,0-1.5-1.986-4-1.986s-2.5,1.986-4,1.986H8a1.993,1.993,0,0,1-2-1.986H6V13.986A1.993,1.993,0,0,1,8,12Zm3,7.943a1.986,1.986,0,1,0-2-1.986A1.993,1.993,0,0,0,11,19.943Zm8,0a1.986,1.986,0,1,0-2-1.986A1.993,1.993,0,0,0,19,19.943Z" transform="translate(-6 -9.908)"/></g></g></svg>