<svg xmlns="http://www.w3.org/2000/svg" width="18" height="14.7" viewBox="0 0 18 14.7"><defs><style>.a{fill:rgba(167,180,203,0.6);}.b{fill:#fff;}</style></defs><g transform="translate(-4 -6)"><g transform="translate(4 6)"><path class="a" d="M0,1.639A1.637,1.637,0,0,1,1.635,0H9.811a1.637,1.637,0,0,1,1.635,1.639v4.1A5.723,5.723,0,1,1,0,5.735Z" transform="translate(3.277)"/><path class="b" d="M2.458,0A2.458,2.458,0,0,0,0,2.458v.819A3.277,3.277,0,0,0,3.277,6.554H4.1a.819.819,0,0,0,0-1.639H3.277A1.639,1.639,0,0,1,1.639,3.277V2.458a.819.819,0,0,1,.819-.819H4.1A.819.819,0,1,0,4.1,0Z" transform="translate(0 1.639)"/><path class="b" d="M2.458,0A2.458,2.458,0,0,1,4.916,2.458v.819A3.277,3.277,0,0,1,1.639,6.554H.819a.819.819,0,0,1,0-1.639h.819A1.639,1.639,0,0,0,3.277,3.277V2.458a.819.819,0,0,0-.819-.819H.819A.819.819,0,0,1,.819,0Z" transform="translate(13.084 1.639)"/><path class="b" d="M3.277,0a.819.819,0,0,0-.819.819V3.277H.819a.819.819,0,1,0,0,1.639H5.735a.819.819,0,1,0,0-1.639H4.1V.819A.819.819,0,0,0,3.277,0Z" transform="translate(5.723 9.784)"/></g></g></svg>