<svg xmlns="http://www.w3.org/2000/svg" width="20" height="20" viewBox="0 0 20 20"><defs><style>.a{fill:rgba(60,156,222,0.3);}.b{fill:#3c9cde;}</style></defs><g transform="translate(-5 -5)"><path class="a" d="M18.472,24.828a2.685,2.685,0,0,1-2.3-2.3A16.052,16.052,0,0,1,16,20.5a16.038,16.038,0,0,1,.172-2.028,2.685,2.685,0,0,1,2.3-2.3A16.038,16.038,0,0,1,20.5,16a16.052,16.052,0,0,1,2.028.172,2.685,2.685,0,0,1,2.3,2.3A16.207,16.207,0,0,1,25,20.5a16.221,16.221,0,0,1-.172,2.028,2.685,2.685,0,0,1-2.3,2.3A16.221,16.221,0,0,1,20.5,25,16.207,16.207,0,0,1,18.472,24.828Zm-11,0a2.683,2.683,0,0,1-2.3-2.3A16.052,16.052,0,0,1,5,20.5a16.038,16.038,0,0,1,.172-2.028,2.683,2.683,0,0,1,2.3-2.3A16.025,16.025,0,0,1,9.5,16a16.025,16.025,0,0,1,2.027.172,2.683,2.683,0,0,1,2.3,2.3A16.048,16.048,0,0,1,14,20.5a16.062,16.062,0,0,1-.173,2.028,2.683,2.683,0,0,1-2.3,2.3A16.194,16.194,0,0,1,9.5,25,16.193,16.193,0,0,1,7.473,24.828Zm11-11a2.683,2.683,0,0,1-2.3-2.3A16.025,16.025,0,0,1,16,9.5a16.025,16.025,0,0,1,.172-2.028,2.683,2.683,0,0,1,2.3-2.3A16.038,16.038,0,0,1,20.5,5a16.052,16.052,0,0,1,2.028.172,2.683,2.683,0,0,1,2.3,2.3A16.193,16.193,0,0,1,25,9.5a16.194,16.194,0,0,1-.172,2.027,2.683,2.683,0,0,1-2.3,2.3A16.062,16.062,0,0,1,20.5,14,16.048,16.048,0,0,1,18.472,13.828Z"/><path class="b" d="M.172,2.472a2.683,2.683,0,0,1,2.3-2.3A16.086,16.086,0,0,1,4.5,0,16.086,16.086,0,0,1,6.528.172a2.683,2.683,0,0,1,2.3,2.3A16.077,16.077,0,0,1,9,4.5a16.077,16.077,0,0,1-.172,2.028,2.683,2.683,0,0,1-2.3,2.3A16.077,16.077,0,0,1,4.5,9a16.077,16.077,0,0,1-2.028-.172,2.683,2.683,0,0,1-2.3-2.3A16.086,16.086,0,0,1,0,4.5,16.086,16.086,0,0,1,.172,2.472Z" transform="translate(5 5)"/></g></svg>