<svg xmlns="http://www.w3.org/2000/svg" width="17.999" height="16.195" viewBox="0 0 17.999 16.195"><defs><style>.a{fill:#fff;}.b{fill:#a7b4cb;opacity:0.6;}</style></defs><g transform="translate(-4.994 -5.994)"><path class="a" d="M7.2,9l7.2-5.4V.905a.809.809,0,0,0-.9-.9H.905a.809.809,0,0,0-.9.9V3.6Z" transform="translate(6.792 5.994)"/><path class="b" d="M9,6.3,1.8.905v-.9h-.9a.809.809,0,0,0-.9.9v11.6a.989.989,0,0,0,.989.989H17a.989.989,0,0,0,.989-.989V.905a.809.809,0,0,0-.9-.9h-.9v.9Z" transform="translate(4.994 8.692)"/></g></svg>