<svg xmlns="http://www.w3.org/2000/svg" width="18" height="14.5" viewBox="0 0 18 14.5"><defs><style>.a,.b{fill:#fff;}.a{opacity:0.6;}.b{fill-rule:evenodd;}</style></defs><g transform="translate(-5915 -2237.193)"><path class="a" d="M14.642,18.352s-.457.264-.931-.339-.11-.933-.11-.933a4.142,4.142,0,0,0,.009-6.357.762.762,0,0,1,.123-1.014c.5-.539.921-.256.921-.256a5.8,5.8,0,0,1-.012,8.9Zm2.1,2.527s-.371.287-.863-.273a.8.8,0,0,1-.182-1,7.456,7.456,0,0,0,.007-11.419.841.841,0,0,1,.057-1.064.78.78,0,0,1,.989-.2,9.113,9.113,0,0,1-.008,13.955ZM7.358,18.352a5.8,5.8,0,0,1-.012-8.9.719.719,0,0,1,.927.256.923.923,0,0,1,.118,1.014A4.142,4.142,0,0,0,8.4,17.08s.256.364-.186.933S7.358,18.352,7.358,18.352Zm-2.1,2.527A9.113,9.113,0,0,1,5.247,6.924a.739.739,0,0,1,.99.2.847.847,0,0,1,.056,1.064A7.456,7.456,0,0,0,6.3,19.61s.3.361-.145,1S5.255,20.879,5.255,20.879Z" transform="translate(5913 2230.379)"/><path class="b" d="M20.224,22.911a2.04,2.04,0,1,1,1.632,0v4.658a.816.816,0,0,1-1.632,0Z" transform="translate(5902.959 2223.308)"/></g></svg>