<svg xmlns="http://www.w3.org/2000/svg" width="18" height="17.5" viewBox="0 0 18 17.5"><defs><style>.a{fill:#a7b4cb;opacity:0.6;}.b{fill:#fff;}</style></defs><path class="a" d="M17.095.006H.905A.817.817,0,0,0,.237.234.79.79,0,0,0,.006.892V13.3a.79.79,0,0,0,.231.658.817.817,0,0,0,.668.228h16.19a.817.817,0,0,0,.668-.228.79.79,0,0,0,.231-.658V9.752H11.7a.817.817,0,0,1-.668-.228.79.79,0,0,1-.231-.658V5.322a.79.79,0,0,1,.231-.658.817.817,0,0,1,.668-.228h6.3V.892a.79.79,0,0,0-.231-.658.817.817,0,0,0-.668-.228Z" transform="translate(0 3.312)"/><path class="b" d="M6.213,13.238A.817.817,0,0,1,5.64,13a.806.806,0,0,1-.238-.564l.006-.106V8.726a.816.816,0,0,1,.232-.669A.806.806,0,0,1,6.2,7.819l.105.006h6.31v5.408H6.31A.808.808,0,0,1,6.213,13.238Zm2.8-9.921H0L6.4.072A.894.894,0,0,1,6.753,0a.908.908,0,0,1,.771.433l.049.091L9.013,3.316Z" transform="translate(5.375)"/></svg>