<svg xmlns="http://www.w3.org/2000/svg" width="18" height="22" viewBox="0 0 18 22"><defs><style>.a{fill:#fff;}.b{fill:#a7b4cb;opacity:0.6;}</style></defs><g transform="translate(-6 -4)"><path class="a" d="M10,5A5,5,0,1,1,5,0,5,5,0,0,1,10,5Z" transform="translate(10 4)"/><path class="b" d="M15.818.553a2,2,0,0,0-2.5-.225A8.96,8.96,0,0,1,9,1.428,8.96,8.96,0,0,1,4.685.328a2,2,0,0,0-2.5.225A8.965,8.965,0,0,0,0,6.428v1a2,2,0,0,0,2,2H16a2,2,0,0,0,2-2v-1A8.965,8.965,0,0,0,15.818.553Z" transform="translate(6 16.572)"/></g></svg>