<svg xmlns="http://www.w3.org/2000/svg" width="18" height="21" viewBox="0 0 18 21"><defs><style>.a,.b{fill:#fff;}.b{opacity:0.4;}</style></defs><g transform="translate(-7 -5.295)"><path class="a" d="M1.346.005A1.264,1.264,0,0,0,.439.276,1.178,1.178,0,0,0,0,1.088V9.853a8.529,8.529,0,0,0,3.028,6.493l5.158,4.329A1.256,1.256,0,0,0,8.97,21V.763A36.2,36.2,0,0,1,1.346.005Z" transform="translate(7 5.295)"/><path class="b" d="M5.943,16.347A8.529,8.529,0,0,0,8.97,9.853V1.088A1.178,1.178,0,0,0,8.531.276,1.264,1.264,0,0,0,7.625.005,36.2,36.2,0,0,1,0,.763V21a1.256,1.256,0,0,0,.785-.325Z" transform="translate(16.03 5.295)"/></g></svg>