<svg xmlns="http://www.w3.org/2000/svg" width="18" height="15.656" viewBox="0 0 18 15.656"><defs><style>.a{fill:#fff;}.b{fill:#a7b4cb;opacity:0.6;}</style></defs><g transform="translate(7.405)"><path class="a" d="M5.886,2.943A2.943,2.943,0,1,1,2.943,0,2.943,2.943,0,0,1,5.886,2.943Z" transform="translate(2.354)"/><path class="b" d="M9.31.326A1.178,1.178,0,0,0,7.837.193,5.274,5.274,0,0,1,5.3.841,5.274,5.274,0,0,1,2.758.193,1.178,1.178,0,0,0,1.284.326,5.277,5.277,0,0,0,0,3.784v.589A1.177,1.177,0,0,0,1.177,5.549h8.24a1.177,1.177,0,0,0,1.177-1.177V3.784A5.277,5.277,0,0,0,9.31.326Z" transform="translate(0 7.4)"/></g><g transform="translate(0 2.708)"><path class="a" d="M5.886,2.943A2.943,2.943,0,1,1,2.943,0,2.943,2.943,0,0,1,5.886,2.943Z" transform="translate(2.354)"/><path class="b" d="M6.666,3.607C6.09,2.889,6.192.963,6.123.777S5.578.841,5.3.841A5.274,5.274,0,0,1,2.758.193,1.178,1.178,0,0,0,1.284.326,5.277,5.277,0,0,0,0,3.784v.589A1.177,1.177,0,0,0,1.177,5.549h8.24a1.219,1.219,0,0,0,1.177-1.177C10.595,3.784,7.253,4.727,6.666,3.607Z" transform="translate(0 7.4)"/></g></svg>